SplineFontDB: 3.2
FontName: TengwarEnglish
FullName: English Tengwar
FamilyName: Tengwar English
Weight: Book
Copyright: Tengwar English | Sam\nModification of Tengwar Transliteral by\nThe Zephyris foundry; Richard Wheeler \n(www.richardwheeler.net)
Version: 001.000
ItalicAngle: 0
UnderlinePosition: -306
UnderlineWidth: 102
Ascent: 1331
Descent: 717
InvalidEm: 0
sfntRevision: 0x0001199a
LayerCount: 2
Layer: 0 1 "Back" 1
Layer: 1 1 "Fore" 0
XUID: [1021 78 -1868653765 7110]
StyleMap: 0x0040
FSType: 0
OS2Version: 4
OS2_WeightWidthSlopeOnly: 0
OS2_UseTypoMetrics: 1
CreationTime: 1412630470
ModificationTime: 1621418456
PfmFamily: 17
TTFWeight: 400
TTFWidth: 5
LineGap: 184
VLineGap: 0
Panose: 2 0 5 3 0 0 0 0 0 0
OS2TypoAscent: 1331
OS2TypoAOffset: 0
OS2TypoDescent: -717
OS2TypoDOffset: 0
OS2TypoLinegap: 184
OS2WinAscent: 1253
OS2WinAOffset: 0
OS2WinDescent: 614
OS2WinDOffset: 0
HheadAscent: 1253
HheadAOffset: 0
HheadDescent: -614
HheadDOffset: 0
OS2SubXSize: 1331
OS2SubYSize: 1432
OS2SubXOff: 0
OS2SubYOff: 287
OS2SupXSize: 1331
OS2SupYSize: 1432
OS2SupXOff: 0
OS2SupYOff: 981
OS2StrikeYSize: 100
OS2StrikeYPos: 528
OS2CapHeight: 614
OS2XHeight: 614
OS2Vendor: 'PfEd'
OS2CodePages: 00000001.00000000
OS2UnicodeRanges: 00000001.00000000.00000000.00000000
Lookup: 4 0 0 "ligeratures diph" { "ea"  "_u diph"  "i diph"  } ['liga' ('DFLT' <'dflt' > 'latn' <'dflt' > ) ]
Lookup: 1 0 0 "silent e" { "silent e"  } ['cv05' ('DFLT' <'dflt' > 'latn' <'dflt' > ) ]
Lookup: 1 0 0 "S trail low" { "S trail low"  } ['cv03' ('DFLT' <'dflt' > 'latn' <'dflt' > ) ]
Lookup: 1 0 0 "S trail high" { "S trail high"  } ['cv04' ('DFLT' <'dflt' > 'latn' <'dflt' > ) ]
Lookup: 1 0 0 "nasalized " { "nasalized"  } ['cv02' ('DFLT' <'dflt' > 'latn' <'dflt' > ) ]
Lookup: 1 0 0 "nasal short" { "nasal short"  } ['cv02' ('DFLT' <'dflt' > 'latn' <'dflt' > ) ]
Lookup: 1 0 0 "vowel dicritic tengwa" { "vowel diacritic tengwa"  } ['cv00' ('DFLT' <'dflt' > 'latn' <'dflt' > ) ]

StartChar: .notdef
Encoding: 65536 -1 0
Width: 1050
VWidth: 4300
Flags: W
LayerCount: 2
Fore
SplineSet
105 0 m 1,0,-1
 105 909.299804688 l 1,1,-1
 945 909.299804688 l 1,2,-1
 945 0 l 1,3,-1
 105 0 l 1,0,-1
210 105 m 1,4,-1
 840 105 l 1,5,-1
 840 804.299804688 l 1,6,-1
 210 804.299804688 l 1,7,-1
 210 105 l 1,4,-1
EndSplineSet
EndChar

StartChar: exclam
Encoding: 33 33 4
Width: 283
VWidth: 3639
GlyphClass: 2
Flags: W
LayerCount: 2
Fore
SplineSet
135.690429688 97.6591796875 m 4,0,1
 135.690429688 149.591796875 135.690429688 149.591796875 116.122070312 222.974609375 c 132,-1,2
 96.552734375 296.356445312 96.552734375 296.356445312 72.845703125 358.44921875 c 132,-1,3
 49.13671875 420.541992188 49.13671875 420.541992188 29.568359375 494.301757812 c 132,-1,4
 10 568.059570312 10 568.059570312 10 621.497070312 c 4,5,6
 10 683.213867188 10 683.213867188 33.7080078125 732.887695312 c 132,-1,7
 57.4169921875 782.5625 57.4169921875 782.5625 107.84375 832.990234375 c 4,8,9
 140.20703125 865.353515625 140.20703125 865.353515625 175.204101562 889.8125 c 132,-1,10
 210.203125 914.274414062 210.203125 914.274414062 224.501953125 914.274414062 c 4,11,12
 231.275390625 914.274414062 231.275390625 914.274414062 231.275390625 908.252929688 c 4,13,14
 231.275390625 891.6953125 231.275390625 891.6953125 189.12890625 852.557617188 c 4,15,16
 149.990234375 816.431640625 149.990234375 816.431640625 149.990234375 730.630859375 c 4,17,18
 149.990234375 674.935546875 149.990234375 674.935546875 169.559570312 601.928710938 c 132,-1,19
 189.12890625 528.922851562 189.12890625 528.922851562 212.459960938 469.463867188 c 132,-1,20
 235.791992188 410.005859375 235.791992188 410.005859375 255.360351562 337 c 132,-1,21
 274.9296875 263.993164062 274.9296875 263.993164062 274.9296875 208.297851562 c 4,22,23
 274.9296875 146.581054688 274.9296875 146.581054688 251.221679688 96.90625 c 132,-1,24
 227.51171875 47.2333984375 227.51171875 47.2333984375 177.0859375 -3.193359375 c 4,25,26
 149.23828125 -31.0419921875 149.23828125 -31.0419921875 111.60546875 -58.13671875 c 132,-1,27
 73.9736328125 -85.2314453125 73.9736328125 -85.2314453125 59.6748046875 -85.2314453125 c 4,28,29
 52.900390625 -85.2314453125 52.900390625 -85.2314453125 52.900390625 -78.4580078125 c 4,30,31
 52.900390625 -70.9306640625 52.900390625 -70.9306640625 66.4482421875 -53.6220703125 c 132,-1,32
 79.99609375 -36.3095703125 79.99609375 -36.3095703125 93.54296875 -22.7626953125 c 6,33,-1
 107.84375 -9.21484375 l 5,34,35
 135.690429688 32.9326171875 135.690429688 32.9326171875 135.690429688 97.6591796875 c 4,0,1
EndSplineSet
EndChar

StartChar: quotedbl
Encoding: 34 34 5
Width: 627
VWidth: 4300
GlyphClass: 2
Flags: W
LayerCount: 2
Fore
SplineSet
147 504 m 1,0,-1
 252 609 l 1,1,-1
 273 588 l 1,2,-1
 273 126 l 1,3,-1
 168 21 l 1,4,-1
 147 42 l 1,5,-1
 147 504 l 1,0,-1
357 504 m 1,6,-1
 462 609 l 1,7,-1
 483 588 l 1,8,-1
 483 126 l 1,9,-1
 378 21 l 1,10,-1
 357 42 l 1,11,-1
 357 504 l 1,6,-1
EndSplineSet
EndChar

StartChar: ampersand
Encoding: 38 38 6
Width: 774
VWidth: 4300
GlyphClass: 2
Flags: W
LayerCount: 2
Fore
SplineSet
42 630 m 1,0,-1
 562.799804688 630 l 1,1,-1
 567 630 l 1,2,-1
 672 630 l 1,3,-1
 693 609 l 1,4,-1
 630 525 l 1,5,-1
 609 525 l 1,6,-1
 609 420 l 1,7,-1
 609 -210 l 1,8,-1
 609 -525 l 1,9,-1
 630 -525 l 1,10,-1
 651 -546 l 1,11,-1
 588 -630 l 1,12,-1
 504 -630 l 1,13,-1
 483 -609 l 1,14,-1
 483 -210 l 1,15,-1
 483 420 l 1,16,-1
 483 525 l 1,17,-1
 63 525 l 2,18,19
 31.5 525 31.5 525 14.7001953125 514.5 c 2,20,-1
 0 504 l 1,21,-1
 -42 504 l 1,22,-1
 42 630 l 1,0,-1
EndSplineSet
EndChar

StartChar: quotesingle
Encoding: 39 39 7
Width: 354
VWidth: 4300
GlyphClass: 2
Flags: W
LayerCount: 2
Fore
SplineSet
84 744 m 1,0,-1
 168 870 l 1,1,-1
 273 786 l 1,2,-1
 189 660 l 1,3,-1
 84 744 l 1,0,-1
84 744 m 1,4,-1
 168 870 l 1,5,-1
 273 786 l 1,6,-1
 189 660 l 1,7,-1
 84 744 l 1,4,-1
EndSplineSet
EndChar

StartChar: parenleft
Encoding: 40 40 8
Width: 354
VWidth: 4300
GlyphClass: 2
Flags: W
LayerCount: 2
Fore
SplineSet
163.799804688 1260 m 1,0,-1
 315 1260 l 1,1,-1
 336 1239 l 1,2,-1
 273 1155 l 1,3,-1
 210 1155 l 1,4,-1
 210 -525 l 1,5,-1
 315 -525 l 1,6,-1
 336 -546 l 1,7,-1
 273 -630 l 1,8,-1
 105 -630 l 1,9,-1
 84 -609 l 1,10,-1
 84 1155 l 1,11,-1
 163.799804688 1260 l 1,0,-1
EndSplineSet
EndChar

StartChar: parenright
Encoding: 41 41 9
Width: 354
VWidth: 4300
GlyphClass: 2
Flags: W
LayerCount: 2
Fore
SplineSet
235.200195312 -630 m 1,0,-1
 84 -630 l 1,1,-1
 63 -609 l 1,2,-1
 126 -525 l 1,3,-1
 189 -525 l 1,4,-1
 189 1155 l 1,5,-1
 84 1155 l 1,6,-1
 63 1176 l 1,7,-1
 126 1260 l 1,8,-1
 294 1260 l 1,9,-1
 315 1239 l 1,10,-1
 315 -525 l 1,11,-1
 235.200195312 -630 l 1,0,-1
EndSplineSet
EndChar

StartChar: comma
Encoding: 44 44 10
Width: 354
VWidth: 4300
GlyphClass: 2
Flags: W
LayerCount: 2
Fore
SplineSet
84 294 m 1,0,-1
 168 420 l 1,1,-1
 273 336 l 1,2,-1
 189 210 l 1,3,-1
 84 294 l 1,0,-1
EndSplineSet
EndChar

StartChar: hyphen
Encoding: 45 45 11
Width: 774
VWidth: 4300
GlyphClass: 2
Flags: W
LayerCount: 2
Fore
SplineSet
609 390.599609375 m 1,0,-1
 651 390.599609375 l 1,1,-1
 567 264.599609375 l 1,2,-1
 147 264.599609375 l 2,3,4
 115.5 264.599609375 115.5 264.599609375 98.7001953125 254.099609375 c 2,5,-1
 84 243.599609375 l 1,6,-1
 42 243.599609375 l 1,7,-1
 126 369.599609375 l 1,8,-1
 546 369.599609375 l 2,9,10
 577.5 369.599609375 577.5 369.599609375 585.900390625 375.900390625 c 2,11,-1
 609 390.599609375 l 1,0,-1
EndSplineSet
EndChar

StartChar: period
Encoding: 46 46 12
Width: 354
VWidth: 4300
GlyphClass: 2
Flags: W
LayerCount: 2
Fore
SplineSet
84 84 m 5,0,-1
 168 210 l 5,1,-1
 273 126 l 5,2,-1
 189 0 l 5,3,-1
 84 84 l 5,0,-1
84 504 m 5,4,-1
 168 630 l 5,5,-1
 273 546 l 5,6,-1
 189 420 l 5,7,-1
 84 504 l 5,4,-1
EndSplineSet
EndChar

StartChar: zero
Encoding: 48 48 13
Width: 606
VWidth: 4300
GlyphClass: 2
Flags: W
LayerCount: 2
Fore
SplineSet
256.200195312 630 m 0,0,1
 367.5 630 367.5 630 427.349609375 570.150390625 c 128,-1,2
 487.200195312 510.299804688 487.200195312 510.299804688 487.200195312 399 c 2,3,-1
 487.200195312 231 l 2,4,5
 487.200195312 119.700195312 487.200195312 119.700195312 427.349609375 59.849609375 c 128,-1,6
 367.5 0 367.5 0 256.200195312 0 c 0,7,8
 214.200195312 0 214.200195312 0 175.349609375 26.25 c 128,-1,9
 136.5 52.5 136.5 52.5 113.400390625 77.7001953125 c 2,10,-1
 88.2001953125 105 l 1,11,-1
 151.200195312 210 l 1,12,-1
 172.200195312 210 l 1,13,14
 180.599609375 178.5 l 256,15,16
 189 147 189 147 212.099609375 115.5 c 128,-1,17
 235.200195312 84 235.200195312 84 277.200195312 84 c 0,18,19
 340.200195312 84 340.200195312 84 350.700195312 126 c 128,-1,20
 361.200195312 168 361.200195312 168 361.200195312 231 c 2,21,-1
 361.200195312 399 l 2,22,23
 361.200195312 462 361.200195312 462 338.099609375 504 c 128,-1,24
 315 546 315 546 235.200195312 546 c 0,25,26
 172.200195312 546 172.200195312 546 140.700195312 525 c 2,27,-1
 109.200195312 504 l 1,28,-1
 88.2001953125 525 l 1,29,-1
 113.400390625 552.299804688 l 2,30,31
 136.5 577.5 136.5 577.5 175.349609375 603.75 c 128,-1,32
 214.200195312 630 214.200195312 630 256.200195312 630 c 0,0,1
EndSplineSet
EndChar

StartChar: one
Encoding: 49 49 14
Width: 585
VWidth: 4300
GlyphClass: 2
Flags: W
LayerCount: 2
Fore
SplineSet
504 651 m 1,0,-1
 546 651 l 1,1,-1
 462 525 l 1,2,-1
 210 525 l 1,3,-1
 210 231 l 2,4,5
 210 168 210 168 234.150390625 126 c 128,-1,6
 258.299804688 84 258.299804688 84 336 84 c 0,7,8
 399 84 399 84 430.5 105 c 2,9,-1
 462 126 l 1,10,-1
 483 105 l 1,11,12
 459.900390625 77.7001953125 l 0,13,14
 434.700195312 52.5 434.700195312 52.5 395.849609375 26.25 c 128,-1,15
 357 0 357 0 315 0 c 0,16,17
 205.799804688 0 205.799804688 0 144.900390625 59.849609375 c 128,-1,18
 84 119.700195312 84 119.700195312 84 231 c 2,19,-1
 84 516.599609375 l 1,20,21
 73.5 512.400390625 73.5 512.400390625 67.2001953125 508.200195312 c 2,22,-1
 63 504 l 1,23,-1
 21 504 l 1,24,-1
 105 630 l 1,25,-1
 441 630 l 2,26,27
 472.5 630 472.5 630 480.900390625 636.299804688 c 2,28,-1
 504 651 l 1,0,-1
EndSplineSet
EndChar

StartChar: two
Encoding: 50 50 15
Width: 837
VWidth: 4300
GlyphClass: 2
Flags: W
LayerCount: 2
Fore
SplineSet
756 651 m 1,0,-1
 798 651 l 1,1,-1
 714 525 l 1,2,-1
 462 525 l 1,3,-1
 462 231 l 2,4,5
 462 168 462 168 486.150390625 126 c 128,-1,6
 510.299804688 84 510.299804688 84 588 84 c 0,7,8
 651 84 651 84 682.5 105 c 2,9,-1
 714 126 l 1,10,-1
 735 105 l 1,11,12
 711.900390625 77.7001953125 l 0,13,14
 686.700195312 52.5 686.700195312 52.5 647.849609375 26.25 c 128,-1,15
 609 0 609 0 567 0 c 0,16,17
 474.599609375 0 474.599609375 0 417.900390625 42 c 1,18,19
 394.799804688 25.2001953125 394.799804688 25.2001953125 368.549804688 12.599609375 c 128,-1,20
 342.299804688 0 342.299804688 0 315 0 c 0,21,22
 205.799804688 0 205.799804688 0 144.900390625 59.849609375 c 128,-1,23
 84 119.700195312 84 119.700195312 84 231 c 2,24,-1
 84 516.599609375 l 1,25,26
 73.5 512.400390625 73.5 512.400390625 67.2001953125 508.200195312 c 2,27,-1
 63 504 l 1,28,-1
 21 504 l 1,29,-1
 105 630 l 1,30,-1
 693 630 l 2,31,32
 724.5 630 724.5 630 732.900390625 636.299804688 c 2,33,-1
 756 651 l 1,0,-1
210 525 m 1,34,-1
 210 231 l 2,35,36
 210 168 210 168 234.150390625 126 c 128,-1,37
 258.299804688 84 258.299804688 84 336 84 c 0,38,39
 354.900390625 84 354.900390625 84 373.799804688 86.099609375 c 1,40,41
 336 142.799804688 336 142.799804688 336 231 c 2,42,-1
 336 525 l 1,43,-1
 210 525 l 1,34,-1
EndSplineSet
EndChar

StartChar: three
Encoding: 51 51 16
Width: 1089
VWidth: 4300
GlyphClass: 2
Flags: W
LayerCount: 2
Fore
SplineSet
1008 651 m 1,0,-1
 1050 651 l 1,1,-1
 966 525 l 1,2,-1
 714 525 l 1,3,-1
 714 231 l 2,4,5
 714 168 714 168 738.150390625 126 c 128,-1,6
 762.299804688 84 762.299804688 84 840 84 c 0,7,8
 903 84 903 84 934.5 105 c 2,9,-1
 966 126 l 1,10,-1
 987 105 l 1,11,12
 961.799804688 77.7001953125 l 0,13,14
 936.599609375 52.5 936.599609375 52.5 898.799804688 26.25 c 128,-1,15
 861 0 861 0 819 0 c 0,16,17
 726.599609375 0 726.599609375 0 669.900390625 42 c 1,18,19
 646.799804688 25.2001953125 646.799804688 25.2001953125 620.549804688 12.599609375 c 128,-1,20
 594.299804688 0 594.299804688 0 567 0 c 0,21,22
 474.599609375 0 474.599609375 0 417.900390625 42 c 1,23,24
 394.799804688 25.2001953125 394.799804688 25.2001953125 368.549804688 12.599609375 c 128,-1,25
 342.299804688 0 342.299804688 0 315 0 c 0,26,27
 205.799804688 0 205.799804688 0 144.900390625 59.849609375 c 128,-1,28
 84 119.700195312 84 119.700195312 84 231 c 2,29,-1
 84 516.599609375 l 1,30,31
 73.5 512.400390625 73.5 512.400390625 67.2001953125 508.200195312 c 2,32,-1
 63 504 l 1,33,-1
 21 504 l 1,34,-1
 105 630 l 1,35,-1
 945 630 l 2,36,37
 976.5 630 976.5 630 984.900390625 636.299804688 c 2,38,-1
 1008 651 l 1,0,-1
210 525 m 1,39,-1
 210 231 l 2,40,41
 210 168 210 168 234.150390625 126 c 128,-1,42
 258.299804688 84 258.299804688 84 336 84 c 0,43,44
 354.900390625 84 354.900390625 84 373.799804688 86.099609375 c 1,45,46
 336 142.799804688 336 142.799804688 336 231 c 2,47,-1
 336 525 l 1,48,-1
 210 525 l 1,39,-1
462 525 m 1,49,-1
 462 231 l 2,50,51
 462 168 462 168 486.150390625 126 c 128,-1,52
 510.299804688 84 510.299804688 84 588 84 c 0,53,54
 606.900390625 84 606.900390625 84 625.799804688 86.099609375 c 1,55,56
 588 142.799804688 588 142.799804688 588 231 c 2,57,-1
 588 525 l 1,58,-1
 462 525 l 1,49,-1
EndSplineSet
EndChar

StartChar: four
Encoding: 52 52 17
Width: 459
VWidth: 4300
GlyphClass: 2
Flags: W
LayerCount: 2
Fore
SplineSet
105 1050 m 1,0,-1
 189 1050 l 1,1,-1
 210 1029 l 1,2,-1
 210 630 l 1,3,-1
 210 105 l 1,4,-1
 210 -189 l 2,5,6
 210 -252 210 -252 234.150390625 -294 c 128,-1,7
 258.299804688 -336 258.299804688 -336 336 -336 c 0,8,9
 399 -336 399 -336 430.5 -315 c 2,10,-1
 462 -294 l 1,11,-1
 483 -315 l 1,12,13
 459.900390625 -340.200195312 l 0,14,15
 434.700195312 -367.5 434.700195312 -367.5 395.849609375 -393.75 c 128,-1,16
 357 -420 357 -420 315 -420 c 0,17,18
 205.799804688 -420 205.799804688 -420 144.900390625 -360.150390625 c 128,-1,19
 84 -300.299804688 84 -300.299804688 84 -189 c 2,20,-1
 84 105 l 1,21,-1
 84 630 l 1,22,-1
 84 945 l 1,23,24
 52.5 945 52.5 945 27.2998046875 924 c 2,25,-1
 0 903 l 1,26,-1
 -21 924 l 1,27,-1
 105 1050 l 1,0,-1
EndSplineSet
EndChar

StartChar: five
Encoding: 53 53 18
Width: 837
VWidth: 4300
GlyphClass: 2
Flags: W
LayerCount: 2
Fore
SplineSet
105 1050 m 1,0,-1
 189 1050 l 1,1,-1
 210 1029 l 1,2,-1
 210 630 l 1,3,-1
 693 630 l 2,4,5
 724.5 630 724.5 630 741.299804688 640.5 c 2,6,-1
 756 651 l 1,7,-1
 798 651 l 1,8,-1
 714 525 l 1,9,-1
 462 525 l 1,10,-1
 462 231 l 2,11,12
 462 168 462 168 486.150390625 126 c 128,-1,13
 510.299804688 84 510.299804688 84 588 84 c 0,14,15
 651 84 651 84 682.5 105 c 2,16,-1
 714 126 l 1,17,-1
 735 105 l 1,18,19
 711.900390625 77.7001953125 l 0,20,21
 686.700195312 52.5 686.700195312 52.5 647.849609375 26.25 c 128,-1,22
 609 0 609 0 567 0 c 0,23,24
 457.799804688 0 457.799804688 0 396.900390625 59.849609375 c 128,-1,25
 336 119.700195312 336 119.700195312 336 231 c 2,26,-1
 336 525 l 1,27,-1
 210 525 l 1,28,-1
 210 105 l 1,29,-1
 210 -189 l 2,30,31
 210 -252 210 -252 234.150390625 -294 c 128,-1,32
 258.299804688 -336 258.299804688 -336 336 -336 c 0,33,34
 399 -336 399 -336 430.5 -315 c 2,35,-1
 462 -294 l 1,36,-1
 483 -315 l 1,37,-1
 459.900390625 -340.200195312 l 2,38,39
 434.700195312 -367.5 434.700195312 -367.5 395.849609375 -393.75 c 128,-1,40
 357 -420 357 -420 315 -420 c 0,41,42
 205.799804688 -420 205.799804688 -420 144.900390625 -360.150390625 c 128,-1,43
 84 -300.299804688 84 -300.299804688 84 -189 c 2,44,-1
 84 105 l 1,45,-1
 84 630 l 1,46,-1
 84 945 l 1,47,48
 52.5 945 52.5 945 27.2998046875 924 c 2,49,-1
 0 903 l 1,50,-1
 -21 924 l 1,51,-1
 105 1050 l 1,0,-1
EndSplineSet
EndChar

StartChar: six
Encoding: 54 54 19
Width: 1089
VWidth: 4300
GlyphClass: 2
Flags: W
LayerCount: 2
Fore
SplineSet
105 1050 m 1,0,-1
 189 1050 l 1,1,-1
 210 1029 l 1,2,-1
 210 630 l 1,3,-1
 945 630 l 2,4,5
 976.5 630 976.5 630 993.299804688 640.5 c 2,6,-1
 1008 651 l 1,7,-1
 1050 651 l 1,8,-1
 966 525 l 1,9,-1
 714 525 l 1,10,-1
 714 231 l 2,11,12
 714 168 714 168 738.150390625 126 c 128,-1,13
 762.299804688 84 762.299804688 84 840 84 c 0,14,15
 903 84 903 84 934.5 105 c 2,16,-1
 966 126 l 1,17,-1
 987 105 l 1,18,19
 961.799804688 77.7001953125 l 0,20,21
 936.599609375 52.5 936.599609375 52.5 898.799804688 26.25 c 128,-1,22
 861 0 861 0 819 0 c 0,23,24
 726.599609375 0 726.599609375 0 669.900390625 42 c 1,25,26
 646.799804688 25.2001953125 646.799804688 25.2001953125 620.549804688 12.599609375 c 128,-1,27
 594.299804688 0 594.299804688 0 567 0 c 0,28,29
 457.799804688 0 457.799804688 0 396.900390625 59.849609375 c 128,-1,30
 336 119.700195312 336 119.700195312 336 231 c 2,31,-1
 336 525 l 1,32,-1
 210 525 l 1,33,-1
 210 105 l 1,34,-1
 210 -189 l 2,35,36
 210 -252 210 -252 234.150390625 -294 c 128,-1,37
 258.299804688 -336 258.299804688 -336 336 -336 c 0,38,39
 399 -336 399 -336 430.5 -315 c 2,40,-1
 462 -294 l 1,41,-1
 483 -315 l 1,42,-1
 459.900390625 -340.200195312 l 2,43,44
 434.700195312 -367.5 434.700195312 -367.5 395.849609375 -393.75 c 128,-1,45
 357 -420 357 -420 315 -420 c 0,46,47
 205.799804688 -420 205.799804688 -420 144.900390625 -360.150390625 c 128,-1,48
 84 -300.299804688 84 -300.299804688 84 -189 c 2,49,-1
 84 105 l 1,50,-1
 84 630 l 1,51,-1
 84 945 l 1,52,53
 52.5 945 52.5 945 27.2998046875 924 c 2,54,-1
 0 903 l 1,55,-1
 -21 924 l 1,56,-1
 105 1050 l 1,0,-1
462 525 m 1,57,-1
 462 231 l 2,58,59
 462 168 462 168 486.150390625 126 c 128,-1,60
 510.299804688 84 510.299804688 84 588 84 c 0,61,62
 606.900390625 84 606.900390625 84 625.799804688 86.099609375 c 1,63,64
 588 142.799804688 588 142.799804688 588 231 c 2,65,-1
 588 525 l 1,66,-1
 462 525 l 1,57,-1
EndSplineSet
EndChar

StartChar: seven
Encoding: 55 55 20
Width: 525
VWidth: 4300
GlyphClass: 2
Flags: W
LayerCount: 2
Fore
SplineSet
399 -189 m 2,0,1
 399 -300.299804688 399 -300.299804688 339.150390625 -360.150390625 c 128,-1,2
 279.299804688 -420 279.299804688 -420 168 -420 c 0,3,4
 126 -420 126 -420 87.150390625 -393.75 c 128,-1,5
 48.2998046875 -367.5 48.2998046875 -367.5 25.2001953125 -340.200195312 c 2,6,-1
 0 -315 l 1,7,-1
 21 -294 l 1,8,9
 52.5 -315 l 0,10,11
 84 -336 84 -336 147 -336 c 0,12,13
 226.799804688 -336 226.799804688 -336 249.900390625 -294 c 128,-1,14
 273 -252 273 -252 273 -189 c 2,15,-1
 273 105 l 1,16,-1
 273 630 l 1,17,-1
 273 945 l 1,18,19
 241.5 945 241.5 945 216.299804688 924 c 2,20,-1
 189 903 l 1,21,-1
 168 924 l 1,22,-1
 294 1050 l 1,23,-1
 378 1050 l 1,24,-1
 399 1029 l 1,25,-1
 399 630 l 1,26,-1
 399 105 l 1,27,-1
 399 -189 l 2,0,1
EndSplineSet
EndChar

StartChar: eight
Encoding: 56 56 21
Width: 774
VWidth: 4300
GlyphClass: 2
Flags: W
LayerCount: 2
Fore
SplineSet
294 1050 m 1,0,-1
 378 1050 l 1,1,-1
 399 1029 l 1,2,-1
 399 630 l 1,3,-1
 399 627.900390625 l 1,4,5
 409.5 630 409.5 630 420 630 c 0,6,7
 531.299804688 630 531.299804688 630 591.150390625 570.150390625 c 128,-1,8
 651 510.299804688 651 510.299804688 651 399 c 2,9,-1
 651 107.099609375 l 1,10,11
 672 111.299804688 672 111.299804688 682.5 119.700195312 c 2,12,-1
 693 126 l 1,13,-1
 735 126 l 1,14,-1
 651 0 l 1,15,-1
 399 0 l 1,16,-1
 399 -189 l 2,17,18
 399 -300.299804688 399 -300.299804688 339.150390625 -360.150390625 c 128,-1,19
 279.299804688 -420 279.299804688 -420 168 -420 c 0,20,21
 126 -420 126 -420 87.150390625 -393.75 c 128,-1,22
 48.2998046875 -367.5 48.2998046875 -367.5 25.2001953125 -340.200195312 c 2,23,-1
 0 -315 l 1,24,-1
 21 -294 l 1,25,26
 52.5 -315 l 0,27,28
 84 -336 84 -336 147 -336 c 0,29,30
 226.799804688 -336 226.799804688 -336 249.900390625 -294 c 128,-1,31
 273 -252 273 -252 273 -189 c 2,32,-1
 273 105 l 1,33,-1
 273 504 l 1,34,-1
 273 546 l 1,35,-1
 273 630 l 1,36,-1
 273 945 l 1,37,38
 241.5 945 241.5 945 216.299804688 924 c 2,39,-1
 189 903 l 1,40,-1
 168 924 l 1,41,-1
 294 1050 l 1,0,-1
399 546 m 1,42,-1
 399 105 l 1,43,-1
 525 105 l 1,44,-1
 525 399 l 2,45,46
 525 462 525 462 501.900390625 504 c 128,-1,47
 478.799804688 546 478.799804688 546 399 546 c 1,42,-1
EndSplineSet
EndChar

StartChar: nine
Encoding: 57 57 22
Width: 1026
VWidth: 4300
GlyphClass: 2
Flags: W
LayerCount: 2
Fore
SplineSet
294 1050 m 1,0,-1
 378 1050 l 1,1,-1
 399 1029 l 1,2,-1
 399 630 l 1,3,-1
 399 627.900390625 l 1,4,5
 409.5 630 409.5 630 420 630 c 0,6,7
 512.400390625 630 512.400390625 630 569.099609375 588 c 1,8,9
 592.200195312 604.799804688 592.200195312 604.799804688 618.450195312 617.400390625 c 128,-1,10
 644.700195312 630 644.700195312 630 672 630 c 0,11,12
 783.299804688 630 783.299804688 630 843.150390625 570.150390625 c 128,-1,13
 903 510.299804688 903 510.299804688 903 399 c 2,14,-1
 903 107.099609375 l 1,15,16
 924 111.299804688 924 111.299804688 934.5 119.700195312 c 2,17,-1
 945 126 l 1,18,-1
 987 126 l 1,19,-1
 903 0 l 1,20,-1
 399 0 l 1,21,-1
 399 -189 l 2,22,23
 399 -300.299804688 399 -300.299804688 339.150390625 -360.150390625 c 128,-1,24
 279.299804688 -420 279.299804688 -420 168 -420 c 0,25,26
 126 -420 126 -420 87.150390625 -393.75 c 128,-1,27
 48.2998046875 -367.5 48.2998046875 -367.5 25.2001953125 -340.200195312 c 2,28,-1
 0 -315 l 1,29,-1
 21 -294 l 1,30,31
 52.5 -315 l 0,32,33
 84 -336 84 -336 147 -336 c 0,34,35
 226.799804688 -336 226.799804688 -336 249.900390625 -294 c 128,-1,36
 273 -252 273 -252 273 -189 c 2,37,-1
 273 105 l 1,38,-1
 273 504 l 1,39,-1
 273 546 l 1,40,-1
 273 630 l 1,41,-1
 273 945 l 1,42,43
 241.5 945 241.5 945 216.299804688 924 c 2,44,-1
 189 903 l 1,45,-1
 168 924 l 1,46,-1
 294 1050 l 1,0,-1
399 546 m 1,47,-1
 399 105 l 1,48,-1
 525 105 l 1,49,-1
 525 399 l 2,50,51
 525 462 525 462 501.900390625 504 c 128,-1,52
 478.799804688 546 478.799804688 546 399 546 c 1,47,-1
651 546 m 0,53,54
 632.099609375 546 632.099609375 546 613.200195312 543.900390625 c 1,55,56
 651 487.200195312 651 487.200195312 651 399 c 2,57,-1
 651 105 l 1,58,-1
 777 105 l 1,59,-1
 777 399 l 2,60,61
 777 462 777 462 753.900390625 504 c 128,-1,62
 730.799804688 546 730.799804688 546 651 546 c 0,53,54
EndSplineSet
EndChar

StartChar: colon
Encoding: 58 58 23
Width: 354
VWidth: 4300
GlyphClass: 2
Flags: W
LayerCount: 2
Fore
SplineSet
84 84 m 1,0,-1
 168 210 l 1,1,-1
 273 126 l 1,2,-1
 189 0 l 1,3,-1
 84 84 l 1,0,-1
84 504 m 1,4,-1
 168 630 l 1,5,-1
 273 546 l 1,6,-1
 189 420 l 1,7,-1
 84 504 l 1,4,-1
84 294 m 1,8,-1
 168 420 l 1,9,-1
 273 336 l 1,10,-1
 189 210 l 1,11,-1
 84 294 l 1,8,-1
EndSplineSet
EndChar

StartChar: semicolon
Encoding: 59 59 24
Width: 354
VWidth: 4300
GlyphClass: 2
Flags: W
LayerCount: 2
Fore
SplineSet
84 294 m 1,0,-1
 168 420 l 1,1,-1
 273 336 l 1,2,-1
 189 210 l 1,3,-1
 84 294 l 1,0,-1
84 504 m 1,4,-1
 168 630 l 1,5,-1
 273 546 l 1,6,-1
 189 420 l 1,7,-1
 84 504 l 1,4,-1
EndSplineSet
EndChar

StartChar: question
Encoding: 63 63 25
Width: 1232
VWidth: 4300
GlyphClass: 2
Flags: W
LayerCount: 2
Fore
SplineSet
373.799804688 1260 m 1,0,-1
 457.799804688 1260 l 1,1,-1
 478.799804688 1239 l 1,2,-1
 478.799804688 1125.59960938 l 1,3,4
 512.400390625 1146.59960938 512.400390625 1146.59960938 554.400390625 1161.29980469 c 128,-1,5
 596.400390625 1176 596.400390625 1176 646.799804688 1176 c 0,6,7
 730.799804688 1176 730.799804688 1176 802.200195312 1137.15039062 c 128,-1,8
 873.599609375 1098.29980469 873.599609375 1098.29980469 917.700195312 1032.15039062 c 128,-1,9
 961.799804688 966 961.799804688 966 961.799804688 882 c 0,10,11
 961.799804688 758.099609375 961.799804688 758.099609375 913.5 689.849609375 c 128,-1,12
 865.200195312 621.599609375 865.200195312 621.599609375 806.400390625 590.099609375 c 1,13,14
 875.700195312 552.299804688 875.700195312 552.299804688 918.75 486.150390625 c 128,-1,15
 961.799804688 420 961.799804688 420 961.799804688 336 c 0,16,17
 961.799804688 235.200195312 961.799804688 235.200195312 930.299804688 171.150390625 c 128,-1,18
 898.799804688 107.099609375 898.799804688 107.099609375 851.549804688 72.4501953125 c 128,-1,19
 804.299804688 37.7998046875 804.299804688 37.7998046875 757.049804688 22.0498046875 c 128,-1,20
 709.799804688 6.2998046875 709.799804688 6.2998046875 678.299804688 2.099609375 c 2,21,-1
 646.799804688 0 l 1,22,-1
 646.799804688 21 l 1,23,24
 674.099609375 29.400390625 l 0,25,26
 703.5 37.7998046875 703.5 37.7998046875 741.299804688 66.150390625 c 128,-1,27
 779.099609375 94.5 779.099609375 94.5 807.450195312 153.299804688 c 128,-1,28
 835.799804688 212.099609375 835.799804688 212.099609375 835.799804688 315 c 0,29,30
 835.799804688 394.799804688 835.799804688 394.799804688 783.299804688 459.900390625 c 128,-1,31
 730.799804688 525 730.799804688 525 604.799804688 525 c 0,32,33
 564.900390625 525 564.900390625 525 533.400390625 520.799804688 c 128,-1,34
 501.900390625 516.599609375 501.900390625 516.599609375 478.799804688 510.299804688 c 1,35,-1
 478.799804688 210 l 1,36,-1
 478.799804688 105 l 1,37,-1
 499.799804688 105 l 2,38,39
 531.299804688 105 531.299804688 105 548.099609375 115.5 c 2,40,-1
 562.799804688 126 l 1,41,-1
 604.799804688 126 l 1,42,-1
 520.799804688 0 l 1,43,-1
 478.799804688 0 l 1,44,-1
 352.799804688 0 l 1,45,-1
 352.799804688 210 l 1,46,-1
 352.799804688 840 l 1,47,-1
 352.799804688 1155 l 1,48,49
 321.299804688 1155 321.299804688 1155 296.099609375 1134 c 2,50,-1
 268.799804688 1113 l 1,51,-1
 247.799804688 1134 l 1,52,-1
 373.799804688 1260 l 1,0,-1
604.799804688 1071 m 0,53,54
 564.900390625 1071 564.900390625 1071 533.400390625 1066.79980469 c 128,-1,55
 501.900390625 1062.59960938 501.900390625 1062.59960938 478.799804688 1056.29980469 c 1,56,-1
 478.799804688 840 l 1,57,-1
 478.799804688 579.599609375 l 1,58,59
 512.400390625 600.599609375 512.400390625 600.599609375 554.400390625 615.299804688 c 128,-1,60
 596.400390625 630 596.400390625 630 646.799804688 630 c 0,61,62
 697.200195312 630 697.200195312 630 745.5 615.299804688 c 1,63,64
 779.099609375 644.700195312 779.099609375 644.700195312 807.450195312 703.5 c 128,-1,65
 835.799804688 762.299804688 835.799804688 762.299804688 835.799804688 861 c 0,66,67
 835.799804688 940.799804688 835.799804688 940.799804688 783.299804688 1005.90039062 c 128,-1,68
 730.799804688 1071 730.799804688 1071 604.799804688 1071 c 0,53,54
EndSplineSet
EndChar

StartChar: A
Encoding: 65 65 26
Width: 354
VWidth: 4300
GlyphClass: 2
Flags: W
LayerCount: 2
Fore
SplineSet
168 945 m 1,0,-1
 252 1071 l 1,1,-1
 357 987 l 1,2,-1
 273 861 l 1,3,-1
 168 945 l 1,0,-1
-84 945 m 1,4,-1
 0 1071 l 1,5,-1
 105 987 l 1,6,-1
 21 861 l 1,7,-1
 -84 945 l 1,4,-1
42 1071 m 1,8,-1
 126 1197 l 1,9,-1
 231 1113 l 1,10,-1
 147 987 l 1,11,-1
 42 1071 l 1,8,-1
84 630 m 1,12,-1
 189 630 l 1,13,-1
 210 609 l 1,14,-1
 210 483 l 1,15,-1
 210 210 l 1,16,-1
 210 0 l 1,17,-1
 63 0 l 2,18,19
 31.5 0 31.5 0 14.7001953125 -10.5 c 2,20,-1
 0 -21 l 1,21,-1
 -42 -21 l 1,22,-1
 42 105 l 1,23,-1
 84 105 l 1,24,-1
 84 210 l 1,25,-1
 84 483 l 1,26,-1
 84 525 l 1,27,-1
 42 525 l 1,28,-1
 21 546 l 1,29,-1
 84 630 l 1,12,-1
EndSplineSet
EndChar

StartChar: B
Encoding: 66 66 27
Width: 1194
VWidth: 4300
GlyphClass: 2
Flags: W
LayerCount: 2
Fore
SplineSet
84 630 m 1,0,-1
 189 630 l 1,1,-1
 210 609 l 1,2,-1
 210 579.599609375 l 1,3,4
 243.599609375 600.599609375 243.599609375 600.599609375 285.599609375 615.299804688 c 128,-1,5
 327.599609375 630 327.599609375 630 378 630 c 0,6,7
 501.900390625 630 501.900390625 630 592.200195312 552.299804688 c 1,8,9
 627.900390625 579.599609375 627.900390625 579.599609375 680.400390625 604.799804688 c 128,-1,10
 732.900390625 630 732.900390625 630 798 630 c 0,11,12
 882 630 882 630 953.400390625 591.150390625 c 128,-1,13
 1024.79980469 552.299804688 1024.79980469 552.299804688 1068.90039062 486.150390625 c 128,-1,14
 1113 420 1113 420 1113 336 c 0,15,16
 1113 254.099609375 1113 254.099609375 1090.95019531 198.450195312 c 128,-1,17
 1068.90039062 142.799804688 1068.90039062 142.799804688 1035.29980469 105 c 1,18,-1
 1050 105 l 2,19,20
 1081.5 105 1081.5 105 1096.20019531 115.5 c 2,21,-1
 1113 126 l 1,22,-1
 1155 126 l 1,23,-1
 1071 0 l 1,24,-1
 210 0 l 1,25,-1
 210 -210 l 1,26,-1
 210 -525 l 1,27,-1
 231 -525 l 1,28,-1
 252 -546 l 1,29,-1
 189 -630 l 1,30,-1
 105 -630 l 1,31,-1
 84 -609 l 1,32,-1
 84 -210 l 1,33,-1
 84 483 l 1,34,-1
 84 525 l 1,35,-1
 42 525 l 1,36,-1
 21 546 l 1,37,-1
 84 630 l 1,0,-1
336 525 m 0,38,39
 296.099609375 525 296.099609375 525 264.599609375 520.799804688 c 128,-1,40
 233.099609375 516.599609375 233.099609375 516.599609375 210 510.299804688 c 1,41,-1
 210 483 l 1,42,-1
 210 105 l 1,43,-1
 510.299804688 105 l 1,44,45
 533.400390625 138.599609375 533.400390625 138.599609375 550.200195312 189 c 128,-1,46
 567 239.400390625 567 239.400390625 567 315 c 0,47,48
 567 394.799804688 567 394.799804688 514.5 459.900390625 c 128,-1,49
 462 525 462 525 336 525 c 0,38,39
756 525 m 0,50,51
 716.099609375 525 716.099609375 525 685.650390625 520.799804688 c 128,-1,52
 655.200195312 516.599609375 655.200195312 516.599609375 632.099609375 510.299804688 c 1,53,54
 661.5 474.599609375 661.5 474.599609375 677.25 430.5 c 128,-1,55
 693 386.400390625 693 386.400390625 693 336 c 0,56,57
 693 254.099609375 693 254.099609375 670.950195312 198.450195312 c 128,-1,58
 648.900390625 142.799804688 648.900390625 142.799804688 615.299804688 105 c 1,59,-1
 930.299804688 105 l 1,60,61
 953.400390625 138.599609375 953.400390625 138.599609375 970.200195312 189 c 128,-1,62
 987 239.400390625 987 239.400390625 987 315 c 0,63,64
 987 394.799804688 987 394.799804688 934.5 459.900390625 c 128,-1,65
 882 525 882 525 756 525 c 0,50,51
EndSplineSet
EndChar

StartChar: C
Encoding: 67 67 28
Width: 690
VWidth: 4300
GlyphClass: 2
Flags: W
LayerCount: 2
Fore
SplineSet
126 630 m 1,0,-1
 399 630 l 1,1,-1
 646.799804688 630 l 1,2,-1
 651 630 l 1,3,-1
 756 630 l 1,4,-1
 777 609 l 1,5,-1
 714 525 l 1,6,-1
 693 525 l 1,7,-1
 693 420 l 1,8,-1
 693 -210 l 1,9,-1
 693 -525 l 1,10,-1
 714 -525 l 1,11,-1
 735 -546 l 1,12,-1
 672 -630 l 1,13,-1
 588 -630 l 1,14,-1
 567 -609 l 1,15,-1
 567 -210 l 1,16,-1
 567 50.400390625 l 1,17,18
 533.400390625 29.400390625 533.400390625 29.400390625 491.400390625 14.7001953125 c 128,-1,19
 449.400390625 0 449.400390625 0 399 0 c 0,20,21
 315 0 315 0 243.599609375 38.849609375 c 128,-1,22
 172.200195312 77.7001953125 172.200195312 77.7001953125 128.099609375 143.849609375 c 128,-1,23
 84 210 84 210 84 294 c 0,24,25
 84 375.900390625 84 375.900390625 106.049804688 431.549804688 c 128,-1,26
 128.099609375 487.200195312 128.099609375 487.200195312 161.700195312 525 c 1,27,-1
 147 525 l 2,28,29
 115.5 525 115.5 525 98.7001953125 514.5 c 2,30,-1
 84 504 l 1,31,-1
 42 504 l 1,32,-1
 126 630 l 1,0,-1
266.700195312 525 m 1,33,34
 243.599609375 491.400390625 243.599609375 491.400390625 226.799804688 441 c 128,-1,35
 210 390.599609375 210 390.599609375 210 315 c 0,36,37
 210 237.299804688 210 237.299804688 262.5 171.150390625 c 128,-1,38
 315 105 315 105 441 105 c 0,39,40
 480.900390625 105 480.900390625 105 512.400390625 109.200195312 c 128,-1,41
 543.900390625 113.400390625 543.900390625 113.400390625 567 119.700195312 c 1,42,-1
 567 420 l 1,43,-1
 567 525 l 1,44,-1
 266.700195312 525 l 1,33,34
EndSplineSet
EndChar

StartChar: D
Encoding: 68 68 29
Width: 1194
VWidth: 4300
GlyphClass: 2
Flags: W
LayerCount: 2
Fore
SplineSet
84 630 m 1,0,-1
 189 630 l 1,1,-1
 210 609 l 1,2,-1
 210 579.599609375 l 1,3,4
 243.599609375 600.599609375 243.599609375 600.599609375 285.599609375 615.299804688 c 128,-1,5
 327.599609375 630 327.599609375 630 378 630 c 0,6,7
 501.900390625 630 501.900390625 630 592.200195312 552.299804688 c 1,8,9
 627.900390625 579.599609375 627.900390625 579.599609375 680.400390625 604.799804688 c 128,-1,10
 732.900390625 630 732.900390625 630 798 630 c 0,11,12
 882 630 882 630 953.400390625 591.150390625 c 128,-1,13
 1024.79980469 552.299804688 1024.79980469 552.299804688 1068.90039062 486.150390625 c 128,-1,14
 1113 420 1113 420 1113 336 c 0,15,16
 1113 235.200195312 1113 235.200195312 1081.5 171.150390625 c 128,-1,17
 1050 107.099609375 1050 107.099609375 1002.75 72.4501953125 c 128,-1,18
 955.5 37.7998046875 955.5 37.7998046875 908.25 22.0498046875 c 128,-1,19
 861 6.2998046875 861 6.2998046875 829.5 2.099609375 c 2,20,-1
 798 0 l 1,21,-1
 798 21 l 1,22,23
 827.400390625 29.400390625 l 0,24,25
 856.799804688 37.7998046875 856.799804688 37.7998046875 893.549804688 66.150390625 c 128,-1,26
 930.299804688 94.5 930.299804688 94.5 958.650390625 153.299804688 c 128,-1,27
 987 212.099609375 987 212.099609375 987 315 c 0,28,29
 987 394.799804688 987 394.799804688 934.5 459.900390625 c 128,-1,30
 882 525 882 525 756 525 c 0,31,32
 716.099609375 525 716.099609375 525 685.650390625 520.799804688 c 128,-1,33
 655.200195312 516.599609375 655.200195312 516.599609375 632.099609375 510.299804688 c 1,34,35
 661.5 474.599609375 661.5 474.599609375 677.25 430.5 c 128,-1,36
 693 386.400390625 693 386.400390625 693 336 c 0,37,38
 693 235.200195312 693 235.200195312 661.5 171.150390625 c 128,-1,39
 630 107.099609375 630 107.099609375 582.75 72.4501953125 c 128,-1,40
 535.5 37.7998046875 535.5 37.7998046875 488.25 22.0498046875 c 128,-1,41
 441 6.2998046875 441 6.2998046875 409.5 2.099609375 c 2,42,-1
 378 0 l 1,43,-1
 378 21 l 1,44,-1
 405.299804688 29.400390625 l 2,45,46
 434.700195312 37.7998046875 434.700195312 37.7998046875 472.5 66.150390625 c 128,-1,47
 510.299804688 94.5 510.299804688 94.5 538.650390625 153.299804688 c 128,-1,48
 567 212.099609375 567 212.099609375 567 315 c 0,49,50
 567 394.799804688 567 394.799804688 514.5 459.900390625 c 128,-1,51
 462 525 462 525 336 525 c 0,52,53
 296.099609375 525 296.099609375 525 264.599609375 520.799804688 c 128,-1,54
 233.099609375 516.599609375 233.099609375 516.599609375 210 510.299804688 c 1,55,-1
 210 483 l 1,56,-1
 210 -210 l 1,57,-1
 210 -525 l 1,58,-1
 231 -525 l 1,59,-1
 252 -546 l 1,60,-1
 189 -630 l 1,61,-1
 105 -630 l 1,62,-1
 84 -609 l 1,63,-1
 84 -210 l 1,64,-1
 84 483 l 1,65,-1
 84 525 l 1,66,-1
 42 525 l 1,67,-1
 21 546 l 1,68,-1
 84 630 l 1,0,-1
EndSplineSet
EndChar

StartChar: E
Encoding: 69 69 30
Width: 354
VWidth: 4300
GlyphClass: 2
Flags: W
LayerCount: 2
Fore
SplineSet
84 861 m 1,0,-1
 42 882 l 1,1,-1
 231 1197 l 1,2,-1
 336 1155 l 1,3,-1
 315 1113 l 1,4,-1
 84 861 l 1,0,-1
84 630 m 1,5,-1
 189 630 l 1,6,-1
 210 609 l 1,7,-1
 210 483 l 1,8,-1
 210 210 l 1,9,-1
 210 0 l 1,10,-1
 63 0 l 2,11,12
 31.5 0 31.5 0 14.7001953125 -10.5 c 2,13,-1
 0 -21 l 1,14,-1
 -42 -21 l 1,15,-1
 42 105 l 1,16,-1
 84 105 l 1,17,-1
 84 210 l 1,18,-1
 84 483 l 1,19,-1
 84 525 l 1,20,-1
 42 525 l 1,21,-1
 21 546 l 1,22,-1
 84 630 l 1,5,-1
EndSplineSet
EndChar

StartChar: F
Encoding: 70 70 31
Width: 774
VWidth: 4300
GlyphClass: 2
Flags: W
LayerCount: 2
Fore
SplineSet
105 1260 m 1,0,-1
 189 1260 l 1,1,-1
 210 1239 l 1,2,-1
 210 840 l 1,3,-1
 210 579.599609375 l 1,4,5
 243.599609375 600.599609375 243.599609375 600.599609375 285.599609375 615.299804688 c 128,-1,6
 327.599609375 630 327.599609375 630 378 630 c 0,7,8
 462 630 462 630 533.400390625 591.150390625 c 128,-1,9
 604.799804688 552.299804688 604.799804688 552.299804688 648.900390625 486.150390625 c 128,-1,10
 693 420 693 420 693 336 c 0,11,12
 693 254.099609375 693 254.099609375 670.950195312 198.450195312 c 128,-1,13
 648.900390625 142.799804688 648.900390625 142.799804688 615.299804688 105 c 1,14,-1
 630 105 l 2,15,16
 661.5 105 661.5 105 676.200195312 115.5 c 2,17,-1
 693 126 l 1,18,-1
 735 126 l 1,19,-1
 651 0 l 1,20,-1
 378 0 l 1,21,-1
 210 0 l 1,22,-1
 63 0 l 2,23,24
 31.5 0 31.5 0 14.7001953125 -10.5 c 2,25,-1
 0 -21 l 1,26,-1
 -42 -21 l 1,27,-1
 42 105 l 1,28,-1
 84 105 l 1,29,-1
 84 210 l 1,30,-1
 84 840 l 1,31,-1
 84 1155 l 1,32,33
 52.5 1155 52.5 1155 27.2998046875 1134 c 2,34,-1
 0 1113 l 1,35,-1
 -21 1134 l 1,36,-1
 105 1260 l 1,0,-1
336 525 m 0,37,38
 296.099609375 525 296.099609375 525 264.599609375 520.799804688 c 128,-1,39
 233.099609375 516.599609375 233.099609375 516.599609375 210 510.299804688 c 1,40,-1
 210 210 l 1,41,-1
 210 105 l 1,42,-1
 510.299804688 105 l 1,43,44
 533.400390625 138.599609375 533.400390625 138.599609375 550.200195312 189 c 128,-1,45
 567 239.400390625 567 239.400390625 567 315 c 0,46,47
 567 394.799804688 567 394.799804688 514.5 459.900390625 c 128,-1,48
 462 525 462 525 336 525 c 0,37,38
EndSplineSet
EndChar

StartChar: G
Encoding: 71 71 32
Width: 1194
VWidth: 4300
GlyphClass: 2
Flags: W
LayerCount: 2
Fore
SplineSet
126 630 m 1,0,-1
 399 630 l 1,1,-1
 819 630 l 1,2,-1
 1066.79980469 630 l 1,3,-1
 1071 630 l 1,4,-1
 1176 630 l 1,5,-1
 1197 609 l 1,6,-1
 1134 525 l 1,7,-1
 1113 525 l 1,8,-1
 1113 420 l 1,9,-1
 1113 -210 l 1,10,-1
 1113 -525 l 1,11,-1
 1134 -525 l 1,12,-1
 1155 -546 l 1,13,-1
 1092 -630 l 1,14,-1
 1008 -630 l 1,15,-1
 987 -609 l 1,16,-1
 987 -210 l 1,17,-1
 987 50.400390625 l 1,18,19
 953.400390625 29.400390625 953.400390625 29.400390625 911.400390625 14.7001953125 c 128,-1,20
 869.400390625 0 869.400390625 0 819 0 c 0,21,22
 695.099609375 0 695.099609375 0 604.799804688 77.7001953125 c 1,23,24
 569.099609375 50.400390625 569.099609375 50.400390625 516.599609375 25.2001953125 c 128,-1,25
 464.099609375 0 464.099609375 0 399 0 c 0,26,27
 315 0 315 0 243.599609375 38.849609375 c 128,-1,28
 172.200195312 77.7001953125 172.200195312 77.7001953125 128.099609375 143.849609375 c 128,-1,29
 84 210 84 210 84 294 c 0,30,31
 84 375.900390625 84 375.900390625 106.049804688 431.549804688 c 128,-1,32
 128.099609375 487.200195312 128.099609375 487.200195312 161.700195312 525 c 1,33,-1
 147 525 l 2,34,35
 115.5 525 115.5 525 98.7001953125 514.5 c 2,36,-1
 84 504 l 1,37,-1
 42 504 l 1,38,-1
 126 630 l 1,0,-1
266.700195312 525 m 1,39,40
 243.599609375 491.400390625 243.599609375 491.400390625 226.799804688 441 c 128,-1,41
 210 390.599609375 210 390.599609375 210 315 c 0,42,43
 210 237.299804688 210 237.299804688 262.5 171.150390625 c 128,-1,44
 315 105 315 105 441 105 c 0,45,46
 480.900390625 105 480.900390625 105 511.349609375 109.200195312 c 128,-1,47
 541.799804688 113.400390625 541.799804688 113.400390625 564.900390625 119.700195312 c 1,48,49
 535.5 155.400390625 535.5 155.400390625 519.75 199.5 c 128,-1,50
 504 243.599609375 504 243.599609375 504 294 c 0,51,52
 504 375.900390625 504 375.900390625 526.049804688 431.549804688 c 128,-1,53
 548.099609375 487.200195312 548.099609375 487.200195312 581.700195312 525 c 1,54,-1
 266.700195312 525 l 1,39,40
686.700195312 525 m 1,55,56
 663.599609375 491.400390625 663.599609375 491.400390625 646.799804688 441 c 128,-1,57
 630 390.599609375 630 390.599609375 630 315 c 0,58,59
 630 237.299804688 630 237.299804688 682.5 171.150390625 c 128,-1,60
 735 105 735 105 861 105 c 0,61,62
 900.900390625 105 900.900390625 105 932.400390625 109.200195312 c 128,-1,63
 963.900390625 113.400390625 963.900390625 113.400390625 987 119.700195312 c 1,64,-1
 987 420 l 1,65,-1
 987 525 l 1,66,-1
 686.700195312 525 l 1,55,56
EndSplineSet
EndChar

StartChar: H
Encoding: 72 72 33
Width: 774
VWidth: 4300
GlyphClass: 2
Flags: W
HStem: -21 21G<-42 14.7002> 0 105<42 84 651 693> 1113 21G<-62 -17.9998> 1113 21G<-62 -17.9998> 1240 20G<43 146>
LayerCount: 2
Fore
SplineSet
63 1260 m 1,0,-1
 126 1260 l 1,1,-1
 147 1239 l 1,2,-1
 651 105 l 1,3,-1
 672 105 l 2,4,5
 703.5 105 703.5 105 720.299804688 115.5 c 2,6,-1
 735 126 l 1,7,-1
 777 126 l 1,8,-1
 693 0 l 1,9,-1
 651 0 l 1,10,-1
 546 0 l 1,11,-1
 327.599609375 501.900390625 l 1,12,-1
 126 0 l 1,13,-1
 63 0 l 2,14,15
 31.5 0 31.5 0 14.7001953125 -10.5 c 2,16,-1
 0 -21 l 1,17,-1
 -42 -21 l 1,18,-1
 42 105 l 1,19,-1
 84 105 l 1,20,-1
 283.5 602.700195312 l 1,21,-1
 42 1155 l 1,22,23
 10.5 1155 10.5 1155 -16.7998046875 1134 c 2,24,-1
 -42 1113 l 1,25,-1
 -63 1134 l 1,26,-1
 63 1260 l 1,0,-1
EndSplineSet
EndChar

StartChar: I
Encoding: 73 73 34
Width: 354
VWidth: 4300
GlyphClass: 2
Flags: W
HStem: -21 21G<-42 14.7002> 0 105<42 84> 630 421G<69 209> 861 21G<122 160.333> 1051 20G<112.667 151>
VStem: 84 126<105 525>
LayerCount: 2
Fore
SplineSet
42 945 m 1,0,-1
 126 1071 l 1,1,-1
 231 987 l 1,2,-1
 147 861 l 1,3,-1
 42 945 l 1,0,-1
84 630 m 1,4,-1
 189 630 l 1,5,-1
 210 609 l 1,6,-1
 210 483 l 1,7,-1
 210 210 l 1,8,-1
 210 0 l 1,9,-1
 63 0 l 2,10,11
 31.5 0 31.5 0 14.7001953125 -10.5 c 2,12,-1
 0 -21 l 1,13,-1
 -42 -21 l 1,14,-1
 42 105 l 1,15,-1
 84 105 l 1,16,-1
 84 210 l 1,17,-1
 84 483 l 1,18,-1
 84 525 l 1,19,-1
 42 525 l 1,20,-1
 21 546 l 1,21,-1
 84 630 l 1,4,-1
EndSplineSet
EndChar

StartChar: J
Encoding: 74 74 35
Width: 1194
VWidth: 4300
GlyphClass: 2
Flags: W
LayerCount: 2
Fore
SplineSet
399 630 m 5,0,-1
 399 609 l 5,1,2
 371.700195312 600.599609375 l 4,3,4
 342.299804688 592.200195312 342.299804688 592.200195312 304.5 563.849609375 c 132,-1,5
 266.700195312 535.5 266.700195312 535.5 238.349609375 476.700195312 c 132,-1,6
 210 417.900390625 210 417.900390625 210 315 c 4,7,8
 210 237.299804688 210 237.299804688 262.5 171.150390625 c 132,-1,9
 315 105 315 105 441 105 c 4,10,11
 480.900390625 105 480.900390625 105 511.349609375 109.200195312 c 132,-1,12
 541.799804688 113.400390625 541.799804688 113.400390625 564.900390625 119.700195312 c 5,13,14
 535.5 155.400390625 535.5 155.400390625 519.75 199.5 c 132,-1,15
 504 243.599609375 504 243.599609375 504 294 c 4,16,17
 504 394.799804688 504 394.799804688 535.5 458.849609375 c 132,-1,18
 567 522.900390625 567 522.900390625 614.25 557.549804688 c 132,-1,19
 661.5 592.200195312 661.5 592.200195312 708.75 607.950195312 c 132,-1,20
 756 623.700195312 756 623.700195312 787.5 625.799804688 c 6,21,-1
 819 630 l 5,22,-1
 819 609 l 5,23,-1
 789.599609375 600.599609375 l 6,24,25
 760.200195312 592.200195312 760.200195312 592.200195312 723.450195312 563.849609375 c 132,-1,26
 686.700195312 535.5 686.700195312 535.5 658.349609375 476.700195312 c 132,-1,27
 630 417.900390625 630 417.900390625 630 315 c 4,28,29
 630 237.299804688 630 237.299804688 682.5 171.150390625 c 132,-1,30
 735 105 735 105 861 105 c 4,31,32
 900.900390625 105 900.900390625 105 932.400390625 109.200195312 c 132,-1,33
 963.900390625 113.400390625 963.900390625 113.400390625 987 119.700195312 c 5,34,-1
 987 420 l 5,35,-1
 987 525 l 5,36,-1
 1066.79980469 630 l 5,37,-1
 1176 630 l 5,38,-1
 1197 609 l 5,39,-1
 1134 525 l 5,40,-1
 1113 525 l 5,41,-1
 1113 420 l 5,42,-1
 1113 -210 l 1,43,-1
 1113 -525 l 1,44,-1
 1134 -525 l 1,45,-1
 1155 -546 l 1,46,-1
 1092 -630 l 1,47,-1
 1008 -630 l 1,48,-1
 987 -609 l 1,49,-1
 987 -210 l 1,50,-1
 987 50.400390625 l 5,51,52
 953.400390625 29.400390625 953.400390625 29.400390625 911.400390625 14.7001953125 c 132,-1,53
 869.400390625 0 869.400390625 0 819 0 c 4,54,55
 695.099609375 0 695.099609375 0 604.799804688 77.7001953125 c 5,56,57
 569.099609375 50.400390625 569.099609375 50.400390625 516.599609375 25.2001953125 c 132,-1,58
 464.099609375 0 464.099609375 0 399 0 c 4,59,60
 315 0 315 0 243.599609375 38.849609375 c 132,-1,61
 172.200195312 77.7001953125 172.200195312 77.7001953125 128.099609375 143.849609375 c 132,-1,62
 84 210 84 210 84 294 c 4,63,64
 84 394.799804688 84 394.799804688 115.5 458.849609375 c 132,-1,65
 147 522.900390625 147 522.900390625 194.25 557.549804688 c 132,-1,66
 241.5 592.200195312 241.5 592.200195312 288.75 607.950195312 c 132,-1,67
 336 623.700195312 336 623.700195312 350.700195312 625.799804688 c 6,68,-1
 399 630 l 5,0,-1
EndSplineSet
EndChar

StartChar: K
Encoding: 75 75 36
Width: 816
VWidth: 4300
GlyphClass: 2
Flags: W
LayerCount: 2
Fore
SplineSet
126 630 m 1,0,-1
 399 630 l 1,1,-1
 646.799804688 630 l 1,2,-1
 651 630 l 1,3,-1
 756 630 l 1,4,-1
 777 609 l 1,5,-1
 714 525 l 1,6,-1
 693 525 l 1,7,-1
 693 420 l 1,8,-1
 693 -210 l 1,9,-1
 693 -525 l 1,10,-1
 714 -525 l 1,11,-1
 735 -546 l 1,12,-1
 672 -630 l 1,13,-1
 588 -630 l 1,14,-1
 567 -609 l 1,15,-1
 567 -210 l 1,16,-1
 567 50.400390625 l 1,17,18
 533.400390625 29.400390625 533.400390625 29.400390625 491.400390625 14.7001953125 c 128,-1,19
 449.400390625 0 449.400390625 0 399 0 c 0,20,21
 315 0 315 0 243.599609375 38.849609375 c 128,-1,22
 172.200195312 77.7001953125 172.200195312 77.7001953125 128.099609375 143.849609375 c 128,-1,23
 84 210 84 210 84 294 c 0,24,25
 84 375.900390625 84 375.900390625 106.049804688 431.549804688 c 128,-1,26
 128.099609375 487.200195312 128.099609375 487.200195312 161.700195312 525 c 1,27,-1
 147 525 l 2,28,29
 115.5 525 115.5 525 98.7001953125 514.5 c 2,30,-1
 84 504 l 1,31,-1
 42 504 l 1,32,-1
 126 630 l 1,0,-1
266.700195312 525 m 1,33,34
 243.599609375 491.400390625 243.599609375 491.400390625 226.799804688 441 c 128,-1,35
 210 390.599609375 210 390.599609375 210 315 c 0,36,37
 210 237.299804688 210 237.299804688 262.5 171.150390625 c 128,-1,38
 315 105 315 105 441 105 c 0,39,40
 480.900390625 105 480.900390625 105 512.400390625 109.200195312 c 128,-1,41
 543.900390625 113.400390625 543.900390625 113.400390625 567 119.700195312 c 1,42,-1
 567 420 l 1,43,-1
 567 525 l 1,44,-1
 266.700195312 525 l 1,33,34
EndSplineSet
EndChar

StartChar: L
Encoding: 76 76 37
Width: 979
VWidth: 5159
GlyphClass: 2
Flags: W
HStem: -176.4 126<423.76 753.189> 630 126<151.2 226.8 316.594 882> 761.2 20G<902.16 982.8>
VStem: 100.8 151.2<127.069 517.221>
LayerCount: 2
Fore
SplineSet
932.400390625 781.200195312 m 1,0,-1
 982.799804688 781.200195312 l 1,1,-1
 882 630 l 1,2,-1
 478.799804688 630 l 1,3,-1
 345.240234375 630 l 1,4,5
 309.959960938 584.640625 309.959960938 584.640625 280.98046875 510.299804688 c 128,-1,6
 252 435.959960938 252 435.959960938 252 327.599609375 c 0,7,8
 252 158.759765625 252 158.759765625 346.5 54.1806640625 c 128,-1,9
 441 -50.400390625 441 -50.400390625 630 -50.400390625 c 0,10,11
 730.799804688 -50.400390625 730.799804688 -50.400390625 784.98046875 -31.5 c 128,-1,12
 839.16015625 -12.599609375 839.16015625 -12.599609375 861.83984375 5.0400390625 c 2,13,-1
 882 25.2001953125 l 1,14,-1
 907.200195312 0 l 1,15,16
 884.51953125 -27.7197265625 l 0,17,18
 861.83984375 -52.919921875 861.83984375 -52.919921875 819 -88.2001953125 c 128,-1,19
 776.16015625 -123.48046875 776.16015625 -123.48046875 715.680664062 -149.940429688 c 128,-1,20
 655.200195312 -176.400390625 655.200195312 -176.400390625 579.599609375 -176.400390625 c 0,21,22
 453.599609375 -176.400390625 453.599609375 -176.400390625 343.98046875 -124.740234375 c 128,-1,23
 234.359375 -73.080078125 234.359375 -73.080078125 167.580078125 32.759765625 c 128,-1,24
 100.799804688 138.599609375 100.799804688 138.599609375 100.799804688 302.400390625 c 0,25,26
 100.799804688 420.83984375 100.799804688 420.83984375 137.33984375 500.219726562 c 128,-1,27
 173.880859375 579.599609375 173.880859375 579.599609375 226.799804688 630 c 1,28,-1
 176.400390625 630 l 2,29,30
 138.599609375 630 138.599609375 630 118.440429688 617.400390625 c 2,31,-1
 100.799804688 604.799804688 l 1,32,-1
 50.400390625 604.799804688 l 1,33,-1
 151.200195312 756 l 1,34,-1
 194.040039062 756 l 1,35,-1
 478.799804688 756 l 1,36,-1
 544.319335938 756 l 2,37,38
 607.319335938 756 607.319335938 756 695.51953125 756 c 128,-1,39
 783.719726562 756 783.719726562 756 856.799804688 756 c 0,40,41
 894.599609375 756 894.599609375 756 902.16015625 763.559570312 c 2,42,-1
 932.400390625 781.200195312 l 1,0,-1
EndSplineSet
EndChar

StartChar: M
Encoding: 77 77 38
Width: 1194
VWidth: 4300
GlyphClass: 2
Flags: W
LayerCount: 2
Fore
SplineSet
84 630 m 1,0,-1
 189 630 l 1,1,-1
 210 609 l 1,2,-1
 210 579.599609375 l 1,3,4
 243.599609375 600.599609375 243.599609375 600.599609375 285.599609375 615.299804688 c 128,-1,5
 327.599609375 630 327.599609375 630 378 630 c 0,6,7
 501.900390625 630 501.900390625 630 592.200195312 552.299804688 c 1,8,9
 627.900390625 579.599609375 627.900390625 579.599609375 680.400390625 604.799804688 c 128,-1,10
 732.900390625 630 732.900390625 630 798 630 c 0,11,12
 882 630 882 630 953.400390625 591.150390625 c 128,-1,13
 1024.79980469 552.299804688 1024.79980469 552.299804688 1068.90039062 486.150390625 c 128,-1,14
 1113 420 1113 420 1113 336 c 0,15,16
 1113 254.099609375 1113 254.099609375 1090.95019531 198.450195312 c 128,-1,17
 1068.90039062 142.799804688 1068.90039062 142.799804688 1035.29980469 105 c 1,18,-1
 1050 105 l 2,19,20
 1081.5 105 1081.5 105 1096.20019531 115.5 c 2,21,-1
 1113 126 l 1,22,-1
 1155 126 l 1,23,-1
 1071 0 l 1,24,-1
 210 0 l 1,25,-1
 63 0 l 2,26,27
 31.5 0 31.5 0 14.7001953125 -10.5 c 2,28,-1
 0 -21 l 1,29,-1
 -42 -21 l 1,30,-1
 42 105 l 1,31,-1
 84 105 l 1,32,-1
 84 210 l 1,33,-1
 84 483 l 1,34,-1
 84 525 l 1,35,-1
 42 525 l 1,36,-1
 21 546 l 1,37,-1
 84 630 l 1,0,-1
336 525 m 0,38,39
 296.099609375 525 296.099609375 525 264.599609375 520.799804688 c 128,-1,40
 233.099609375 516.599609375 233.099609375 516.599609375 210 510.299804688 c 1,41,-1
 210 483 l 1,42,-1
 210 210 l 1,43,-1
 210 105 l 1,44,-1
 510.299804688 105 l 1,45,46
 533.400390625 138.599609375 533.400390625 138.599609375 550.200195312 189 c 128,-1,47
 567 239.400390625 567 239.400390625 567 315 c 0,48,49
 567 394.799804688 567 394.799804688 514.5 459.900390625 c 128,-1,50
 462 525 462 525 336 525 c 0,38,39
756 525 m 0,51,52
 716.099609375 525 716.099609375 525 685.650390625 520.799804688 c 128,-1,53
 655.200195312 516.599609375 655.200195312 516.599609375 632.099609375 510.299804688 c 1,54,55
 661.5 474.599609375 661.5 474.599609375 677.25 430.5 c 128,-1,56
 693 386.400390625 693 386.400390625 693 336 c 0,57,58
 693 254.099609375 693 254.099609375 670.950195312 198.450195312 c 128,-1,59
 648.900390625 142.799804688 648.900390625 142.799804688 615.299804688 105 c 1,60,-1
 930.299804688 105 l 1,61,62
 953.400390625 138.599609375 953.400390625 138.599609375 970.200195312 189 c 128,-1,63
 987 239.400390625 987 239.400390625 987 315 c 0,64,65
 987 394.799804688 987 394.799804688 934.5 459.900390625 c 128,-1,66
 882 525 882 525 756 525 c 0,51,52
EndSplineSet
EndChar

StartChar: N
Encoding: 78 78 39
Width: 1194
VWidth: 4300
GlyphClass: 2
Flags: W
LayerCount: 2
Fore
SplineSet
84 630 m 1,0,-1
 189 630 l 1,1,-1
 210 609 l 1,2,-1
 210 579.599609375 l 1,3,4
 243.599609375 600.599609375 243.599609375 600.599609375 285.599609375 615.299804688 c 128,-1,5
 327.599609375 630 327.599609375 630 378 630 c 0,6,7
 501.900390625 630 501.900390625 630 592.200195312 552.299804688 c 1,8,9
 627.900390625 579.599609375 627.900390625 579.599609375 680.400390625 604.799804688 c 128,-1,10
 732.900390625 630 732.900390625 630 798 630 c 0,11,12
 882 630 882 630 953.400390625 591.150390625 c 128,-1,13
 1024.79980469 552.299804688 1024.79980469 552.299804688 1068.90039062 486.150390625 c 128,-1,14
 1113 420 1113 420 1113 336 c 0,15,16
 1113 235.200195312 1113 235.200195312 1081.5 171.150390625 c 128,-1,17
 1050 107.099609375 1050 107.099609375 1002.75 72.4501953125 c 128,-1,18
 955.5 37.7998046875 955.5 37.7998046875 908.25 22.0498046875 c 128,-1,19
 861 6.2998046875 861 6.2998046875 829.5 2.099609375 c 2,20,-1
 798 0 l 1,21,-1
 798 21 l 1,22,23
 827.400390625 29.400390625 l 0,24,25
 856.799804688 37.7998046875 856.799804688 37.7998046875 893.549804688 66.150390625 c 128,-1,26
 930.299804688 94.5 930.299804688 94.5 958.650390625 153.299804688 c 128,-1,27
 987 212.099609375 987 212.099609375 987 315 c 0,28,29
 987 394.799804688 987 394.799804688 934.5 459.900390625 c 128,-1,30
 882 525 882 525 756 525 c 0,31,32
 716.099609375 525 716.099609375 525 685.650390625 520.799804688 c 128,-1,33
 655.200195312 516.599609375 655.200195312 516.599609375 632.099609375 510.299804688 c 1,34,35
 661.5 474.599609375 661.5 474.599609375 677.25 430.5 c 128,-1,36
 693 386.400390625 693 386.400390625 693 336 c 0,37,38
 693 235.200195312 693 235.200195312 661.5 171.150390625 c 128,-1,39
 630 107.099609375 630 107.099609375 582.75 72.4501953125 c 128,-1,40
 535.5 37.7998046875 535.5 37.7998046875 488.25 22.0498046875 c 128,-1,41
 441 6.2998046875 441 6.2998046875 409.5 2.099609375 c 2,42,-1
 378 0 l 1,43,-1
 378 21 l 1,44,-1
 405.299804688 29.400390625 l 2,45,46
 434.700195312 37.7998046875 434.700195312 37.7998046875 472.5 66.150390625 c 128,-1,47
 510.299804688 94.5 510.299804688 94.5 538.650390625 153.299804688 c 128,-1,48
 567 212.099609375 567 212.099609375 567 315 c 0,49,50
 567 394.799804688 567 394.799804688 514.5 459.900390625 c 128,-1,51
 462 525 462 525 336 525 c 0,52,53
 296.099609375 525 296.099609375 525 264.599609375 520.799804688 c 128,-1,54
 233.099609375 516.599609375 233.099609375 516.599609375 210 510.299804688 c 1,55,-1
 210 483 l 1,56,-1
 210 210 l 1,57,-1
 210 0 l 1,58,-1
 63 0 l 2,59,60
 31.5 0 31.5 0 14.7001953125 -10.5 c 2,61,-1
 0 -21 l 1,62,-1
 -42 -21 l 1,63,-1
 42 105 l 1,64,-1
 84 105 l 1,65,-1
 84 210 l 1,66,-1
 84 483 l 1,67,-1
 84 525 l 1,68,-1
 42 525 l 1,69,-1
 21 546 l 1,70,-1
 84 630 l 1,0,-1
EndSplineSet
EndChar

StartChar: O
Encoding: 79 79 40
Width: 354
VWidth: 4300
GlyphClass: 2
Flags: W
LayerCount: 2
Fore
SplineSet
42 882 m 1,0,1
 56.7001953125 917.700195312 l 0,2,3
 71.400390625 953.400390625 71.400390625 953.400390625 97.650390625 998.549804688 c 128,-1,4
 123.900390625 1043.70019531 123.900390625 1043.70019531 157.5 1078.34960938 c 128,-1,5
 191.099609375 1113 191.099609375 1113 231 1113 c 0,6,7
 283.5 1113 283.5 1113 310.799804688 1081.5 c 128,-1,8
 338.099609375 1050 338.099609375 1050 348.599609375 1018.5 c 2,9,-1
 357 987 l 1,10,-1
 315 966 l 1,11,-1
 310.799804688 976.5 l 2,12,13
 308.700195312 987 308.700195312 987 290.849609375 997.5 c 128,-1,14
 273 1008 273 1008 231 1008 c 0,15,16
 199.5 1008 199.5 1008 172.200195312 985.950195312 c 128,-1,17
 144.900390625 963.900390625 144.900390625 963.900390625 126 934.5 c 128,-1,18
 107.099609375 905.099609375 107.099609375 905.099609375 94.5 884.099609375 c 2,19,-1
 84 861 l 1,20,-1
 42 882 l 1,0,1
84 630 m 1,21,-1
 189 630 l 1,22,-1
 210 609 l 1,23,-1
 210 483 l 1,24,-1
 210 210 l 1,25,-1
 210 0 l 1,26,-1
 63 0 l 2,27,28
 31.5 0 31.5 0 14.7001953125 -10.5 c 2,29,-1
 0 -21 l 1,30,-1
 -42 -21 l 1,31,-1
 42 105 l 1,32,-1
 84 105 l 1,33,-1
 84 210 l 1,34,-1
 84 483 l 1,35,-1
 84 525 l 1,36,-1
 42 525 l 1,37,-1
 21 546 l 1,38,-1
 84 630 l 1,21,-1
EndSplineSet
EndChar

StartChar: P
Encoding: 80 80 41
Width: 774
VWidth: 4300
GlyphClass: 2
Flags: W
LayerCount: 2
Fore
SplineSet
84 630 m 1,0,-1
 189 630 l 1,1,-1
 210 609 l 1,2,-1
 210 579.599609375 l 1,3,4
 243.599609375 600.599609375 243.599609375 600.599609375 285.599609375 615.299804688 c 128,-1,5
 327.599609375 630 327.599609375 630 378 630 c 0,6,7
 462 630 462 630 533.400390625 591.150390625 c 128,-1,8
 604.799804688 552.299804688 604.799804688 552.299804688 648.900390625 486.150390625 c 128,-1,9
 693 420 693 420 693 336 c 0,10,11
 693 254.099609375 693 254.099609375 670.950195312 198.450195312 c 128,-1,12
 648.900390625 142.799804688 648.900390625 142.799804688 615.299804688 105 c 1,13,-1
 630 105 l 2,14,15
 661.5 105 661.5 105 676.200195312 115.5 c 2,16,-1
 693 126 l 1,17,-1
 735 126 l 1,18,-1
 651 0 l 1,19,-1
 378 0 l 1,20,-1
 210 0 l 1,21,-1
 210 -210 l 1,22,-1
 210 -525 l 1,23,-1
 231 -525 l 1,24,-1
 252 -546 l 1,25,-1
 189 -630 l 1,26,-1
 105 -630 l 1,27,-1
 84 -609 l 1,28,-1
 84 -210 l 1,29,-1
 84 483 l 1,30,-1
 84 525 l 1,31,-1
 42 525 l 1,32,-1
 21 546 l 1,33,-1
 84 630 l 1,0,-1
336 525 m 0,34,35
 296.099609375 525 296.099609375 525 264.599609375 520.799804688 c 128,-1,36
 233.099609375 516.599609375 233.099609375 516.599609375 210 510.299804688 c 1,37,-1
 210 483 l 1,38,-1
 210 105 l 1,39,-1
 510.299804688 105 l 1,40,41
 533.400390625 138.599609375 533.400390625 138.599609375 550.200195312 189 c 128,-1,42
 567 239.400390625 567 239.400390625 567 315 c 0,43,44
 567 394.799804688 567 394.799804688 514.5 459.900390625 c 128,-1,45
 462 525 462 525 336 525 c 0,34,35
EndSplineSet
EndChar

StartChar: Q
Encoding: 81 81 42
Width: 816
VWidth: 4300
GlyphClass: 2
Flags: W
LayerCount: 2
Fore
SplineSet
588 1260 m 1,0,-1
 672 1260 l 1,1,-1
 693 1239 l 1,2,-1
 693 840 l 1,3,-1
 693 210 l 1,4,-1
 693 105 l 1,5,-1
 714 105 l 2,6,7
 745.5 105 745.5 105 760.200195312 115.5 c 2,8,-1
 777 126 l 1,9,-1
 819 126 l 1,10,-1
 735 0 l 1,11,-1
 693 0 l 1,12,-1
 567 0 l 1,13,-1
 567 50.400390625 l 1,14,15
 533.400390625 29.400390625 533.400390625 29.400390625 491.400390625 14.7001953125 c 128,-1,16
 449.400390625 0 449.400390625 0 399 0 c 0,17,18
 315 0 315 0 243.599609375 38.849609375 c 128,-1,19
 172.200195312 77.7001953125 172.200195312 77.7001953125 128.099609375 143.849609375 c 128,-1,20
 84 210 84 210 84 294 c 0,21,22
 84 375.900390625 84 375.900390625 106.049804688 431.549804688 c 128,-1,23
 128.099609375 487.200195312 128.099609375 487.200195312 161.700195312 525 c 1,24,-1
 147 525 l 2,25,26
 115.5 525 115.5 525 98.7001953125 514.5 c 2,27,-1
 84 504 l 1,28,-1
 42 504 l 1,29,-1
 126 630 l 1,30,-1
 399 630 l 1,31,-1
 567 630 l 1,32,-1
 567 840 l 1,33,-1
 567 1155 l 1,34,35
 535.5 1155 535.5 1155 508.200195312 1134 c 2,36,-1
 483 1113 l 1,37,-1
 462 1134 l 1,38,-1
 588 1260 l 1,0,-1
266.700195312 525 m 1,39,40
 243.599609375 491.400390625 243.599609375 491.400390625 226.799804688 441 c 128,-1,41
 210 390.599609375 210 390.599609375 210 315 c 0,42,43
 210 237.299804688 210 237.299804688 262.5 171.150390625 c 128,-1,44
 315 105 315 105 441 105 c 0,45,46
 480.900390625 105 480.900390625 105 512.400390625 109.200195312 c 128,-1,47
 543.900390625 113.400390625 543.900390625 113.400390625 567 119.700195312 c 1,48,-1
 567 210 l 1,49,-1
 567 525 l 1,50,-1
 266.700195312 525 l 1,39,40
EndSplineSet
EndChar

StartChar: R
Encoding: 82 82 43
Width: 774
VWidth: 4300
GlyphClass: 2
Flags: W
LayerCount: 2
Fore
SplineSet
84 630 m 1,0,-1
 189 630 l 1,1,-1
 210 609 l 1,2,-1
 210 579.599609375 l 1,3,4
 243.599609375 600.599609375 243.599609375 600.599609375 285.599609375 615.299804688 c 128,-1,5
 327.599609375 630 327.599609375 630 378 630 c 0,6,7
 462 630 462 630 533.400390625 591.150390625 c 128,-1,8
 604.799804688 552.299804688 604.799804688 552.299804688 648.900390625 486.150390625 c 128,-1,9
 693 420 693 420 693 336 c 0,10,11
 693 235.200195312 693 235.200195312 661.5 171.150390625 c 128,-1,12
 630 107.099609375 630 107.099609375 582.75 72.4501953125 c 128,-1,13
 535.5 37.7998046875 535.5 37.7998046875 488.25 22.0498046875 c 128,-1,14
 441 6.2998046875 441 6.2998046875 409.5 2.099609375 c 2,15,-1
 378 0 l 1,16,-1
 378 21 l 1,17,18
 405.299804688 29.400390625 l 0,19,20
 434.700195312 37.7998046875 434.700195312 37.7998046875 472.5 66.150390625 c 128,-1,21
 510.299804688 94.5 510.299804688 94.5 538.650390625 153.299804688 c 128,-1,22
 567 212.099609375 567 212.099609375 567 315 c 0,23,24
 567 394.799804688 567 394.799804688 514.5 459.900390625 c 128,-1,25
 462 525 462 525 336 525 c 0,26,27
 296.099609375 525 296.099609375 525 264.599609375 520.799804688 c 128,-1,28
 233.099609375 516.599609375 233.099609375 516.599609375 210 510.299804688 c 1,29,-1
 210 483 l 1,30,-1
 210 210 l 1,31,-1
 210 0 l 1,32,-1
 63 0 l 2,33,34
 31.5 0 31.5 0 14.7001953125 -10.5 c 2,35,-1
 0 -21 l 1,36,-1
 -42 -21 l 1,37,-1
 42 105 l 1,38,-1
 84 105 l 1,39,-1
 84 210 l 1,40,-1
 84 483 l 1,41,-1
 84 525 l 1,42,-1
 42 525 l 1,43,-1
 21 546 l 1,44,-1
 84 630 l 1,0,-1
EndSplineSet
EndChar

StartChar: S
Encoding: 83 83 44
Width: 774
VWidth: 4300
GlyphClass: 2
Flags: W
LayerCount: 2
Fore
SplineSet
588 966 m 0,0,1
 588 871.5 588 871.5 550.200195312 804.299804688 c 128,-1,2
 512.400390625 737.099609375 512.400390625 737.099609375 455.700195312 684.599609375 c 128,-1,3
 399 632.099609375 399 632.099609375 342.299804688 580.650390625 c 128,-1,4
 285.599609375 529.200195312 285.599609375 529.200195312 247.799804688 466.200195312 c 128,-1,5
 210 403.200195312 210 403.200195312 210 315 c 0,6,7
 210 220.5 210 220.5 262.5 162.75 c 128,-1,8
 315 105 315 105 441 105 c 0,9,10
 535.5 105 535.5 105 572.25 147 c 128,-1,11
 609 189 609 189 609 315 c 0,12,13
 609 367.5 609 367.5 577.5 405.299804688 c 128,-1,14
 546 443.099609375 546 443.099609375 514.5 464.099609375 c 2,15,-1
 483 483 l 1,16,-1
 483 504 l 1,17,-1
 588 567 l 1,18,19
 613.200195312 539.700195312 l 0,20,21
 640.5 512.400390625 640.5 512.400390625 666.75 460.950195312 c 128,-1,22
 693 409.5 693 409.5 693 336 c 0,23,24
 693 273 693 273 665.700195312 213.150390625 c 128,-1,25
 638.400390625 153.299804688 638.400390625 153.299804688 593.25 105 c 128,-1,26
 548.099609375 56.7001953125 548.099609375 56.7001953125 497.700195312 28.349609375 c 128,-1,27
 447.299804688 0 447.299804688 0 399 0 c 0,28,29
 315 0 315 0 243.599609375 29.400390625 c 128,-1,30
 172.200195312 58.7998046875 172.200195312 58.7998046875 128.099609375 123.900390625 c 128,-1,31
 84 189 84 189 84 294 c 0,32,33
 84 375.900390625 84 375.900390625 123.900390625 434.700195312 c 128,-1,34
 163.799804688 493.5 163.799804688 493.5 223.650390625 543.900390625 c 128,-1,35
 283.5 594.299804688 283.5 594.299804688 343.349609375 648.900390625 c 128,-1,36
 403.200195312 703.5 403.200195312 703.5 443.099609375 773.849609375 c 128,-1,37
 483 844.200195312 483 844.200195312 483 945 c 0,38,39
 483 1039.5 483 1039.5 467.25 1089.90039062 c 128,-1,40
 451.5 1140.29980469 451.5 1140.29980469 436.799804688 1159.20019531 c 2,41,-1
 420 1176 l 1,42,-1
 420 1197 l 1,43,-1
 525 1260 l 1,44,-1
 541.799804688 1222.20019531 l 2,45,46
 556.5 1182.29980469 556.5 1182.29980469 572.25 1116.15039062 c 128,-1,47
 588 1050 588 1050 588 966 c 0,0,1
EndSplineSet
EndChar

StartChar: T
Encoding: 84 84 45
Width: 774
VWidth: 4300
GlyphClass: 2
Flags: W
HStem: -630 21G<85 204> 0 21<378 405.3> 525 105<219.287 494.431>
VStem: 84 126<-525 519.436> 567 126<147.099 449.694>
LayerCount: 2
Fore
SplineSet
84 630 m 1,0,-1
 189 630 l 1,1,-1
 210 609 l 1,2,-1
 210 579.599609375 l 1,3,4
 243.599609375 600.599609375 243.599609375 600.599609375 285.599609375 615.299804688 c 128,-1,5
 327.599609375 630 327.599609375 630 378 630 c 0,6,7
 462 630 462 630 533.400390625 591.150390625 c 128,-1,8
 604.799804688 552.299804688 604.799804688 552.299804688 648.900390625 486.150390625 c 128,-1,9
 693 420 693 420 693 336 c 0,10,11
 693 235.200195312 693 235.200195312 661.5 171.150390625 c 128,-1,12
 630 107.099609375 630 107.099609375 582.75 72.4501953125 c 128,-1,13
 535.5 37.7998046875 535.5 37.7998046875 488.25 22.0498046875 c 128,-1,14
 441 6.2998046875 441 6.2998046875 409.5 2.099609375 c 2,15,-1
 378 0 l 1,16,-1
 378 21 l 1,17,18
 405.299804688 29.400390625 l 0,19,20
 434.700195312 37.7998046875 434.700195312 37.7998046875 472.5 66.150390625 c 128,-1,21
 510.299804688 94.5 510.299804688 94.5 538.650390625 153.299804688 c 128,-1,22
 567 212.099609375 567 212.099609375 567 315 c 0,23,24
 567 394.799804688 567 394.799804688 514.5 459.900390625 c 128,-1,25
 462 525 462 525 336 525 c 0,26,27
 296.099609375 525 296.099609375 525 264.599609375 520.799804688 c 128,-1,28
 233.099609375 516.599609375 233.099609375 516.599609375 210 510.299804688 c 1,29,-1
 210 483 l 1,30,-1
 210 -210 l 1,31,-1
 210 -525 l 1,32,-1
 231 -525 l 1,33,-1
 252 -546 l 1,34,-1
 189 -630 l 1,35,-1
 105 -630 l 1,36,-1
 84 -609 l 1,37,-1
 84 -210 l 1,38,-1
 84 483 l 1,39,-1
 84 525 l 1,40,-1
 42 525 l 1,41,-1
 21 546 l 1,42,-1
 84 630 l 1,0,-1
EndSplineSet
EndChar

StartChar: U
Encoding: 85 85 46
Width: 354
VWidth: 4300
GlyphClass: 2
Flags: W
LayerCount: 2
Fore
SplineSet
84 861 m 1,0,-1
 42 882 l 1,1,2
 71.400390625 907.200195312 l 0,3,4
 100.799804688 930.299804688 100.799804688 930.299804688 130.200195312 969.150390625 c 128,-1,5
 159.599609375 1008 159.599609375 1008 159.599609375 1050 c 256,6,7
 159.599609375 1092 159.599609375 1092 140.700195312 1115.09960938 c 128,-1,8
 121.799804688 1138.20019531 121.799804688 1138.20019531 102.900390625 1146.59960938 c 2,9,-1
 84 1155 l 1,10,-1
 102.900390625 1192.79980469 l 1,11,-1
 126 1190.70019531 l 2,12,13
 149.099609375 1188.59960938 149.099609375 1188.59960938 178.5 1179.15039062 c 128,-1,14
 207.900390625 1169.70019531 207.900390625 1169.70019531 229.950195312 1144.5 c 128,-1,15
 252 1119.29980469 252 1119.29980469 252 1071 c 0,16,17
 252 1031.09960938 252 1031.09960938 226.799804688 994.349609375 c 128,-1,18
 201.599609375 957.599609375 201.599609375 957.599609375 168 927.150390625 c 128,-1,19
 134.400390625 896.700195312 134.400390625 896.700195312 121.799804688 888.299804688 c 2,20,-1
 84 861 l 1,0,-1
84 630 m 1,21,-1
 189 630 l 1,22,-1
 210 609 l 1,23,-1
 210 483 l 1,24,-1
 210 210 l 1,25,-1
 210 0 l 1,26,-1
 63 0 l 2,27,28
 31.5 0 31.5 0 14.7001953125 -10.5 c 2,29,-1
 0 -21 l 1,30,-1
 -42 -21 l 1,31,-1
 42 105 l 1,32,-1
 84 105 l 1,33,-1
 84 210 l 1,34,-1
 84 483 l 1,35,-1
 84 525 l 1,36,-1
 42 525 l 1,37,-1
 21 546 l 1,38,-1
 84 630 l 1,21,-1
EndSplineSet
EndChar

StartChar: V
Encoding: 86 86 47
Width: 1194
VWidth: 4300
GlyphClass: 2
Flags: W
LayerCount: 2
Fore
SplineSet
105 1260 m 1,0,-1
 189 1260 l 1,1,-1
 210 1239 l 1,2,-1
 210 840 l 1,3,-1
 210 579.599609375 l 1,4,5
 243.599609375 600.599609375 243.599609375 600.599609375 285.599609375 615.299804688 c 128,-1,6
 327.599609375 630 327.599609375 630 378 630 c 0,7,8
 501.900390625 630 501.900390625 630 592.200195312 552.299804688 c 1,9,10
 627.900390625 579.599609375 627.900390625 579.599609375 680.400390625 604.799804688 c 128,-1,11
 732.900390625 630 732.900390625 630 798 630 c 0,12,13
 882 630 882 630 953.400390625 591.150390625 c 128,-1,14
 1024.79980469 552.299804688 1024.79980469 552.299804688 1068.90039062 486.150390625 c 128,-1,15
 1113 420 1113 420 1113 336 c 0,16,17
 1113 254.099609375 1113 254.099609375 1090.95019531 198.450195312 c 128,-1,18
 1068.90039062 142.799804688 1068.90039062 142.799804688 1035.29980469 105 c 1,19,-1
 1050 105 l 2,20,21
 1081.5 105 1081.5 105 1096.20019531 115.5 c 2,22,-1
 1113 126 l 1,23,-1
 1155 126 l 1,24,-1
 1071 0 l 1,25,-1
 210 0 l 1,26,-1
 63 0 l 2,27,28
 31.5 0 31.5 0 14.7001953125 -10.5 c 2,29,-1
 0 -21 l 1,30,-1
 -42 -21 l 1,31,-1
 42 105 l 1,32,-1
 84 105 l 1,33,-1
 84 210 l 1,34,-1
 84 840 l 1,35,-1
 84 1155 l 1,36,37
 52.5 1155 52.5 1155 27.2998046875 1134 c 2,38,-1
 0 1113 l 1,39,-1
 -21 1134 l 1,40,-1
 105 1260 l 1,0,-1
336 525 m 0,41,42
 296.099609375 525 296.099609375 525 264.599609375 520.799804688 c 128,-1,43
 233.099609375 516.599609375 233.099609375 516.599609375 210 510.299804688 c 1,44,-1
 210 210 l 1,45,-1
 210 105 l 1,46,-1
 510.299804688 105 l 1,47,48
 533.400390625 138.599609375 533.400390625 138.599609375 550.200195312 189 c 128,-1,49
 567 239.400390625 567 239.400390625 567 315 c 0,50,51
 567 394.799804688 567 394.799804688 514.5 459.900390625 c 128,-1,52
 462 525 462 525 336 525 c 0,41,42
756 525 m 0,53,54
 716.099609375 525 716.099609375 525 685.650390625 520.799804688 c 128,-1,55
 655.200195312 516.599609375 655.200195312 516.599609375 632.099609375 510.299804688 c 1,56,57
 661.5 474.599609375 661.5 474.599609375 677.25 430.5 c 128,-1,58
 693 386.400390625 693 386.400390625 693 336 c 0,59,60
 693 254.099609375 693 254.099609375 670.950195312 198.450195312 c 128,-1,61
 648.900390625 142.799804688 648.900390625 142.799804688 615.299804688 105 c 1,62,-1
 930.299804688 105 l 1,63,64
 953.400390625 138.599609375 953.400390625 138.599609375 970.200195312 189 c 128,-1,65
 987 239.400390625 987 239.400390625 987 315 c 0,66,67
 987 394.799804688 987 394.799804688 934.5 459.900390625 c 128,-1,68
 882 525 882 525 756 525 c 0,53,54
EndSplineSet
EndChar

StartChar: W
Encoding: 87 87 48
Width: 774
VWidth: 4300
GlyphClass: 2
Flags: W
LayerCount: 2
Fore
SplineSet
84 630 m 1,0,-1
 189 630 l 1,1,-1
 210 609 l 1,2,-1
 210 579.599609375 l 1,3,4
 243.599609375 600.599609375 243.599609375 600.599609375 285.599609375 615.299804688 c 128,-1,5
 327.599609375 630 327.599609375 630 378 630 c 0,6,7
 462 630 462 630 533.400390625 591.150390625 c 128,-1,8
 604.799804688 552.299804688 604.799804688 552.299804688 648.900390625 486.150390625 c 128,-1,9
 693 420 693 420 693 336 c 0,10,11
 693 254.099609375 693 254.099609375 670.950195312 198.450195312 c 128,-1,12
 648.900390625 142.799804688 648.900390625 142.799804688 615.299804688 105 c 1,13,-1
 630 105 l 2,14,15
 661.5 105 661.5 105 676.200195312 115.5 c 2,16,-1
 693 126 l 1,17,-1
 735 126 l 1,18,-1
 651 0 l 1,19,-1
 378 0 l 1,20,-1
 210 0 l 1,21,-1
 63 0 l 2,22,23
 31.5 0 31.5 0 14.7001953125 -10.5 c 2,24,-1
 0 -21 l 1,25,-1
 -42 -21 l 1,26,-1
 42 105 l 1,27,-1
 84 105 l 1,28,-1
 84 210 l 1,29,-1
 84 483 l 1,30,-1
 84 525 l 1,31,-1
 42 525 l 1,32,-1
 21 546 l 1,33,-1
 84 630 l 1,0,-1
336 525 m 0,34,35
 296.099609375 525 296.099609375 525 264.599609375 520.799804688 c 128,-1,36
 233.099609375 516.599609375 233.099609375 516.599609375 210 510.299804688 c 1,37,-1
 210 483 l 1,38,-1
 210 210 l 1,39,-1
 210 105 l 1,40,-1
 510.299804688 105 l 1,41,42
 533.400390625 138.599609375 533.400390625 138.599609375 550.200195312 189 c 128,-1,43
 567 239.400390625 567 239.400390625 567 315 c 0,44,45
 567 394.799804688 567 394.799804688 514.5 459.900390625 c 128,-1,46
 462 525 462 525 336 525 c 0,34,35
EndSplineSet
EndChar

StartChar: X
Encoding: 88 88 49
Width: 816
VWidth: 4300
GlyphClass: 2
Flags: W
LayerCount: 2
Fore
SplineSet
126 630 m 1,0,-1
 399 630 l 1,1,-1
 646.799804688 630 l 1,2,-1
 651 630 l 1,3,-1
 756 630 l 1,4,-1
 777 609 l 1,5,-1
 714 525 l 1,6,-1
 693 525 l 1,7,-1
 693 420 l 1,8,-1
 693 -210 l 1,9,-1
 693 -525 l 1,10,-1
 714 -525 l 1,11,-1
 735 -546 l 1,12,-1
 672 -630 l 1,13,-1
 588 -630 l 1,14,-1
 567 -609 l 1,15,-1
 567 -210 l 1,16,-1
 567 50.400390625 l 1,17,18
 533.400390625 29.400390625 533.400390625 29.400390625 491.400390625 14.7001953125 c 128,-1,19
 449.400390625 0 449.400390625 0 399 0 c 0,20,21
 396.900390625 0 396.900390625 0 392.700195312 0 c 0,22,23
 382.200195312 -56.7001953125 382.200195312 -56.7001953125 355.950195312 -96.599609375 c 128,-1,24
 329.700195312 -136.5 329.700195312 -136.5 301.349609375 -170.099609375 c 128,-1,25
 273 -203.700195312 273 -203.700195312 252 -241.5 c 128,-1,26
 231 -279.299804688 231 -279.299804688 231 -336 c 0,27,28
 231 -399 231 -399 265.650390625 -441 c 128,-1,29
 300.299804688 -483 300.299804688 -483 378 -483 c 0,30,31
 441 -483 441 -483 472.5 -462 c 2,32,-1
 504 -441 l 1,33,-1
 525 -462 l 1,34,35
 499.799804688 -487.200195312 l 0,36,37
 476.700195312 -514.5 476.700195312 -514.5 437.849609375 -540.75 c 128,-1,38
 399 -567 399 -567 357 -567 c 0,39,40
 247.799804688 -567 247.799804688 -567 186.900390625 -507.150390625 c 128,-1,41
 126 -447.299804688 126 -447.299804688 126 -336 c 0,42,43
 126 -277.200195312 126 -277.200195312 148.049804688 -242.549804688 c 128,-1,44
 170.099609375 -207.900390625 170.099609375 -207.900390625 201.599609375 -177.450195312 c 128,-1,45
 233.099609375 -147 233.099609375 -147 259.349609375 -102.900390625 c 128,-1,46
 285.599609375 -58.7998046875 285.599609375 -58.7998046875 291.900390625 16.7998046875 c 1,47,48
 203.700195312 48.2998046875 203.700195312 48.2998046875 143.849609375 121.799804688 c 128,-1,49
 84 195.299804688 84 195.299804688 84 294 c 0,50,51
 84 375.900390625 84 375.900390625 106.049804688 431.549804688 c 128,-1,52
 128.099609375 487.200195312 128.099609375 487.200195312 161.700195312 525 c 1,53,-1
 147 525 l 2,54,55
 115.5 525 115.5 525 98.7001953125 514.5 c 2,56,-1
 84 504 l 1,57,-1
 42 504 l 1,58,-1
 126 630 l 1,0,-1
266.700195312 525 m 1,59,60
 243.599609375 491.400390625 243.599609375 491.400390625 226.799804688 441 c 128,-1,61
 210 390.599609375 210 390.599609375 210 315 c 0,62,63
 210 237.299804688 210 237.299804688 262.5 171.150390625 c 128,-1,64
 315 105 315 105 441 105 c 0,65,66
 480.900390625 105 480.900390625 105 512.400390625 109.200195312 c 128,-1,67
 543.900390625 113.400390625 543.900390625 113.400390625 567 119.700195312 c 1,68,-1
 567 420 l 1,69,-1
 567 525 l 1,70,-1
 266.700195312 525 l 1,59,60
EndSplineSet
EndChar

StartChar: Y
Encoding: 89 89 50
Width: 774
VWidth: 4300
GlyphClass: 2
Flags: W
LayerCount: 2
Fore
SplineSet
399 630 m 1,0,-1
 399 609 l 1,1,2
 371.700195312 600.599609375 l 0,3,4
 342.299804688 592.200195312 342.299804688 592.200195312 304.5 563.849609375 c 128,-1,5
 266.700195312 535.5 266.700195312 535.5 238.349609375 476.700195312 c 128,-1,6
 210 417.900390625 210 417.900390625 210 315 c 0,7,8
 210 237.299804688 210 237.299804688 262.5 171.150390625 c 128,-1,9
 315 105 315 105 441 105 c 0,10,11
 480.900390625 105 480.900390625 105 512.400390625 109.200195312 c 128,-1,12
 543.900390625 113.400390625 543.900390625 113.400390625 567 119.700195312 c 1,13,-1
 567 210 l 1,14,-1
 567 420 l 1,15,-1
 567 525 l 1,16,-1
 646.799804688 630 l 1,17,-1
 756 630 l 1,18,-1
 777 609 l 1,19,-1
 714 525 l 1,20,-1
 693 525 l 1,21,-1
 693 420 l 1,22,-1
 693 210 l 1,23,-1
 693 105 l 1,24,-1
 714 105 l 2,25,26
 745.5 105 745.5 105 760.200195312 115.5 c 2,27,-1
 777 126 l 1,28,-1
 819 126 l 1,29,-1
 735 0 l 1,30,-1
 693 0 l 1,31,-1
 567 0 l 1,32,-1
 567 50.400390625 l 1,33,34
 533.400390625 29.400390625 533.400390625 29.400390625 491.400390625 14.7001953125 c 128,-1,35
 449.400390625 0 449.400390625 0 399 0 c 0,36,37
 315 0 315 0 243.599609375 38.849609375 c 128,-1,38
 172.200195312 77.7001953125 172.200195312 77.7001953125 128.099609375 143.849609375 c 128,-1,39
 84 210 84 210 84 294 c 0,40,41
 84 394.799804688 84 394.799804688 115.5 458.849609375 c 128,-1,42
 147 522.900390625 147 522.900390625 194.25 557.549804688 c 128,-1,43
 241.5 592.200195312 241.5 592.200195312 288.75 607.950195312 c 128,-1,44
 336 623.700195312 336 623.700195312 350.700195312 625.799804688 c 2,45,-1
 399 630 l 1,0,-1
EndSplineSet
EndChar

StartChar: Z
Encoding: 90 90 51
Width: 774
VWidth: 4300
GlyphClass: 2
Flags: W
LayerCount: 2
Fore
SplineSet
525 1260 m 1,0,1
 541.799804688 1222.20019531 l 0,2,3
 556.5 1182.29980469 556.5 1182.29980469 572.25 1116.15039062 c 128,-1,4
 588 1050 588 1050 588 966 c 0,5,6
 588 871.5 588 871.5 550.200195312 804.299804688 c 128,-1,7
 512.400390625 737.099609375 512.400390625 737.099609375 455.700195312 684.599609375 c 128,-1,8
 399 632.099609375 399 632.099609375 342.299804688 580.650390625 c 128,-1,9
 285.599609375 529.200195312 285.599609375 529.200195312 247.799804688 466.200195312 c 128,-1,10
 210 403.200195312 210 403.200195312 210 315 c 0,11,12
 210 220.5 210 220.5 262.5 162.75 c 128,-1,13
 315 105 315 105 441 105 c 0,14,15
 535.5 105 535.5 105 572.25 147 c 128,-1,16
 609 189 609 189 609 315 c 0,17,18
 609 367.5 609 367.5 577.5 405.299804688 c 128,-1,19
 546 443.099609375 546 443.099609375 514.5 464.099609375 c 2,20,-1
 483 483 l 1,21,-1
 483 504 l 1,22,-1
 588 567 l 1,23,-1
 613.200195312 539.700195312 l 2,24,25
 640.5 512.400390625 640.5 512.400390625 666.75 460.950195312 c 128,-1,26
 693 409.5 693 409.5 693 336 c 0,27,28
 693 260.400390625 693 260.400390625 654.150390625 189 c 128,-1,29
 615.299804688 117.599609375 615.299804688 117.599609375 555.450195312 68.25 c 128,-1,30
 495.599609375 18.900390625 495.599609375 18.900390625 436.799804688 4.2001953125 c 1,31,32
 426.299804688 -54.599609375 426.299804688 -54.599609375 400.049804688 -94.5 c 128,-1,33
 373.799804688 -134.400390625 373.799804688 -134.400390625 344.400390625 -168 c 128,-1,34
 315 -201.599609375 315 -201.599609375 294 -240.450195312 c 128,-1,35
 273 -279.299804688 273 -279.299804688 273 -336 c 0,36,37
 273 -399 273 -399 307.650390625 -441 c 128,-1,38
 342.299804688 -483 342.299804688 -483 420 -483 c 0,39,40
 483 -483 483 -483 514.5 -462 c 2,41,-1
 546 -441 l 1,42,-1
 567 -462 l 1,43,-1
 543.900390625 -487.200195312 l 2,44,45
 518.700195312 -514.5 518.700195312 -514.5 479.849609375 -540.75 c 128,-1,46
 441 -567 441 -567 399 -567 c 0,47,48
 289.799804688 -567 289.799804688 -567 228.900390625 -507.150390625 c 128,-1,49
 168 -447.299804688 168 -447.299804688 168 -336 c 0,50,51
 168 -279.299804688 168 -279.299804688 190.049804688 -244.650390625 c 128,-1,52
 212.099609375 -210 212.099609375 -210 241.5 -179.549804688 c 128,-1,53
 270.900390625 -149.099609375 270.900390625 -149.099609375 297.150390625 -108.150390625 c 128,-1,54
 323.400390625 -67.2001953125 323.400390625 -67.2001953125 331.799804688 4.2001953125 c 1,55,56
 228.900390625 18.900390625 228.900390625 18.900390625 156.450195312 88.2001953125 c 128,-1,57
 84 157.5 84 157.5 84 294 c 0,58,59
 84 375.900390625 84 375.900390625 123.900390625 434.700195312 c 128,-1,60
 163.799804688 493.5 163.799804688 493.5 223.650390625 543.900390625 c 128,-1,61
 283.5 594.299804688 283.5 594.299804688 343.349609375 648.900390625 c 128,-1,62
 403.200195312 703.5 403.200195312 703.5 443.099609375 773.849609375 c 128,-1,63
 483 844.200195312 483 844.200195312 483 945 c 0,64,65
 483 1039.5 483 1039.5 467.25 1089.90039062 c 128,-1,66
 451.5 1140.29980469 451.5 1140.29980469 436.799804688 1159.20019531 c 2,67,-1
 420 1176 l 1,68,-1
 420 1197 l 1,69,-1
 525 1260 l 1,0,1
EndSplineSet
EndChar

StartChar: underscore
Encoding: 95 95 52
Width: 354
VWidth: 4300
GlyphClass: 2
Flags: W
LayerCount: 2
Fore
SplineSet
84 630 m 1,0,-1
 189 630 l 1,1,-1
 210 609 l 1,2,-1
 210 483 l 1,3,-1
 210 210 l 1,4,-1
 210 0 l 1,5,-1
 63 0 l 2,6,7
 31.5 0 31.5 0 14.7001953125 -10.5 c 2,8,-1
 0 -21 l 1,9,-1
 -42 -21 l 1,10,-1
 42 105 l 1,11,-1
 84 105 l 1,12,-1
 84 210 l 1,13,-1
 84 483 l 1,14,-1
 84 525 l 1,15,-1
 42 525 l 1,16,-1
 21 546 l 1,17,-1
 84 630 l 1,0,-1
EndSplineSet
EndChar

StartChar: a
Encoding: 97 97 53
Width: 354
VWidth: 4300
GlyphClass: 2
Flags: W
LayerCount: 2
Fore
SplineSet
168 945 m 1,0,-1
 252 1071 l 1,1,-1
 357 987 l 1,2,-1
 273 861 l 1,3,-1
 168 945 l 1,0,-1
-84 945 m 1,4,-1
 0 1071 l 1,5,-1
 105 987 l 1,6,-1
 21 861 l 1,7,-1
 -84 945 l 1,4,-1
42 1071 m 1,8,-1
 126 1197 l 1,9,-1
 231 1113 l 1,10,-1
 147 987 l 1,11,-1
 42 1071 l 1,8,-1
84 630 m 1,12,-1
 189 630 l 1,13,-1
 210 609 l 1,14,-1
 210 483 l 1,15,-1
 210 210 l 1,16,-1
 210 0 l 1,17,-1
 63 0 l 2,18,19
 31.5 0 31.5 0 14.7001953125 -10.5 c 2,20,-1
 0 -21 l 1,21,-1
 -42 -21 l 1,22,-1
 42 105 l 1,23,-1
 84 105 l 1,24,-1
 84 210 l 1,25,-1
 84 483 l 1,26,-1
 84 525 l 1,27,-1
 42 525 l 1,28,-1
 21 546 l 1,29,-1
 84 630 l 1,12,-1
EndSplineSet
Substitution2: "vowel diacritic tengwa" a.short
EndChar

StartChar: b
Encoding: 98 98 54
Width: 1194
VWidth: 4300
GlyphClass: 2
Flags: W
LayerCount: 2
Fore
SplineSet
84 630 m 1,0,-1
 189 630 l 1,1,-1
 210 609 l 1,2,-1
 210 579.599609375 l 1,3,4
 243.599609375 600.599609375 243.599609375 600.599609375 285.599609375 615.299804688 c 128,-1,5
 327.599609375 630 327.599609375 630 378 630 c 0,6,7
 501.900390625 630 501.900390625 630 592.200195312 552.299804688 c 1,8,9
 627.900390625 579.599609375 627.900390625 579.599609375 680.400390625 604.799804688 c 128,-1,10
 732.900390625 630 732.900390625 630 798 630 c 0,11,12
 882 630 882 630 953.400390625 591.150390625 c 128,-1,13
 1024.79980469 552.299804688 1024.79980469 552.299804688 1068.90039062 486.150390625 c 128,-1,14
 1113 420 1113 420 1113 336 c 0,15,16
 1113 254.099609375 1113 254.099609375 1090.95019531 198.450195312 c 128,-1,17
 1068.90039062 142.799804688 1068.90039062 142.799804688 1035.29980469 105 c 1,18,-1
 1050 105 l 2,19,20
 1081.5 105 1081.5 105 1096.20019531 115.5 c 2,21,-1
 1113 126 l 1,22,-1
 1155 126 l 1,23,-1
 1071 0 l 1,24,-1
 210 0 l 1,25,-1
 210 -210 l 1,26,-1
 210 -525 l 1,27,-1
 231 -525 l 1,28,-1
 252 -546 l 1,29,-1
 189 -630 l 1,30,-1
 105 -630 l 1,31,-1
 84 -609 l 1,32,-1
 84 -210 l 1,33,-1
 84 483 l 1,34,-1
 84 525 l 1,35,-1
 42 525 l 1,36,-1
 21 546 l 1,37,-1
 84 630 l 1,0,-1
336 525 m 0,38,39
 296.099609375 525 296.099609375 525 264.599609375 520.799804688 c 128,-1,40
 233.099609375 516.599609375 233.099609375 516.599609375 210 510.299804688 c 1,41,-1
 210 483 l 1,42,-1
 210 105 l 1,43,-1
 510.299804688 105 l 1,44,45
 533.400390625 138.599609375 533.400390625 138.599609375 550.200195312 189 c 128,-1,46
 567 239.400390625 567 239.400390625 567 315 c 0,47,48
 567 394.799804688 567 394.799804688 514.5 459.900390625 c 128,-1,49
 462 525 462 525 336 525 c 0,38,39
756 525 m 0,50,51
 716.099609375 525 716.099609375 525 685.650390625 520.799804688 c 128,-1,52
 655.200195312 516.599609375 655.200195312 516.599609375 632.099609375 510.299804688 c 1,53,54
 661.5 474.599609375 661.5 474.599609375 677.25 430.5 c 128,-1,55
 693 386.400390625 693 386.400390625 693 336 c 0,56,57
 693 254.099609375 693 254.099609375 670.950195312 198.450195312 c 128,-1,58
 648.900390625 142.799804688 648.900390625 142.799804688 615.299804688 105 c 1,59,-1
 930.299804688 105 l 1,60,61
 953.400390625 138.599609375 953.400390625 138.599609375 970.200195312 189 c 128,-1,62
 987 239.400390625 987 239.400390625 987 315 c 0,63,64
 987 394.799804688 987 394.799804688 934.5 459.900390625 c 128,-1,65
 882 525 882 525 756 525 c 0,50,51
EndSplineSet
EndChar

StartChar: c
Encoding: 99 99 55
Width: 816
VWidth: 4300
GlyphClass: 2
Flags: W
LayerCount: 2
Fore
SplineSet
126 630 m 1,0,-1
 399 630 l 1,1,-1
 646.799804688 630 l 1,2,-1
 651 630 l 1,3,-1
 756 630 l 1,4,-1
 777 609 l 1,5,-1
 714 525 l 1,6,-1
 693 525 l 1,7,-1
 693 420 l 1,8,-1
 693 -210 l 1,9,-1
 693 -525 l 1,10,-1
 714 -525 l 1,11,-1
 735 -546 l 1,12,-1
 672 -630 l 1,13,-1
 588 -630 l 1,14,-1
 567 -609 l 1,15,-1
 567 -210 l 1,16,-1
 567 50.400390625 l 1,17,18
 533.400390625 29.400390625 533.400390625 29.400390625 491.400390625 14.7001953125 c 128,-1,19
 449.400390625 0 449.400390625 0 399 0 c 0,20,21
 315 0 315 0 243.599609375 38.849609375 c 128,-1,22
 172.200195312 77.7001953125 172.200195312 77.7001953125 128.099609375 143.849609375 c 128,-1,23
 84 210 84 210 84 294 c 0,24,25
 84 375.900390625 84 375.900390625 106.049804688 431.549804688 c 128,-1,26
 128.099609375 487.200195312 128.099609375 487.200195312 161.700195312 525 c 1,27,-1
 147 525 l 2,28,29
 115.5 525 115.5 525 98.7001953125 514.5 c 2,30,-1
 84 504 l 1,31,-1
 42 504 l 1,32,-1
 126 630 l 1,0,-1
266.700195312 525 m 1,33,34
 243.599609375 491.400390625 243.599609375 491.400390625 226.799804688 441 c 128,-1,35
 210 390.599609375 210 390.599609375 210 315 c 0,36,37
 210 237.299804688 210 237.299804688 262.5 171.150390625 c 128,-1,38
 315 105 315 105 441 105 c 0,39,40
 480.900390625 105 480.900390625 105 512.400390625 109.200195312 c 128,-1,41
 543.900390625 113.400390625 543.900390625 113.400390625 567 119.700195312 c 1,42,-1
 567 420 l 1,43,-1
 567 525 l 1,44,-1
 266.700195312 525 l 1,33,34
EndSplineSet
Substitution2: "Cons vowel" c.vowel
EndChar

StartChar: d
Encoding: 100 100 56
Width: 1194
VWidth: 4300
GlyphClass: 2
Flags: W
LayerCount: 2
Fore
SplineSet
84 630 m 1,0,-1
 189 630 l 1,1,-1
 210 609 l 1,2,-1
 210 579.599609375 l 1,3,4
 243.599609375 600.599609375 243.599609375 600.599609375 285.599609375 615.299804688 c 128,-1,5
 327.599609375 630 327.599609375 630 378 630 c 0,6,7
 501.900390625 630 501.900390625 630 592.200195312 552.299804688 c 1,8,9
 627.900390625 579.599609375 627.900390625 579.599609375 680.400390625 604.799804688 c 128,-1,10
 732.900390625 630 732.900390625 630 798 630 c 0,11,12
 882 630 882 630 953.400390625 591.150390625 c 128,-1,13
 1024.79980469 552.299804688 1024.79980469 552.299804688 1068.90039062 486.150390625 c 128,-1,14
 1113 420 1113 420 1113 336 c 0,15,16
 1113 235.200195312 1113 235.200195312 1081.5 171.150390625 c 128,-1,17
 1050 107.099609375 1050 107.099609375 1002.75 72.4501953125 c 128,-1,18
 955.5 37.7998046875 955.5 37.7998046875 908.25 22.0498046875 c 128,-1,19
 861 6.2998046875 861 6.2998046875 829.5 2.099609375 c 2,20,-1
 798 0 l 1,21,-1
 798 21 l 1,22,23
 827.400390625 29.400390625 l 0,24,25
 856.799804688 37.7998046875 856.799804688 37.7998046875 893.549804688 66.150390625 c 128,-1,26
 930.299804688 94.5 930.299804688 94.5 958.650390625 153.299804688 c 128,-1,27
 987 212.099609375 987 212.099609375 987 315 c 0,28,29
 987 394.799804688 987 394.799804688 934.5 459.900390625 c 128,-1,30
 882 525 882 525 756 525 c 0,31,32
 716.099609375 525 716.099609375 525 685.650390625 520.799804688 c 128,-1,33
 655.200195312 516.599609375 655.200195312 516.599609375 632.099609375 510.299804688 c 1,34,35
 661.5 474.599609375 661.5 474.599609375 677.25 430.5 c 128,-1,36
 693 386.400390625 693 386.400390625 693 336 c 0,37,38
 693 235.200195312 693 235.200195312 661.5 171.150390625 c 128,-1,39
 630 107.099609375 630 107.099609375 582.75 72.4501953125 c 128,-1,40
 535.5 37.7998046875 535.5 37.7998046875 488.25 22.0498046875 c 128,-1,41
 441 6.2998046875 441 6.2998046875 409.5 2.099609375 c 2,42,-1
 378 0 l 1,43,-1
 378 21 l 1,44,-1
 405.299804688 29.400390625 l 2,45,46
 434.700195312 37.7998046875 434.700195312 37.7998046875 472.5 66.150390625 c 128,-1,47
 510.299804688 94.5 510.299804688 94.5 538.650390625 153.299804688 c 128,-1,48
 567 212.099609375 567 212.099609375 567 315 c 0,49,50
 567 394.799804688 567 394.799804688 514.5 459.900390625 c 128,-1,51
 462 525 462 525 336 525 c 0,52,53
 296.099609375 525 296.099609375 525 264.599609375 520.799804688 c 128,-1,54
 233.099609375 516.599609375 233.099609375 516.599609375 210 510.299804688 c 1,55,-1
 210 483 l 1,56,-1
 210 -210 l 1,57,-1
 210 -525 l 1,58,-1
 231 -525 l 1,59,-1
 252 -546 l 1,60,-1
 189 -630 l 1,61,-1
 105 -630 l 1,62,-1
 84 -609 l 1,63,-1
 84 -210 l 1,64,-1
 84 483 l 1,65,-1
 84 525 l 1,66,-1
 42 525 l 1,67,-1
 21 546 l 1,68,-1
 84 630 l 1,0,-1
EndSplineSet
EndChar

StartChar: e
Encoding: 101 101 57
Width: 354
VWidth: 4300
GlyphClass: 2
Flags: W
LayerCount: 2
Fore
SplineSet
84 861 m 1,0,-1
 42 882 l 1,1,-1
 231 1197 l 1,2,-1
 336 1155 l 1,3,-1
 315 1113 l 1,4,-1
 84 861 l 1,0,-1
84 630 m 1,5,-1
 189 630 l 1,6,-1
 210 609 l 1,7,-1
 210 483 l 1,8,-1
 210 210 l 1,9,-1
 210 0 l 1,10,-1
 63 0 l 2,11,12
 31.5 0 31.5 0 14.7001953125 -10.5 c 2,13,-1
 0 -21 l 1,14,-1
 -42 -21 l 1,15,-1
 42 105 l 1,16,-1
 84 105 l 1,17,-1
 84 210 l 1,18,-1
 84 483 l 1,19,-1
 84 525 l 1,20,-1
 42 525 l 1,21,-1
 21 546 l 1,22,-1
 84 630 l 1,5,-1
EndSplineSet
Substitution2: "vowel diacritic tengwa" e.short
Substitution2: "silent e" e.silent
EndChar

StartChar: f
Encoding: 102 102 58
Width: 774
VWidth: 4300
GlyphClass: 2
Flags: W
HStem: -21 21G<-42 14.7002> 0 105<42 84 210 534.904 615.3 651> 525 105<219.287 494.431> 1113 21G<-20 25.9998> 1113 21G<-20 25.9998> 1240 20G<85 209>
VStem: 84 126<105 519.436 579.6 1155> 567 126<151.252 449.694>
LayerCount: 2
Fore
SplineSet
105 1260 m 1,0,-1
 189 1260 l 1,1,-1
 210 1239 l 1,2,-1
 210 840 l 1,3,-1
 210 579.599609375 l 1,4,5
 243.599609375 600.599609375 243.599609375 600.599609375 285.599609375 615.299804688 c 128,-1,6
 327.599609375 630 327.599609375 630 378 630 c 0,7,8
 462 630 462 630 533.400390625 591.150390625 c 128,-1,9
 604.799804688 552.299804688 604.799804688 552.299804688 648.900390625 486.150390625 c 128,-1,10
 693 420 693 420 693 336 c 0,11,12
 693 254.099609375 693 254.099609375 670.950195312 198.450195312 c 128,-1,13
 648.900390625 142.799804688 648.900390625 142.799804688 615.299804688 105 c 1,14,-1
 630 105 l 2,15,16
 661.5 105 661.5 105 676.200195312 115.5 c 2,17,-1
 693 126 l 1,18,-1
 735 126 l 1,19,-1
 651 0 l 1,20,-1
 378 0 l 1,21,-1
 210 0 l 1,22,-1
 63 0 l 2,23,24
 31.5 0 31.5 0 14.7001953125 -10.5 c 2,25,-1
 0 -21 l 1,26,-1
 -42 -21 l 1,27,-1
 42 105 l 1,28,-1
 84 105 l 1,29,-1
 84 210 l 1,30,-1
 84 840 l 1,31,-1
 84 1155 l 1,32,33
 52.5 1155 52.5 1155 27.2998046875 1134 c 2,34,-1
 0 1113 l 1,35,-1
 -21 1134 l 1,36,-1
 105 1260 l 1,0,-1
336 525 m 0,37,38
 296.099609375 525 296.099609375 525 264.599609375 520.799804688 c 128,-1,39
 233.099609375 516.599609375 233.099609375 516.599609375 210 510.299804688 c 1,40,-1
 210 210 l 1,41,-1
 210 105 l 1,42,-1
 510.299804688 105 l 1,43,44
 533.400390625 138.599609375 533.400390625 138.599609375 550.200195312 189 c 128,-1,45
 567 239.400390625 567 239.400390625 567 315 c 0,46,47
 567 394.799804688 567 394.799804688 514.5 459.900390625 c 128,-1,48
 462 525 462 525 336 525 c 0,37,38
EndSplineSet
Substitution2: "Cons vowel" f_f
EndChar

StartChar: g
Encoding: 103 103 59
Width: 1194
VWidth: 4300
GlyphClass: 2
Flags: W
LayerCount: 2
Fore
SplineSet
126 630 m 1,0,-1
 399 630 l 1,1,-1
 819 630 l 1,2,-1
 1066.79980469 630 l 1,3,-1
 1071 630 l 1,4,-1
 1176 630 l 1,5,-1
 1197 609 l 1,6,-1
 1134 525 l 1,7,-1
 1113 525 l 1,8,-1
 1113 420 l 1,9,-1
 1113 -210 l 1,10,-1
 1113 -525 l 1,11,-1
 1134 -525 l 1,12,-1
 1155 -546 l 1,13,-1
 1092 -630 l 1,14,-1
 1008 -630 l 1,15,-1
 987 -609 l 1,16,-1
 987 -210 l 1,17,-1
 987 50.400390625 l 1,18,19
 953.400390625 29.400390625 953.400390625 29.400390625 911.400390625 14.7001953125 c 128,-1,20
 869.400390625 0 869.400390625 0 819 0 c 0,21,22
 695.099609375 0 695.099609375 0 604.799804688 77.7001953125 c 1,23,24
 569.099609375 50.400390625 569.099609375 50.400390625 516.599609375 25.2001953125 c 128,-1,25
 464.099609375 0 464.099609375 0 399 0 c 0,26,27
 315 0 315 0 243.599609375 38.849609375 c 128,-1,28
 172.200195312 77.7001953125 172.200195312 77.7001953125 128.099609375 143.849609375 c 128,-1,29
 84 210 84 210 84 294 c 0,30,31
 84 375.900390625 84 375.900390625 106.049804688 431.549804688 c 128,-1,32
 128.099609375 487.200195312 128.099609375 487.200195312 161.700195312 525 c 1,33,-1
 147 525 l 2,34,35
 115.5 525 115.5 525 98.7001953125 514.5 c 2,36,-1
 84 504 l 1,37,-1
 42 504 l 1,38,-1
 126 630 l 1,0,-1
266.700195312 525 m 1,39,40
 243.599609375 491.400390625 243.599609375 491.400390625 226.799804688 441 c 128,-1,41
 210 390.599609375 210 390.599609375 210 315 c 0,42,43
 210 237.299804688 210 237.299804688 262.5 171.150390625 c 128,-1,44
 315 105 315 105 441 105 c 0,45,46
 480.900390625 105 480.900390625 105 511.349609375 109.200195312 c 128,-1,47
 541.799804688 113.400390625 541.799804688 113.400390625 564.900390625 119.700195312 c 1,48,49
 535.5 155.400390625 535.5 155.400390625 519.75 199.5 c 128,-1,50
 504 243.599609375 504 243.599609375 504 294 c 0,51,52
 504 375.900390625 504 375.900390625 526.049804688 431.549804688 c 128,-1,53
 548.099609375 487.200195312 548.099609375 487.200195312 581.700195312 525 c 1,54,-1
 266.700195312 525 l 1,39,40
686.700195312 525 m 1,55,56
 663.599609375 491.400390625 663.599609375 491.400390625 646.799804688 441 c 128,-1,57
 630 390.599609375 630 390.599609375 630 315 c 0,58,59
 630 237.299804688 630 237.299804688 682.5 171.150390625 c 128,-1,60
 735 105 735 105 861 105 c 0,61,62
 900.900390625 105 900.900390625 105 932.400390625 109.200195312 c 128,-1,63
 963.900390625 113.400390625 963.900390625 113.400390625 987 119.700195312 c 1,64,-1
 987 420 l 1,65,-1
 987 525 l 1,66,-1
 686.700195312 525 l 1,55,56
EndSplineSet
EndChar

StartChar: h
Encoding: 104 104 60
Width: 774
VWidth: 4300
GlyphClass: 2
Flags: W
LayerCount: 2
Fore
SplineSet
63 1260 m 1,0,-1
 126 1260 l 1,1,-1
 147 1239 l 1,2,-1
 651 105 l 1,3,-1
 672 105 l 2,4,5
 703.5 105 703.5 105 720.299804688 115.5 c 2,6,-1
 735 126 l 1,7,-1
 777 126 l 1,8,-1
 693 0 l 1,9,-1
 651 0 l 1,10,-1
 546 0 l 1,11,-1
 327.599609375 501.900390625 l 1,12,-1
 126 0 l 1,13,-1
 63 0 l 2,14,15
 31.5 0 31.5 0 14.7001953125 -10.5 c 2,16,-1
 0 -21 l 1,17,-1
 -42 -21 l 1,18,-1
 42 105 l 1,19,-1
 84 105 l 1,20,-1
 283.5 602.700195312 l 1,21,-1
 42 1155 l 1,22,23
 10.5 1155 10.5 1155 -16.7998046875 1134 c 2,24,-1
 -42 1113 l 1,25,-1
 -63 1134 l 1,26,-1
 63 1260 l 1,0,-1
EndSplineSet
EndChar

StartChar: i
Encoding: 105 105 61
Width: 354
VWidth: 4300
GlyphClass: 2
Flags: W
LayerCount: 2
Fore
SplineSet
42 945 m 1,0,-1
 126 1071 l 1,1,-1
 231 987 l 1,2,-1
 147 861 l 1,3,-1
 42 945 l 1,0,-1
84 630 m 1,4,-1
 189 630 l 1,5,-1
 210 609 l 1,6,-1
 210 483 l 1,7,-1
 210 210 l 1,8,-1
 210 0 l 1,9,-1
 63 0 l 2,10,11
 31.5 0 31.5 0 14.7001953125 -10.5 c 2,12,-1
 0 -21 l 1,13,-1
 -42 -21 l 1,14,-1
 42 105 l 1,15,-1
 84 105 l 1,16,-1
 84 210 l 1,17,-1
 84 483 l 1,18,-1
 84 525 l 1,19,-1
 42 525 l 1,20,-1
 21 546 l 1,21,-1
 84 630 l 1,4,-1
EndSplineSet
Substitution2: "vowel diacritic tengwa" i.short
EndChar

StartChar: j
Encoding: 106 106 62
Width: 1194
VWidth: 4300
GlyphClass: 2
Flags: W
LayerCount: 2
Fore
SplineSet
399 630 m 1,0,-1
 399 609 l 1,1,2
 371.700195312 600.599609375 l 0,3,4
 342.299804688 592.200195312 342.299804688 592.200195312 304.5 563.849609375 c 128,-1,5
 266.700195312 535.5 266.700195312 535.5 238.349609375 476.700195312 c 128,-1,6
 210 417.900390625 210 417.900390625 210 315 c 0,7,8
 210 237.299804688 210 237.299804688 262.5 171.150390625 c 128,-1,9
 315 105 315 105 441 105 c 0,10,11
 480.900390625 105 480.900390625 105 511.349609375 109.200195312 c 128,-1,12
 541.799804688 113.400390625 541.799804688 113.400390625 564.900390625 119.700195312 c 1,13,14
 535.5 155.400390625 535.5 155.400390625 519.75 199.5 c 128,-1,15
 504 243.599609375 504 243.599609375 504 294 c 0,16,17
 504 394.799804688 504 394.799804688 535.5 458.849609375 c 128,-1,18
 567 522.900390625 567 522.900390625 614.25 557.549804688 c 128,-1,19
 661.5 592.200195312 661.5 592.200195312 708.75 607.950195312 c 128,-1,20
 756 623.700195312 756 623.700195312 787.5 625.799804688 c 2,21,-1
 819 630 l 1,22,-1
 819 609 l 1,23,-1
 789.599609375 600.599609375 l 2,24,25
 760.200195312 592.200195312 760.200195312 592.200195312 723.450195312 563.849609375 c 128,-1,26
 686.700195312 535.5 686.700195312 535.5 658.349609375 476.700195312 c 128,-1,27
 630 417.900390625 630 417.900390625 630 315 c 0,28,29
 630 237.299804688 630 237.299804688 682.5 171.150390625 c 128,-1,30
 735 105 735 105 861 105 c 0,31,32
 900.900390625 105 900.900390625 105 932.400390625 109.200195312 c 128,-1,33
 963.900390625 113.400390625 963.900390625 113.400390625 987 119.700195312 c 1,34,-1
 987 420 l 1,35,-1
 987 525 l 1,36,-1
 1066.79980469 630 l 1,37,-1
 1176 630 l 1,38,-1
 1197 609 l 1,39,-1
 1134 525 l 1,40,-1
 1113 525 l 1,41,-1
 1113 420 l 1,42,-1
 1113 -210 l 1,43,-1
 1113 -525 l 1,44,-1
 1134 -525 l 1,45,-1
 1155 -546 l 1,46,-1
 1092 -630 l 1,47,-1
 1008 -630 l 1,48,-1
 987 -609 l 1,49,-1
 987 -210 l 1,50,-1
 987 50.400390625 l 1,51,52
 953.400390625 29.400390625 953.400390625 29.400390625 911.400390625 14.7001953125 c 128,-1,53
 869.400390625 0 869.400390625 0 819 0 c 0,54,55
 695.099609375 0 695.099609375 0 604.799804688 77.7001953125 c 1,56,57
 569.099609375 50.400390625 569.099609375 50.400390625 516.599609375 25.2001953125 c 128,-1,58
 464.099609375 0 464.099609375 0 399 0 c 0,59,60
 315 0 315 0 243.599609375 38.849609375 c 128,-1,61
 172.200195312 77.7001953125 172.200195312 77.7001953125 128.099609375 143.849609375 c 128,-1,62
 84 210 84 210 84 294 c 0,63,64
 84 394.799804688 84 394.799804688 115.5 458.849609375 c 128,-1,65
 147 522.900390625 147 522.900390625 194.25 557.549804688 c 128,-1,66
 241.5 592.200195312 241.5 592.200195312 288.75 607.950195312 c 128,-1,67
 336 623.700195312 336 623.700195312 350.700195312 625.799804688 c 2,68,-1
 399 630 l 1,0,-1
EndSplineSet
EndChar

StartChar: k
Encoding: 107 107 63
Width: 816
VWidth: 4300
GlyphClass: 2
Flags: W
LayerCount: 2
Fore
SplineSet
126 630 m 1,0,-1
 399 630 l 1,1,-1
 646.799804688 630 l 1,2,-1
 651 630 l 1,3,-1
 756 630 l 1,4,-1
 777 609 l 1,5,-1
 714 525 l 1,6,-1
 693 525 l 1,7,-1
 693 420 l 1,8,-1
 693 -210 l 1,9,-1
 693 -525 l 1,10,-1
 714 -525 l 1,11,-1
 735 -546 l 1,12,-1
 672 -630 l 1,13,-1
 588 -630 l 1,14,-1
 567 -609 l 1,15,-1
 567 -210 l 1,16,-1
 567 50.400390625 l 1,17,18
 533.400390625 29.400390625 533.400390625 29.400390625 491.400390625 14.7001953125 c 128,-1,19
 449.400390625 0 449.400390625 0 399 0 c 0,20,21
 315 0 315 0 243.599609375 38.849609375 c 128,-1,22
 172.200195312 77.7001953125 172.200195312 77.7001953125 128.099609375 143.849609375 c 128,-1,23
 84 210 84 210 84 294 c 0,24,25
 84 375.900390625 84 375.900390625 106.049804688 431.549804688 c 128,-1,26
 128.099609375 487.200195312 128.099609375 487.200195312 161.700195312 525 c 1,27,-1
 147 525 l 2,28,29
 115.5 525 115.5 525 98.7001953125 514.5 c 2,30,-1
 84 504 l 1,31,-1
 42 504 l 1,32,-1
 126 630 l 1,0,-1
266.700195312 525 m 1,33,34
 243.599609375 491.400390625 243.599609375 491.400390625 226.799804688 441 c 128,-1,35
 210 390.599609375 210 390.599609375 210 315 c 0,36,37
 210 237.299804688 210 237.299804688 262.5 171.150390625 c 128,-1,38
 315 105 315 105 441 105 c 0,39,40
 480.900390625 105 480.900390625 105 512.400390625 109.200195312 c 128,-1,41
 543.900390625 113.400390625 543.900390625 113.400390625 567 119.700195312 c 1,42,-1
 567 420 l 1,43,-1
 567 525 l 1,44,-1
 266.700195312 525 l 1,33,34
EndSplineSet
EndChar

StartChar: l
Encoding: 108 108 64
Width: 746
VWidth: 3931
GlyphClass: 2
Flags: W
HStem: -134.4 96<304.56 592.824> 480 96<115.2 172.8 235.076 672> 575.2 20G<687.359 748.8>
VStem: 76.7998 115.2<77.6074 413.765>
LayerCount: 2
Fore
SplineSet
710.400390625 595.200195312 m 1,0,-1
 748.799804688 595.200195312 l 1,1,-1
 672 480 l 1,2,-1
 364.799804688 480 l 1,3,-1
 263.040039062 480 l 1,4,5
 236.16015625 445.440429688 236.16015625 445.440429688 214.080078125 388.799804688 c 128,-1,6
 192 332.16015625 192 332.16015625 192 249.599609375 c 0,7,8
 192 120.959960938 192 120.959960938 264 41.2802734375 c 128,-1,9
 336 -38.400390625 336 -38.400390625 480 -38.400390625 c 0,10,11
 556.799804688 -38.400390625 556.799804688 -38.400390625 598.080078125 -24 c 128,-1,12
 639.359375 -9.599609375 639.359375 -9.599609375 656.640625 3.83984375 c 2,13,-1
 672 19.2001953125 l 1,14,-1
 691.200195312 0 l 1,15,16
 691.200195312 0 691.200195312 0 673.919921875 -21.119140625 c 0,17,18
 656.640625 -40.3193359375 656.640625 -40.3193359375 624 -67.2001953125 c 128,-1,19
 591.359375 -94.080078125 591.359375 -94.080078125 545.280273438 -114.240234375 c 128,-1,20
 499.200195312 -134.400390625 499.200195312 -134.400390625 441.599609375 -134.400390625 c 0,21,22
 345.599609375 -134.400390625 345.599609375 -134.400390625 262.080078125 -95.0400390625 c 128,-1,23
 178.559570312 -55.6806640625 178.559570312 -55.6806640625 127.680664062 24.9599609375 c 128,-1,24
 76.7998046875 105.599609375 76.7998046875 105.599609375 76.7998046875 230.400390625 c 0,25,26
 76.7998046875 320.640625 76.7998046875 320.640625 104.640625 381.119140625 c 128,-1,27
 132.48046875 441.599609375 132.48046875 441.599609375 172.799804688 480 c 1,28,-1
 134.400390625 480 l 2,29,30
 105.599609375 480 105.599609375 480 90.240234375 470.400390625 c 2,31,-1
 76.7998046875 460.799804688 l 1,32,-1
 38.400390625 460.799804688 l 1,33,-1
 115.200195312 576 l 1,34,-1
 147.83984375 576 l 1,35,-1
 364.799804688 576 l 1,36,-1
 414.719726562 576 l 2,37,38
 462.719726562 576 462.719726562 576 529.919921875 576 c 128,-1,39
 597.119140625 576 597.119140625 576 652.799804688 576 c 0,40,41
 681.599609375 576 681.599609375 576 687.359375 581.759765625 c 2,42,-1
 710.400390625 595.200195312 l 1,0,-1
EndSplineSet
EndChar

StartChar: m
Encoding: 109 109 65
Width: 1194
VWidth: 4300
GlyphClass: 2
Flags: W
HStem: -21 21G<-42 14.7002> 0 105<42 84 210 534.904 615.3 954.904 1035.3 1071> 525 105<219.287 493.891 642.973 914.431>
VStem: 84 126<105 519.436> 567 126<151.252 449.515> 987 126<151.252 449.694>
LayerCount: 2
Fore
SplineSet
84 630 m 1,0,-1
 189 630 l 1,1,-1
 210 609 l 1,2,-1
 210 579.599609375 l 1,3,4
 243.599609375 600.599609375 243.599609375 600.599609375 285.599609375 615.299804688 c 128,-1,5
 327.599609375 630 327.599609375 630 378 630 c 0,6,7
 501.900390625 630 501.900390625 630 592.200195312 552.299804688 c 1,8,9
 627.900390625 579.599609375 627.900390625 579.599609375 680.400390625 604.799804688 c 128,-1,10
 732.900390625 630 732.900390625 630 798 630 c 0,11,12
 882 630 882 630 953.400390625 591.150390625 c 128,-1,13
 1024.79980469 552.299804688 1024.79980469 552.299804688 1068.90039062 486.150390625 c 128,-1,14
 1113 420 1113 420 1113 336 c 0,15,16
 1113 254.099609375 1113 254.099609375 1090.95019531 198.450195312 c 128,-1,17
 1068.90039062 142.799804688 1068.90039062 142.799804688 1035.29980469 105 c 1,18,-1
 1050 105 l 2,19,20
 1081.5 105 1081.5 105 1096.20019531 115.5 c 2,21,-1
 1113 126 l 1,22,-1
 1155 126 l 1,23,-1
 1071 0 l 1,24,-1
 210 0 l 1,25,-1
 63 0 l 2,26,27
 31.5 0 31.5 0 14.7001953125 -10.5 c 2,28,-1
 0 -21 l 1,29,-1
 -42 -21 l 1,30,-1
 42 105 l 1,31,-1
 84 105 l 1,32,-1
 84 210 l 1,33,-1
 84 483 l 1,34,-1
 84 525 l 1,35,-1
 42 525 l 1,36,-1
 21 546 l 1,37,-1
 84 630 l 1,0,-1
336 525 m 0,38,39
 296.099609375 525 296.099609375 525 264.599609375 520.799804688 c 128,-1,40
 233.099609375 516.599609375 233.099609375 516.599609375 210 510.299804688 c 1,41,-1
 210 483 l 1,42,-1
 210 210 l 1,43,-1
 210 105 l 1,44,-1
 510.299804688 105 l 1,45,46
 533.400390625 138.599609375 533.400390625 138.599609375 550.200195312 189 c 128,-1,47
 567 239.400390625 567 239.400390625 567 315 c 0,48,49
 567 394.799804688 567 394.799804688 514.5 459.900390625 c 128,-1,50
 462 525 462 525 336 525 c 0,38,39
756 525 m 0,51,52
 716.099609375 525 716.099609375 525 685.650390625 520.799804688 c 128,-1,53
 655.200195312 516.599609375 655.200195312 516.599609375 632.099609375 510.299804688 c 1,54,55
 661.5 474.599609375 661.5 474.599609375 677.25 430.5 c 128,-1,56
 693 386.400390625 693 386.400390625 693 336 c 0,57,58
 693 254.099609375 693 254.099609375 670.950195312 198.450195312 c 128,-1,59
 648.900390625 142.799804688 648.900390625 142.799804688 615.299804688 105 c 1,60,-1
 930.299804688 105 l 1,61,62
 953.400390625 138.599609375 953.400390625 138.599609375 970.200195312 189 c 128,-1,63
 987 239.400390625 987 239.400390625 987 315 c 0,64,65
 987 394.799804688 987 394.799804688 934.5 459.900390625 c 128,-1,66
 882 525 882 525 756 525 c 0,51,52
EndSplineSet
Substitution2: "nasal short" pren.short
Substitution2: "nasalized" pren.long
EndChar

StartChar: n
Encoding: 110 110 66
Width: 1194
VWidth: 4300
GlyphClass: 2
Flags: W
LayerCount: 2
Fore
SplineSet
3552 -262 m 1048,0,-1
84 630 m 1,1,-1
 189 630 l 1,2,-1
 210 609 l 1,3,-1
 210 579.599609375 l 1,4,5
 243.599609375 600.599609375 243.599609375 600.599609375 285.599609375 615.299804688 c 128,-1,6
 327.599609375 630 327.599609375 630 378 630 c 0,7,8
 501.900390625 630 501.900390625 630 592.200195312 552.299804688 c 1,9,10
 627.900390625 579.599609375 627.900390625 579.599609375 680.400390625 604.799804688 c 128,-1,11
 732.900390625 630 732.900390625 630 798 630 c 0,12,13
 882 630 882 630 953.400390625 591.150390625 c 128,-1,14
 1024.79980469 552.299804688 1024.79980469 552.299804688 1068.90039062 486.150390625 c 128,-1,15
 1113 420 1113 420 1113 336 c 0,16,17
 1113 235.200195312 1113 235.200195312 1081.5 171.150390625 c 128,-1,18
 1050 107.099609375 1050 107.099609375 1002.75 72.4501953125 c 128,-1,19
 955.5 37.7998046875 955.5 37.7998046875 908.25 22.0498046875 c 128,-1,20
 861 6.2998046875 861 6.2998046875 829.5 2.099609375 c 2,21,-1
 798 0 l 1,22,-1
 798 21 l 1,23,-1
 827.400390625 29.400390625 l 0,24,25
 856.799804688 37.7998046875 856.799804688 37.7998046875 893.549804688 66.150390625 c 128,-1,26
 930.299804688 94.5 930.299804688 94.5 958.650390625 153.299804688 c 128,-1,27
 987 212.099609375 987 212.099609375 987 315 c 0,28,29
 987 394.799804688 987 394.799804688 934.5 459.900390625 c 128,-1,30
 882 525 882 525 756 525 c 0,31,32
 716.099609375 525 716.099609375 525 685.650390625 520.799804688 c 128,-1,33
 655.200195312 516.599609375 655.200195312 516.599609375 632.099609375 510.299804688 c 1,34,35
 661.5 474.599609375 661.5 474.599609375 677.25 430.5 c 128,-1,36
 693 386.400390625 693 386.400390625 693 336 c 0,37,38
 693 235.200195312 693 235.200195312 661.5 171.150390625 c 128,-1,39
 630 107.099609375 630 107.099609375 582.75 72.4501953125 c 128,-1,40
 535.5 37.7998046875 535.5 37.7998046875 488.25 22.0498046875 c 128,-1,41
 441 6.2998046875 441 6.2998046875 409.5 2.099609375 c 2,42,-1
 378 0 l 1,43,-1
 378 21 l 1,44,-1
 405.299804688 29.400390625 l 2,45,46
 434.700195312 37.7998046875 434.700195312 37.7998046875 472.5 66.150390625 c 128,-1,47
 510.299804688 94.5 510.299804688 94.5 538.650390625 153.299804688 c 128,-1,48
 567 212.099609375 567 212.099609375 567 315 c 0,49,50
 567 394.799804688 567 394.799804688 514.5 459.900390625 c 128,-1,51
 462 525 462 525 336 525 c 0,52,53
 296.099609375 525 296.099609375 525 264.599609375 520.799804688 c 128,-1,54
 233.099609375 516.599609375 233.099609375 516.599609375 210 510.299804688 c 1,55,-1
 210 483 l 1,56,-1
 210 210 l 1,57,-1
 210 0 l 1,58,-1
 63 0 l 2,59,60
 31.5 0 31.5 0 14.7001953125 -10.5 c 2,61,-1
 0 -21 l 1,62,-1
 -42 -21 l 1,63,-1
 42 105 l 1,64,-1
 84 105 l 1,65,-1
 84 210 l 1,66,-1
 84 483 l 1,67,-1
 84 525 l 1,68,-1
 42 525 l 1,69,-1
 21 546 l 1,70,-1
 84 630 l 1,1,-1
EndSplineSet
Substitution2: "nasal short" pren.short
Substitution2: "nasalized" pren.long
EndChar

StartChar: o
Encoding: 111 111 67
Width: 354
VWidth: 4300
GlyphClass: 2
Flags: W
LayerCount: 2
Fore
SplineSet
42 882 m 1,0,1
 56.7001953125 917.700195312 l 0,2,3
 71.400390625 953.400390625 71.400390625 953.400390625 97.650390625 998.549804688 c 128,-1,4
 123.900390625 1043.70019531 123.900390625 1043.70019531 157.5 1078.34960938 c 128,-1,5
 191.099609375 1113 191.099609375 1113 231 1113 c 0,6,7
 283.5 1113 283.5 1113 310.799804688 1081.5 c 128,-1,8
 338.099609375 1050 338.099609375 1050 348.599609375 1018.5 c 2,9,-1
 357 987 l 1,10,-1
 315 966 l 1,11,-1
 310.799804688 976.5 l 2,12,13
 308.700195312 987 308.700195312 987 290.849609375 997.5 c 128,-1,14
 273 1008 273 1008 231 1008 c 0,15,16
 199.5 1008 199.5 1008 172.200195312 985.950195312 c 128,-1,17
 144.900390625 963.900390625 144.900390625 963.900390625 126 934.5 c 128,-1,18
 107.099609375 905.099609375 107.099609375 905.099609375 94.5 884.099609375 c 2,19,-1
 84 861 l 1,20,-1
 42 882 l 1,0,1
84 630 m 1,21,-1
 189 630 l 1,22,-1
 210 609 l 1,23,-1
 210 483 l 1,24,-1
 210 210 l 1,25,-1
 210 0 l 1,26,-1
 63 0 l 2,27,28
 31.5 0 31.5 0 14.7001953125 -10.5 c 2,29,-1
 0 -21 l 1,30,-1
 -42 -21 l 1,31,-1
 42 105 l 1,32,-1
 84 105 l 1,33,-1
 84 210 l 1,34,-1
 84 483 l 1,35,-1
 84 525 l 1,36,-1
 42 525 l 1,37,-1
 21 546 l 1,38,-1
 84 630 l 1,21,-1
EndSplineSet
Substitution2: "vowel diacritic tengwa" o.short
EndChar

StartChar: p
Encoding: 112 112 68
Width: 774
VWidth: 4300
GlyphClass: 2
Flags: W
LayerCount: 2
Fore
SplineSet
84 630 m 1,0,-1
 189 630 l 1,1,-1
 210 609 l 1,2,-1
 210 579.599609375 l 1,3,4
 243.599609375 600.599609375 243.599609375 600.599609375 285.599609375 615.299804688 c 128,-1,5
 327.599609375 630 327.599609375 630 378 630 c 0,6,7
 462 630 462 630 533.400390625 591.150390625 c 128,-1,8
 604.799804688 552.299804688 604.799804688 552.299804688 648.900390625 486.150390625 c 128,-1,9
 693 420 693 420 693 336 c 0,10,11
 693 254.099609375 693 254.099609375 670.950195312 198.450195312 c 128,-1,12
 648.900390625 142.799804688 648.900390625 142.799804688 615.299804688 105 c 1,13,-1
 630 105 l 2,14,15
 661.5 105 661.5 105 676.200195312 115.5 c 2,16,-1
 693 126 l 1,17,-1
 735 126 l 1,18,-1
 651 0 l 1,19,-1
 378 0 l 1,20,-1
 210 0 l 1,21,-1
 210 -210 l 1,22,-1
 210 -525 l 1,23,-1
 231 -525 l 1,24,-1
 252 -546 l 1,25,-1
 189 -630 l 1,26,-1
 105 -630 l 1,27,-1
 84 -609 l 1,28,-1
 84 -210 l 1,29,-1
 84 483 l 1,30,-1
 84 525 l 1,31,-1
 42 525 l 1,32,-1
 21 546 l 1,33,-1
 84 630 l 1,0,-1
336 525 m 0,34,35
 296.099609375 525 296.099609375 525 264.599609375 520.799804688 c 128,-1,36
 233.099609375 516.599609375 233.099609375 516.599609375 210 510.299804688 c 1,37,-1
 210 483 l 1,38,-1
 210 105 l 1,39,-1
 510.299804688 105 l 1,40,41
 533.400390625 138.599609375 533.400390625 138.599609375 550.200195312 189 c 128,-1,42
 567 239.400390625 567 239.400390625 567 315 c 0,43,44
 567 394.799804688 567 394.799804688 514.5 459.900390625 c 128,-1,45
 462 525 462 525 336 525 c 0,34,35
EndSplineSet
EndChar

StartChar: q
Encoding: 113 113 69
Width: 816
VWidth: 4300
GlyphClass: 2
Flags: W
LayerCount: 2
Fore
SplineSet
588 1260 m 1,0,-1
 672 1260 l 1,1,-1
 693 1239 l 1,2,-1
 693 840 l 1,3,-1
 693 210 l 1,4,-1
 693 105 l 1,5,-1
 714 105 l 2,6,7
 745.5 105 745.5 105 760.200195312 115.5 c 2,8,-1
 777 126 l 1,9,-1
 819 126 l 1,10,-1
 735 0 l 1,11,-1
 693 0 l 1,12,-1
 567 0 l 1,13,-1
 567 50.400390625 l 1,14,15
 533.400390625 29.400390625 533.400390625 29.400390625 491.400390625 14.7001953125 c 128,-1,16
 449.400390625 0 449.400390625 0 399 0 c 0,17,18
 315 0 315 0 243.599609375 38.849609375 c 128,-1,19
 172.200195312 77.7001953125 172.200195312 77.7001953125 128.099609375 143.849609375 c 128,-1,20
 84 210 84 210 84 294 c 0,21,22
 84 375.900390625 84 375.900390625 106.049804688 431.549804688 c 128,-1,23
 128.099609375 487.200195312 128.099609375 487.200195312 161.700195312 525 c 1,24,-1
 147 525 l 2,25,26
 115.5 525 115.5 525 98.7001953125 514.5 c 2,27,-1
 84 504 l 1,28,-1
 42 504 l 1,29,-1
 126 630 l 1,30,-1
 399 630 l 1,31,-1
 567 630 l 1,32,-1
 567 840 l 1,33,-1
 567 1155 l 1,34,35
 535.5 1155 535.5 1155 508.200195312 1134 c 2,36,-1
 483 1113 l 1,37,-1
 462 1134 l 1,38,-1
 588 1260 l 1,0,-1
266.700195312 525 m 1,39,40
 243.599609375 491.400390625 243.599609375 491.400390625 226.799804688 441 c 128,-1,41
 210 390.599609375 210 390.599609375 210 315 c 0,42,43
 210 237.299804688 210 237.299804688 262.5 171.150390625 c 128,-1,44
 315 105 315 105 441 105 c 0,45,46
 480.900390625 105 480.900390625 105 512.400390625 109.200195312 c 128,-1,47
 543.900390625 113.400390625 543.900390625 113.400390625 567 119.700195312 c 1,48,-1
 567 210 l 1,49,-1
 567 525 l 1,50,-1
 266.700195312 525 l 1,39,40
EndSplineSet
Ligature2: "geminated" c k
EndChar

StartChar: r
Encoding: 114 114 70
Width: 774
VWidth: 4300
GlyphClass: 2
Flags: W
LayerCount: 2
Fore
SplineSet
84 630 m 5,0,-1
 189 630 l 5,1,-1
 210 609 l 5,2,-1
 210 579.599609375 l 5,3,4
 243.599609375 600.599609375 243.599609375 600.599609375 285.599609375 615.299804688 c 132,-1,5
 327.599609375 630 327.599609375 630 378 630 c 4,6,7
 462 630 462 630 533.400390625 591.150390625 c 132,-1,8
 604.799804688 552.299804688 604.799804688 552.299804688 648.900390625 486.150390625 c 132,-1,9
 693 420 693 420 693 336 c 4,10,11
 693 235.200195312 693 235.200195312 661.5 171.150390625 c 132,-1,12
 630 107.099609375 630 107.099609375 582.75 72.4501953125 c 132,-1,13
 535.5 37.7998046875 535.5 37.7998046875 488.25 22.0498046875 c 132,-1,14
 441 6.2998046875 441 6.2998046875 409.5 2.099609375 c 6,15,-1
 378 0 l 5,16,-1
 378 21 l 5,17,18
 405.299804688 29.400390625 l 4,19,20
 434.700195312 37.7998046875 434.700195312 37.7998046875 472.5 66.150390625 c 132,-1,21
 510.299804688 94.5 510.299804688 94.5 538.650390625 153.299804688 c 132,-1,22
 567 212.099609375 567 212.099609375 567 315 c 4,23,24
 567 394.799804688 567 394.799804688 514.5 459.900390625 c 132,-1,25
 462 525 462 525 336 525 c 4,26,27
 296.099609375 525 296.099609375 525 264.599609375 520.799804688 c 132,-1,28
 233.099609375 516.599609375 233.099609375 516.599609375 210 510.299804688 c 5,29,-1
 210 483 l 5,30,-1
 210 210 l 5,31,-1
 210 0 l 5,32,-1
 63 0 l 6,33,34
 31.5 0 31.5 0 14.7001953125 -10.5 c 6,35,-1
 0 -21 l 5,36,-1
 -42 -21 l 5,37,-1
 42 105 l 5,38,-1
 84 105 l 5,39,-1
 84 210 l 5,40,-1
 84 483 l 5,41,-1
 84 525 l 5,42,-1
 42 525 l 5,43,-1
 21 546 l 5,44,-1
 84 630 l 5,0,-1
EndSplineSet
Substitution2: "Cons vowel" r.vowel
EndChar

StartChar: s
Encoding: 115 115 71
Width: 774
VWidth: 4300
GlyphClass: 2
Flags: W
LayerCount: 2
Fore
SplineSet
588 966 m 0,0,1
 588 871.5 588 871.5 550.200195312 804.299804688 c 128,-1,2
 512.400390625 737.099609375 512.400390625 737.099609375 455.700195312 684.599609375 c 128,-1,3
 399 632.099609375 399 632.099609375 342.299804688 580.650390625 c 128,-1,4
 285.599609375 529.200195312 285.599609375 529.200195312 247.799804688 466.200195312 c 128,-1,5
 210 403.200195312 210 403.200195312 210 315 c 0,6,7
 210 220.5 210 220.5 262.5 162.75 c 128,-1,8
 315 105 315 105 441 105 c 0,9,10
 535.5 105 535.5 105 572.25 147 c 128,-1,11
 609 189 609 189 609 315 c 0,12,13
 609 367.5 609 367.5 577.5 405.299804688 c 128,-1,14
 546 443.099609375 546 443.099609375 514.5 464.099609375 c 2,15,-1
 483 483 l 1,16,-1
 483 504 l 1,17,-1
 588 567 l 1,18,19
 613.200195312 539.700195312 l 0,20,21
 640.5 512.400390625 640.5 512.400390625 666.75 460.950195312 c 128,-1,22
 693 409.5 693 409.5 693 336 c 0,23,24
 693 273 693 273 665.700195312 213.150390625 c 128,-1,25
 638.400390625 153.299804688 638.400390625 153.299804688 593.25 105 c 128,-1,26
 548.099609375 56.7001953125 548.099609375 56.7001953125 497.700195312 28.349609375 c 128,-1,27
 447.299804688 0 447.299804688 0 399 0 c 0,28,29
 315 0 315 0 243.599609375 29.400390625 c 128,-1,30
 172.200195312 58.7998046875 172.200195312 58.7998046875 128.099609375 123.900390625 c 128,-1,31
 84 189 84 189 84 294 c 0,32,33
 84 375.900390625 84 375.900390625 123.900390625 434.700195312 c 128,-1,34
 163.799804688 493.5 163.799804688 493.5 223.650390625 543.900390625 c 128,-1,35
 283.5 594.299804688 283.5 594.299804688 343.349609375 648.900390625 c 128,-1,36
 403.200195312 703.5 403.200195312 703.5 443.099609375 773.849609375 c 128,-1,37
 483 844.200195312 483 844.200195312 483 945 c 0,38,39
 483 1039.5 483 1039.5 467.25 1089.90039062 c 128,-1,40
 451.5 1140.29980469 451.5 1140.29980469 436.799804688 1159.20019531 c 2,41,-1
 420 1176 l 1,42,-1
 420 1197 l 1,43,-1
 525 1260 l 1,44,-1
 541.799804688 1222.20019531 l 2,45,46
 556.5 1182.29980469 556.5 1182.29980469 572.25 1116.15039062 c 128,-1,47
 588 1050 588 1050 588 966 c 0,0,1
EndSplineSet
Substitution2: "Cons vowel" s.vowel
Substitution2: "S trail high" s_trail.high
Substitution2: "S trail low" s_trail.low
EndChar

StartChar: t
Encoding: 116 116 72
Width: 774
VWidth: 4300
GlyphClass: 2
Flags: W
HStem: -630 21G<85 204> 0 21<378 405.3> 525 105<219.287 494.431>
VStem: 84 126<-525 519.436> 567 126<147.099 449.694>
LayerCount: 2
Fore
SplineSet
84 630 m 1,0,-1
 189 630 l 1,1,-1
 210 609 l 1,2,-1
 210 579.599609375 l 1,3,4
 243.599609375 600.599609375 243.599609375 600.599609375 285.599609375 615.299804688 c 128,-1,5
 327.599609375 630 327.599609375 630 378 630 c 0,6,7
 462 630 462 630 533.400390625 591.150390625 c 128,-1,8
 604.799804688 552.299804688 604.799804688 552.299804688 648.900390625 486.150390625 c 128,-1,9
 693 420 693 420 693 336 c 0,10,11
 693 235.200195312 693 235.200195312 661.5 171.150390625 c 128,-1,12
 630 107.099609375 630 107.099609375 582.75 72.4501953125 c 128,-1,13
 535.5 37.7998046875 535.5 37.7998046875 488.25 22.0498046875 c 128,-1,14
 441 6.2998046875 441 6.2998046875 409.5 2.099609375 c 2,15,-1
 378 0 l 1,16,-1
 378 21 l 1,17,18
 405.299804688 29.400390625 l 0,19,20
 434.700195312 37.7998046875 434.700195312 37.7998046875 472.5 66.150390625 c 128,-1,21
 510.299804688 94.5 510.299804688 94.5 538.650390625 153.299804688 c 128,-1,22
 567 212.099609375 567 212.099609375 567 315 c 0,23,24
 567 394.799804688 567 394.799804688 514.5 459.900390625 c 128,-1,25
 462 525 462 525 336 525 c 0,26,27
 296.099609375 525 296.099609375 525 264.599609375 520.799804688 c 128,-1,28
 233.099609375 516.599609375 233.099609375 516.599609375 210 510.299804688 c 1,29,-1
 210 483 l 1,30,-1
 210 -210 l 1,31,-1
 210 -525 l 1,32,-1
 231 -525 l 1,33,-1
 252 -546 l 1,34,-1
 189 -630 l 1,35,-1
 105 -630 l 1,36,-1
 84 -609 l 1,37,-1
 84 -210 l 1,38,-1
 84 483 l 1,39,-1
 84 525 l 1,40,-1
 42 525 l 1,41,-1
 21 546 l 1,42,-1
 84 630 l 1,0,-1
EndSplineSet
EndChar

StartChar: u
Encoding: 117 117 73
Width: 354
VWidth: 4300
GlyphClass: 2
Flags: W
LayerCount: 2
Fore
SplineSet
84 861 m 1,0,-1
 42 882 l 1,1,2
 71.400390625 907.200195312 l 0,3,4
 100.799804688 930.299804688 100.799804688 930.299804688 130.200195312 969.150390625 c 128,-1,5
 159.599609375 1008 159.599609375 1008 159.599609375 1050 c 256,6,7
 159.599609375 1092 159.599609375 1092 140.700195312 1115.09960938 c 128,-1,8
 121.799804688 1138.20019531 121.799804688 1138.20019531 102.900390625 1146.59960938 c 2,9,-1
 84 1155 l 1,10,-1
 102.900390625 1192.79980469 l 1,11,-1
 126 1190.70019531 l 2,12,13
 149.099609375 1188.59960938 149.099609375 1188.59960938 178.5 1179.15039062 c 128,-1,14
 207.900390625 1169.70019531 207.900390625 1169.70019531 229.950195312 1144.5 c 128,-1,15
 252 1119.29980469 252 1119.29980469 252 1071 c 0,16,17
 252 1031.09960938 252 1031.09960938 226.799804688 994.349609375 c 128,-1,18
 201.599609375 957.599609375 201.599609375 957.599609375 168 927.150390625 c 128,-1,19
 134.400390625 896.700195312 134.400390625 896.700195312 121.799804688 888.299804688 c 2,20,-1
 84 861 l 1,0,-1
84 630 m 1,21,-1
 189 630 l 1,22,-1
 210 609 l 1,23,-1
 210 483 l 1,24,-1
 210 210 l 1,25,-1
 210 0 l 1,26,-1
 63 0 l 2,27,28
 31.5 0 31.5 0 14.7001953125 -10.5 c 2,29,-1
 0 -21 l 1,30,-1
 -42 -21 l 1,31,-1
 42 105 l 1,32,-1
 84 105 l 1,33,-1
 84 210 l 1,34,-1
 84 483 l 1,35,-1
 84 525 l 1,36,-1
 42 525 l 1,37,-1
 21 546 l 1,38,-1
 84 630 l 1,21,-1
EndSplineSet
Substitution2: "vowel diacritic tengwa" u.short
EndChar

StartChar: v
Encoding: 118 118 74
Width: 1194
VWidth: 4300
GlyphClass: 2
Flags: W
LayerCount: 2
Fore
SplineSet
105 1260 m 1,0,-1
 189 1260 l 1,1,-1
 210 1239 l 1,2,-1
 210 840 l 1,3,-1
 210 579.599609375 l 1,4,5
 243.599609375 600.599609375 243.599609375 600.599609375 285.599609375 615.299804688 c 128,-1,6
 327.599609375 630 327.599609375 630 378 630 c 0,7,8
 501.900390625 630 501.900390625 630 592.200195312 552.299804688 c 1,9,10
 627.900390625 579.599609375 627.900390625 579.599609375 680.400390625 604.799804688 c 128,-1,11
 732.900390625 630 732.900390625 630 798 630 c 0,12,13
 882 630 882 630 953.400390625 591.150390625 c 128,-1,14
 1024.79980469 552.299804688 1024.79980469 552.299804688 1068.90039062 486.150390625 c 128,-1,15
 1113 420 1113 420 1113 336 c 0,16,17
 1113 254.099609375 1113 254.099609375 1090.95019531 198.450195312 c 128,-1,18
 1068.90039062 142.799804688 1068.90039062 142.799804688 1035.29980469 105 c 1,19,-1
 1050 105 l 2,20,21
 1081.5 105 1081.5 105 1096.20019531 115.5 c 2,22,-1
 1113 126 l 1,23,-1
 1155 126 l 1,24,-1
 1071 0 l 1,25,-1
 210 0 l 1,26,-1
 63 0 l 2,27,28
 31.5 0 31.5 0 14.7001953125 -10.5 c 2,29,-1
 0 -21 l 1,30,-1
 -42 -21 l 1,31,-1
 42 105 l 1,32,-1
 84 105 l 1,33,-1
 84 210 l 1,34,-1
 84 840 l 1,35,-1
 84 1155 l 1,36,37
 52.5 1155 52.5 1155 27.2998046875 1134 c 2,38,-1
 0 1113 l 1,39,-1
 -21 1134 l 1,40,-1
 105 1260 l 1,0,-1
336 525 m 0,41,42
 296.099609375 525 296.099609375 525 264.599609375 520.799804688 c 128,-1,43
 233.099609375 516.599609375 233.099609375 516.599609375 210 510.299804688 c 1,44,-1
 210 210 l 1,45,-1
 210 105 l 1,46,-1
 510.299804688 105 l 1,47,48
 533.400390625 138.599609375 533.400390625 138.599609375 550.200195312 189 c 128,-1,49
 567 239.400390625 567 239.400390625 567 315 c 0,50,51
 567 394.799804688 567 394.799804688 514.5 459.900390625 c 128,-1,52
 462 525 462 525 336 525 c 0,41,42
756 525 m 0,53,54
 716.099609375 525 716.099609375 525 685.650390625 520.799804688 c 128,-1,55
 655.200195312 516.599609375 655.200195312 516.599609375 632.099609375 510.299804688 c 1,56,57
 661.5 474.599609375 661.5 474.599609375 677.25 430.5 c 128,-1,58
 693 386.400390625 693 386.400390625 693 336 c 0,59,60
 693 254.099609375 693 254.099609375 670.950195312 198.450195312 c 128,-1,61
 648.900390625 142.799804688 648.900390625 142.799804688 615.299804688 105 c 1,62,-1
 930.299804688 105 l 1,63,64
 953.400390625 138.599609375 953.400390625 138.599609375 970.200195312 189 c 128,-1,65
 987 239.400390625 987 239.400390625 987 315 c 0,66,67
 987 394.799804688 987 394.799804688 934.5 459.900390625 c 128,-1,68
 882 525 882 525 756 525 c 0,53,54
EndSplineSet
EndChar

StartChar: w
Encoding: 119 119 75
Width: 774
VWidth: 4300
GlyphClass: 2
Flags: W
LayerCount: 2
Fore
SplineSet
84 630 m 1,0,-1
 189 630 l 1,1,-1
 210 609 l 1,2,-1
 210 579.599609375 l 1,3,4
 243.599609375 600.599609375 243.599609375 600.599609375 285.599609375 615.299804688 c 128,-1,5
 327.599609375 630 327.599609375 630 378 630 c 0,6,7
 462 630 462 630 533.400390625 591.150390625 c 128,-1,8
 604.799804688 552.299804688 604.799804688 552.299804688 648.900390625 486.150390625 c 128,-1,9
 693 420 693 420 693 336 c 0,10,11
 693 254.099609375 693 254.099609375 670.950195312 198.450195312 c 128,-1,12
 648.900390625 142.799804688 648.900390625 142.799804688 615.299804688 105 c 1,13,-1
 630 105 l 2,14,15
 661.5 105 661.5 105 676.200195312 115.5 c 2,16,-1
 693 126 l 1,17,-1
 735 126 l 1,18,-1
 651 0 l 1,19,-1
 378 0 l 1,20,-1
 210 0 l 1,21,-1
 63 0 l 2,22,23
 31.5 0 31.5 0 14.7001953125 -10.5 c 2,24,-1
 0 -21 l 1,25,-1
 -42 -21 l 1,26,-1
 42 105 l 1,27,-1
 84 105 l 1,28,-1
 84 210 l 1,29,-1
 84 483 l 1,30,-1
 84 525 l 1,31,-1
 42 525 l 1,32,-1
 21 546 l 1,33,-1
 84 630 l 1,0,-1
336 525 m 0,34,35
 296.099609375 525 296.099609375 525 264.599609375 520.799804688 c 128,-1,36
 233.099609375 516.599609375 233.099609375 516.599609375 210 510.299804688 c 1,37,-1
 210 483 l 1,38,-1
 210 210 l 1,39,-1
 210 105 l 1,40,-1
 510.299804688 105 l 1,41,42
 533.400390625 138.599609375 533.400390625 138.599609375 550.200195312 189 c 128,-1,43
 567 239.400390625 567 239.400390625 567 315 c 0,44,45
 567 394.799804688 567 394.799804688 514.5 459.900390625 c 128,-1,46
 462 525 462 525 336 525 c 0,34,35
EndSplineSet
Substitution2: "Cons vowel" w_w
EndChar

StartChar: x
Encoding: 120 120 76
Width: 816
VWidth: 4300
GlyphClass: 2
Flags: W
LayerCount: 2
Fore
SplineSet
126 630 m 1,0,-1
 399 630 l 1,1,-1
 646.799804688 630 l 1,2,-1
 651 630 l 1,3,-1
 756 630 l 1,4,-1
 777 609 l 1,5,-1
 714 525 l 1,6,-1
 693 525 l 1,7,-1
 693 420 l 1,8,-1
 693 -210 l 1,9,-1
 693 -525 l 1,10,-1
 714 -525 l 1,11,-1
 735 -546 l 1,12,-1
 672 -630 l 1,13,-1
 588 -630 l 1,14,-1
 567 -609 l 1,15,-1
 567 -210 l 1,16,-1
 567 50.400390625 l 1,17,18
 533.400390625 29.400390625 533.400390625 29.400390625 491.400390625 14.7001953125 c 128,-1,19
 449.400390625 0 449.400390625 0 399 0 c 0,20,21
 396.900390625 0 396.900390625 0 392.700195312 0 c 0,22,23
 382.200195312 -56.7001953125 382.200195312 -56.7001953125 355.950195312 -96.599609375 c 128,-1,24
 329.700195312 -136.5 329.700195312 -136.5 301.349609375 -170.099609375 c 128,-1,25
 273 -203.700195312 273 -203.700195312 252 -241.5 c 128,-1,26
 231 -279.299804688 231 -279.299804688 231 -336 c 0,27,28
 231 -399 231 -399 265.650390625 -441 c 128,-1,29
 300.299804688 -483 300.299804688 -483 378 -483 c 0,30,31
 441 -483 441 -483 472.5 -462 c 2,32,-1
 504 -441 l 1,33,-1
 525 -462 l 1,34,35
 499.799804688 -487.200195312 l 0,36,37
 476.700195312 -514.5 476.700195312 -514.5 437.849609375 -540.75 c 128,-1,38
 399 -567 399 -567 357 -567 c 0,39,40
 247.799804688 -567 247.799804688 -567 186.900390625 -507.150390625 c 128,-1,41
 126 -447.299804688 126 -447.299804688 126 -336 c 0,42,43
 126 -277.200195312 126 -277.200195312 148.049804688 -242.549804688 c 128,-1,44
 170.099609375 -207.900390625 170.099609375 -207.900390625 201.599609375 -177.450195312 c 128,-1,45
 233.099609375 -147 233.099609375 -147 259.349609375 -102.900390625 c 128,-1,46
 285.599609375 -58.7998046875 285.599609375 -58.7998046875 291.900390625 16.7998046875 c 1,47,48
 203.700195312 48.2998046875 203.700195312 48.2998046875 143.849609375 121.799804688 c 128,-1,49
 84 195.299804688 84 195.299804688 84 294 c 0,50,51
 84 375.900390625 84 375.900390625 106.049804688 431.549804688 c 128,-1,52
 128.099609375 487.200195312 128.099609375 487.200195312 161.700195312 525 c 1,53,-1
 147 525 l 2,54,55
 115.5 525 115.5 525 98.7001953125 514.5 c 2,56,-1
 84 504 l 1,57,-1
 42 504 l 1,58,-1
 126 630 l 1,0,-1
266.700195312 525 m 1,59,60
 243.599609375 491.400390625 243.599609375 491.400390625 226.799804688 441 c 128,-1,61
 210 390.599609375 210 390.599609375 210 315 c 0,62,63
 210 237.299804688 210 237.299804688 262.5 171.150390625 c 128,-1,64
 315 105 315 105 441 105 c 0,65,66
 480.900390625 105 480.900390625 105 512.400390625 109.200195312 c 128,-1,67
 543.900390625 113.400390625 543.900390625 113.400390625 567 119.700195312 c 1,68,-1
 567 420 l 1,69,-1
 567 525 l 1,70,-1
 266.700195312 525 l 1,59,60
EndSplineSet
EndChar

StartChar: y
Encoding: 121 121 77
Width: 774
VWidth: 4300
GlyphClass: 2
Flags: W
LayerCount: 2
Fore
SplineSet
399 630 m 1,0,-1
 399 609 l 1,1,2
 371.700195312 600.599609375 l 0,3,4
 342.299804688 592.200195312 342.299804688 592.200195312 304.5 563.849609375 c 128,-1,5
 266.700195312 535.5 266.700195312 535.5 238.349609375 476.700195312 c 128,-1,6
 210 417.900390625 210 417.900390625 210 315 c 0,7,8
 210 237.299804688 210 237.299804688 262.5 171.150390625 c 128,-1,9
 315 105 315 105 441 105 c 0,10,11
 480.900390625 105 480.900390625 105 512.400390625 109.200195312 c 128,-1,12
 543.900390625 113.400390625 543.900390625 113.400390625 567 119.700195312 c 1,13,-1
 567 210 l 1,14,-1
 567 420 l 1,15,-1
 567 525 l 1,16,-1
 646.799804688 630 l 1,17,-1
 756 630 l 1,18,-1
 777 609 l 1,19,-1
 714 525 l 1,20,-1
 693 525 l 1,21,-1
 693 420 l 1,22,-1
 693 210 l 1,23,-1
 693 105 l 1,24,-1
 714 105 l 2,25,26
 745.5 105 745.5 105 760.200195312 115.5 c 2,27,-1
 777 126 l 1,28,-1
 819 126 l 1,29,-1
 735 0 l 1,30,-1
 693 0 l 1,31,-1
 567 0 l 1,32,-1
 567 50.400390625 l 1,33,34
 533.400390625 29.400390625 533.400390625 29.400390625 491.400390625 14.7001953125 c 128,-1,35
 449.400390625 0 449.400390625 0 399 0 c 0,36,37
 315 0 315 0 243.599609375 38.849609375 c 128,-1,38
 172.200195312 77.7001953125 172.200195312 77.7001953125 128.099609375 143.849609375 c 128,-1,39
 84 210 84 210 84 294 c 0,40,41
 84 394.799804688 84 394.799804688 115.5 458.849609375 c 128,-1,42
 147 522.900390625 147 522.900390625 194.25 557.549804688 c 128,-1,43
 241.5 592.200195312 241.5 592.200195312 288.75 607.950195312 c 128,-1,44
 336 623.700195312 336 623.700195312 350.700195312 625.799804688 c 2,45,-1
 399 630 l 1,0,-1
EndSplineSet
Substitution2: "Cons vowel" y.vowel
Substitution2: "vowel diacritic tengwa" y.short
EndChar

StartChar: z
Encoding: 122 122 78
Width: 774
VWidth: 4300
GlyphClass: 2
Flags: W
LayerCount: 2
Fore
SplineSet
525 1260 m 1,0,1
 541.799804688 1222.20019531 l 0,2,3
 556.5 1182.29980469 556.5 1182.29980469 572.25 1116.15039062 c 128,-1,4
 588 1050 588 1050 588 966 c 0,5,6
 588 871.5 588 871.5 550.200195312 804.299804688 c 128,-1,7
 512.400390625 737.099609375 512.400390625 737.099609375 455.700195312 684.599609375 c 128,-1,8
 399 632.099609375 399 632.099609375 342.299804688 580.650390625 c 128,-1,9
 285.599609375 529.200195312 285.599609375 529.200195312 247.799804688 466.200195312 c 128,-1,10
 210 403.200195312 210 403.200195312 210 315 c 0,11,12
 210 220.5 210 220.5 262.5 162.75 c 128,-1,13
 315 105 315 105 441 105 c 0,14,15
 535.5 105 535.5 105 572.25 147 c 128,-1,16
 609 189 609 189 609 315 c 0,17,18
 609 367.5 609 367.5 577.5 405.299804688 c 128,-1,19
 546 443.099609375 546 443.099609375 514.5 464.099609375 c 2,20,-1
 483 483 l 1,21,-1
 483 504 l 1,22,-1
 588 567 l 1,23,-1
 613.200195312 539.700195312 l 2,24,25
 640.5 512.400390625 640.5 512.400390625 666.75 460.950195312 c 128,-1,26
 693 409.5 693 409.5 693 336 c 0,27,28
 693 260.400390625 693 260.400390625 654.150390625 189 c 128,-1,29
 615.299804688 117.599609375 615.299804688 117.599609375 555.450195312 68.25 c 128,-1,30
 495.599609375 18.900390625 495.599609375 18.900390625 436.799804688 4.2001953125 c 1,31,32
 426.299804688 -54.599609375 426.299804688 -54.599609375 400.049804688 -94.5 c 128,-1,33
 373.799804688 -134.400390625 373.799804688 -134.400390625 344.400390625 -168 c 128,-1,34
 315 -201.599609375 315 -201.599609375 294 -240.450195312 c 128,-1,35
 273 -279.299804688 273 -279.299804688 273 -336 c 0,36,37
 273 -399 273 -399 307.650390625 -441 c 128,-1,38
 342.299804688 -483 342.299804688 -483 420 -483 c 0,39,40
 483 -483 483 -483 514.5 -462 c 2,41,-1
 546 -441 l 1,42,-1
 567 -462 l 1,43,-1
 543.900390625 -487.200195312 l 2,44,45
 518.700195312 -514.5 518.700195312 -514.5 479.849609375 -540.75 c 128,-1,46
 441 -567 441 -567 399 -567 c 0,47,48
 289.799804688 -567 289.799804688 -567 228.900390625 -507.150390625 c 128,-1,49
 168 -447.299804688 168 -447.299804688 168 -336 c 0,50,51
 168 -279.299804688 168 -279.299804688 190.049804688 -244.650390625 c 128,-1,52
 212.099609375 -210 212.099609375 -210 241.5 -179.549804688 c 128,-1,53
 270.900390625 -149.099609375 270.900390625 -149.099609375 297.150390625 -108.150390625 c 128,-1,54
 323.400390625 -67.2001953125 323.400390625 -67.2001953125 331.799804688 4.2001953125 c 1,55,56
 228.900390625 18.900390625 228.900390625 18.900390625 156.450195312 88.2001953125 c 128,-1,57
 84 157.5 84 157.5 84 294 c 0,58,59
 84 375.900390625 84 375.900390625 123.900390625 434.700195312 c 128,-1,60
 163.799804688 493.5 163.799804688 493.5 223.650390625 543.900390625 c 128,-1,61
 283.5 594.299804688 283.5 594.299804688 343.349609375 648.900390625 c 128,-1,62
 403.200195312 703.5 403.200195312 703.5 443.099609375 773.849609375 c 128,-1,63
 483 844.200195312 483 844.200195312 483 945 c 0,64,65
 483 1039.5 483 1039.5 467.25 1089.90039062 c 128,-1,66
 451.5 1140.29980469 451.5 1140.29980469 436.799804688 1159.20019531 c 2,67,-1
 420 1176 l 1,68,-1
 420 1197 l 1,69,-1
 525 1260 l 1,0,1
EndSplineSet
Substitution2: "Cons vowel" z.vowel
EndChar

StartChar: bar
Encoding: 124 124 79
Width: 354
VWidth: 4300
GlyphClass: 2
Flags: W
LayerCount: 2
Fore
SplineSet
84 630 m 1,0,-1
 189 630 l 1,1,-1
 210 609 l 1,2,-1
 210 483 l 1,3,-1
 210 -210 l 1,4,-1
 210 -525 l 1,5,-1
 231 -525 l 1,6,-1
 252 -546 l 1,7,-1
 189 -630 l 1,8,-1
 105 -630 l 1,9,-1
 84 -609 l 1,10,-1
 84 -210 l 1,11,-1
 84 483 l 1,12,-1
 84 525 l 1,13,-1
 42 525 l 1,14,-1
 21 546 l 1,15,-1
 84 630 l 1,0,-1
EndSplineSet
EndChar

StartChar: carrier.short
Encoding: 65539 -1 80
Width: 354
VWidth: 4300
GlyphClass: 2
Flags: W
LayerCount: 2
Fore
SplineSet
84 630 m 1,0,-1
 189 630 l 1,1,-1
 210 609 l 1,2,-1
 210 483 l 1,3,-1
 210 210 l 1,4,-1
 210 0 l 1,5,-1
 63 0 l 2,6,7
 31.5 0 31.5 0 14.7001953125 -10.5 c 2,8,-1
 0 -21 l 1,9,-1
 -42 -21 l 1,10,-1
 42 105 l 1,11,-1
 84 105 l 1,12,-1
 84 210 l 1,13,-1
 84 483 l 1,14,-1
 84 525 l 1,15,-1
 42 525 l 1,16,-1
 21 546 l 1,17,-1
 84 630 l 1,0,-1
EndSplineSet
EndChar

StartChar: carrier.long
Encoding: 65540 -1 81
Width: 354
VWidth: 4300
GlyphClass: 2
Flags: W
LayerCount: 2
Fore
SplineSet
84 630 m 1,0,-1
 189 630 l 1,1,-1
 210 609 l 1,2,-1
 210 483 l 1,3,-1
 210 -210 l 1,4,-1
 210 -525 l 1,5,-1
 231 -525 l 1,6,-1
 252 -546 l 1,7,-1
 189 -630 l 1,8,-1
 105 -630 l 1,9,-1
 84 -609 l 1,10,-1
 84 -210 l 1,11,-1
 84 483 l 1,12,-1
 84 525 l 1,13,-1
 42 525 l 1,14,-1
 21 546 l 1,15,-1
 84 630 l 1,0,-1
EndSplineSet
EndChar

StartChar: a.short
Encoding: 65541 -1 82
Width: 0
VWidth: 4300
GlyphClass: 2
Flags: W
LayerCount: 2
Fore
SplineSet
441 945 m 5,0,-1
 525 1071 l 5,1,-1
 630 987 l 5,2,-1
 546 861 l 5,3,-1
 441 945 l 5,0,-1
189 945 m 5,4,-1
 273 1071 l 5,5,-1
 378 987 l 5,6,-1
 294 861 l 5,7,-1
 189 945 l 5,4,-1
315 1071 m 5,8,-1
 399 1197 l 5,9,-1
 504 1113 l 5,10,-1
 420 987 l 5,11,-1
 315 1071 l 5,8,-1
EndSplineSet
Position2: "Single Positioning in Latin lookup 6 subtable" dx=-141 dy=0 dh=0 dv=0
Position2: "Single Positioning in Latin lookup 5 subtable" dx=48 dy=0 dh=0 dv=0
Position2: "Single Positioning in Latin lookup 4 subtable" dx=0 dy=0 dh=0 dv=0
Position2: "Single Positioning in Latin lookup 3 subtable" dx=164 dy=0 dh=0 dv=0
EndChar

StartChar: e.short
Encoding: 65543 -1 84
Width: 24
VWidth: 4300
GlyphClass: 2
Flags: W
LayerCount: 2
Fore
SplineSet
381.615234375 861 m 5,0,-1
 339.615234375 882 l 5,1,-1
 528.615234375 1197 l 5,2,-1
 633.615234375 1155 l 5,3,-1
 612.615234375 1113 l 5,4,-1
 381.615234375 861 l 5,0,-1
EndSplineSet
Substitution2: "silent e" e.silent
Position2: "Single Positioning in Latin lookup 6 subtable" dx=-97 dy=0 dh=0 dv=0
Position2: "Single Positioning in Latin lookup 5 subtable" dx=0 dy=0 dh=0 dv=0
Position2: "Single Positioning in Latin lookup 4 subtable" dx=0 dy=0 dh=0 dv=0
Position2: "Single Positioning in Latin lookup 3 subtable" dx=164 dy=0 dh=0 dv=0
EndChar

StartChar: e.long
Encoding: 65544 -1 85
Width: 0
VWidth: 4300
GlyphClass: 3
Flags: W
LayerCount: 2
Fore
SplineSet
298.200195312 924 m 1,0,-1
 254.099609375 932.400390625 l 1,1,-1
 354.900390625 1285.20019531 l 1,2,-1
 466.200195312 1272.59960938 l 1,3,-1
 457.799804688 1226.40039062 l 1,4,-1
 298.200195312 924 l 1,0,-1
441 861 m 1,5,-1
 399 882 l 1,6,-1
 588 1197 l 1,7,-1
 693 1155 l 1,8,-1
 672 1113 l 1,9,-1
 441 861 l 1,5,-1
EndSplineSet
Ligature2: "double signs" e e.short
Position2: "Single Positioning in Latin lookup 6 subtable" dx=-141 dy=0 dh=0 dv=0
Position2: "Single Positioning in Latin lookup 5 subtable" dx=48 dy=0 dh=0 dv=0
Position2: "Single Positioning in Latin lookup 4 subtable" dx=0 dy=0 dh=0 dv=0
Position2: "Single Positioning in Latin lookup 3 subtable" dx=164 dy=0 dh=0 dv=0
EndChar

StartChar: i.short
Encoding: 65545 -1 86
Width: 0
VWidth: 4300
GlyphClass: 2
Flags: W
LayerCount: 2
Fore
SplineSet
315 945 m 1,0,-1
 399 1071 l 1,1,-1
 504 987 l 1,2,-1
 420 861 l 1,3,-1
 315 945 l 1,0,-1
EndSplineSet
Position2: "Single Positioning in Latin lookup 6 subtable" dx=-48 dy=0 dh=0 dv=0
Position2: "Single Positioning in Latin lookup 5 subtable" dx=0 dy=0 dh=0 dv=0
Position2: "Single Positioning in Latin lookup 4 subtable" dx=0 dy=0 dh=0 dv=0
Position2: "Single Positioning in Latin lookup 3 subtable" dx=164 dy=0 dh=0 dv=0
EndChar

StartChar: i.long
Encoding: 65546 -1 87
Width: 0
VWidth: 4300
GlyphClass: 3
Flags: W
LayerCount: 2
Fore
SplineSet
420 945 m 1,0,-1
 504 1071 l 1,1,-1
 609 987 l 1,2,-1
 525 861 l 1,3,-1
 420 945 l 1,0,-1
210 945 m 1,4,-1
 294 1071 l 1,5,-1
 399 987 l 1,6,-1
 315 861 l 1,7,-1
 210 945 l 1,4,-1
EndSplineSet
Ligature2: "double signs" i i.short
Position2: "Single Positioning in Latin lookup 6 subtable" dx=-97 dy=0 dh=0 dv=0
Position2: "Single Positioning in Latin lookup 5 subtable" dx=48 dy=0 dh=0 dv=0
Position2: "Single Positioning in Latin lookup 4 subtable" dx=0 dy=0 dh=0 dv=0
Position2: "Single Positioning in Latin lookup 3 subtable" dx=164 dy=0 dh=0 dv=0
EndChar

StartChar: o.short
Encoding: 65547 -1 88
Width: -14
VWidth: 4300
GlyphClass: 2
Flags: W
LayerCount: 2
Fore
SplineSet
300.23046875 882 m 5,0,1
 314.930664062 917.700195312 l 4,2,3
 329.630859375 953.400390625 329.630859375 953.400390625 355.880859375 998.549804688 c 132,-1,4
 382.130859375 1043.70019531 382.130859375 1043.70019531 415.73046875 1078.34960938 c 132,-1,5
 449.330078125 1113 449.330078125 1113 489.23046875 1113 c 4,6,7
 541.73046875 1113 541.73046875 1113 569.030273438 1081.5 c 132,-1,8
 596.330078125 1050 596.330078125 1050 604.73046875 1018.5 c 6,9,-1
 615.23046875 987 l 5,10,-1
 573.23046875 966 l 5,11,-1
 569.030273438 976.5 l 6,12,13
 566.930664062 987 566.930664062 987 549.080078125 997.5 c 132,-1,14
 531.23046875 1008 531.23046875 1008 489.23046875 1008 c 4,15,16
 457.73046875 1008 457.73046875 1008 430.430664062 985.950195312 c 132,-1,17
 403.130859375 963.900390625 403.130859375 963.900390625 384.23046875 934.5 c 132,-1,18
 365.330078125 905.099609375 365.330078125 905.099609375 354.830078125 884.099609375 c 6,19,-1
 342.23046875 861 l 5,20,-1
 300.23046875 882 l 5,0,1
EndSplineSet
Position2: "Single Positioning in Latin lookup 6 subtable" dx=-97 dy=0 dh=0 dv=0
Position2: "Single Positioning in Latin lookup 5 subtable" dx=0 dy=0 dh=0 dv=0
Position2: "Single Positioning in Latin lookup 4 subtable" dx=0 dy=0 dh=0 dv=0
Position2: "Single Positioning in Latin lookup 3 subtable" dx=164 dy=0 dh=0 dv=0
EndChar

StartChar: o.long
Encoding: 65548 -1 89
Width: 0
VWidth: 4300
GlyphClass: 3
Flags: W
LayerCount: 2
Fore
SplineSet
262.5 928.200195312 m 1,0,-1
 262.5 928.200195312 l 1,1,2
 266.700195312 966 l 256,3,4
 270.900390625 1003.79980469 270.900390625 1003.79980469 285.599609375 1054.20019531 c 128,-1,5
 300.299804688 1104.59960938 300.299804688 1104.59960938 324.450195312 1147.65039062 c 128,-1,6
 348.599609375 1190.70019531 348.599609375 1190.70019531 386.400390625 1201.20019531 c 0,7,8
 436.799804688 1213.79980469 436.799804688 1213.79980469 471.450195312 1190.70019531 c 128,-1,9
 506.099609375 1167.59960938 506.099609375 1167.59960938 522.900390625 1138.20019531 c 2,10,-1
 539.700195312 1110.90039062 l 1,11,-1
 506.099609375 1081.5 l 1,12,-1
 499.799804688 1089.90039062 l 2,13,14
 493.5 1098.29980469 493.5 1098.29980469 473.549804688 1104.59960938 c 128,-1,15
 453.599609375 1110.90039062 453.599609375 1110.90039062 413.700195312 1100.40039062 c 0,16,17
 382.200195312 1092 382.200195312 1092 362.25 1063.65039062 c 128,-1,18
 342.299804688 1035.29980469 342.299804688 1035.29980469 330.75 1001.70019531 c 128,-1,19
 319.200195312 968.099609375 319.200195312 968.099609375 312.900390625 942.900390625 c 2,20,-1
 308.700195312 919.799804688 l 1,21,-1
 262.5 928.200195312 l 1,0,-1
399 882 m 1,22,-1
 413.700195312 917.700195312 l 2,23,24
 428.400390625 953.400390625 428.400390625 953.400390625 454.650390625 998.549804688 c 128,-1,25
 480.900390625 1043.70019531 480.900390625 1043.70019531 514.5 1078.34960938 c 128,-1,26
 548.099609375 1113 548.099609375 1113 588 1113 c 0,27,28
 640.5 1113 640.5 1113 667.799804688 1081.5 c 128,-1,29
 695.099609375 1050 695.099609375 1050 703.5 1018.5 c 2,30,-1
 714 987 l 1,31,-1
 672 966 l 1,32,-1
 667.799804688 976.5 l 2,33,34
 665.700195312 987 665.700195312 987 647.849609375 997.5 c 128,-1,35
 630 1008 630 1008 588 1008 c 0,36,37
 556.5 1008 556.5 1008 529.200195312 985.950195312 c 128,-1,38
 501.900390625 963.900390625 501.900390625 963.900390625 483 934.5 c 128,-1,39
 464.099609375 905.099609375 464.099609375 905.099609375 453.599609375 884.099609375 c 2,40,-1
 441 861 l 1,41,-1
 399 882 l 1,22,-1
EndSplineSet
Ligature2: "double signs" o o.short
Position2: "Single Positioning in Latin lookup 6 subtable" dx=-141 dy=0 dh=0 dv=0
Position2: "Single Positioning in Latin lookup 5 subtable" dx=48 dy=0 dh=0 dv=0
Position2: "Single Positioning in Latin lookup 4 subtable" dx=0 dy=0 dh=0 dv=0
Position2: "Single Positioning in Latin lookup 3 subtable" dx=164 dy=0 dh=0 dv=0
EndChar

StartChar: u.short
Encoding: 65549 -1 90
Width: 0
VWidth: 4300
GlyphClass: 2
Flags: W
LayerCount: 2
Fore
SplineSet
357 861 m 5,0,-1
 315 882 l 5,1,2
 344.400390625 907.200195312 l 4,3,4
 373.799804688 930.299804688 373.799804688 930.299804688 403.200195312 969.150390625 c 132,-1,5
 432.599609375 1008 432.599609375 1008 432.599609375 1050 c 260,6,7
 432.599609375 1092 432.599609375 1092 413.700195312 1115.09960938 c 132,-1,8
 394.799804688 1138.20019531 394.799804688 1138.20019531 375.900390625 1146.59960938 c 6,9,-1
 357 1155 l 5,10,-1
 375.900390625 1192.79980469 l 5,11,-1
 399 1190.70019531 l 6,12,13
 422.099609375 1188.59960938 422.099609375 1188.59960938 451.5 1179.15039062 c 132,-1,14
 480.900390625 1169.70019531 480.900390625 1169.70019531 502.950195312 1144.5 c 132,-1,15
 525 1119.29980469 525 1119.29980469 525 1071 c 4,16,17
 525 1031.09960938 525 1031.09960938 499.799804688 994.349609375 c 132,-1,18
 474.599609375 957.599609375 474.599609375 957.599609375 441 927.150390625 c 132,-1,19
 407.400390625 896.700195312 407.400390625 896.700195312 394.799804688 888.299804688 c 6,20,-1
 357 861 l 5,0,-1
EndSplineSet
Position2: "Single Positioning in Latin lookup 6 subtable" dx=-97 dy=0 dh=0 dv=0
Position2: "Single Positioning in Latin lookup 5 subtable" dx=0 dy=0 dh=0 dv=0
Position2: "Single Positioning in Latin lookup 4 subtable" dx=0 dy=0 dh=0 dv=0
Position2: "Single Positioning in Latin lookup 3 subtable" dx=164 dy=0 dh=0 dv=0
EndChar

StartChar: u.long
Encoding: 65550 -1 91
Width: 0
VWidth: 4300
GlyphClass: 3
Flags: W
LayerCount: 2
Fore
SplineSet
441 861 m 1,0,-1
 399 882 l 1,1,2
 428.400390625 907.200195312 l 0,3,4
 457.799804688 930.299804688 457.799804688 930.299804688 487.200195312 969.150390625 c 128,-1,5
 516.599609375 1008 516.599609375 1008 516.599609375 1050 c 256,6,7
 516.599609375 1092 516.599609375 1092 497.700195312 1115.09960938 c 128,-1,8
 478.799804688 1138.20019531 478.799804688 1138.20019531 459.900390625 1146.59960938 c 2,9,-1
 441 1155 l 1,10,-1
 459.900390625 1192.79980469 l 1,11,-1
 483 1190.70019531 l 2,12,13
 506.099609375 1188.59960938 506.099609375 1188.59960938 535.5 1179.15039062 c 128,-1,14
 564.900390625 1169.70019531 564.900390625 1169.70019531 586.950195312 1144.5 c 128,-1,15
 609 1119.29980469 609 1119.29980469 609 1071 c 0,16,17
 609 1031.09960938 609 1031.09960938 583.799804688 994.349609375 c 128,-1,18
 558.599609375 957.599609375 558.599609375 957.599609375 525 927.150390625 c 128,-1,19
 491.400390625 896.700195312 491.400390625 896.700195312 478.799804688 888.299804688 c 2,20,-1
 441 861 l 1,0,-1
308.700195312 917.700195312 m 1,21,-1
 264.599609375 926.099609375 l 1,22,-1
 287.700195312 957.599609375 l 2,23,24
 308.700195312 989.099609375 308.700195312 989.099609375 326.549804688 1034.25 c 128,-1,25
 344.400390625 1079.40039062 344.400390625 1079.40039062 333.900390625 1119.29980469 c 256,26,27
 323.400390625 1159.20019531 323.400390625 1159.20019531 299.25 1177.04980469 c 128,-1,28
 275.099609375 1194.90039062 275.099609375 1194.90039062 254.099609375 1197 c 2,29,-1
 233.099609375 1201.20019531 l 1,30,-1
 243.599609375 1243.20019531 l 1,31,-1
 266.700195312 1247.40039062 l 2,32,33
 287.700195312 1251.59960938 287.700195312 1251.59960938 318.150390625 1249.5 c 128,-1,34
 348.599609375 1247.40039062 348.599609375 1247.40039062 376.950195312 1228.5 c 128,-1,35
 405.299804688 1209.59960938 405.299804688 1209.59960938 417.900390625 1163.40039062 c 0,36,37
 428.400390625 1125.59960938 428.400390625 1125.59960938 413.700195312 1082.54980469 c 128,-1,38
 399 1039.5 399 1039.5 373.799804688 1002.75 c 128,-1,39
 348.599609375 966 348.599609375 966 338.099609375 953.400390625 c 2,40,-1
 308.700195312 917.700195312 l 1,21,-1
EndSplineSet
Ligature2: "double signs" u u.short
Position2: "Single Positioning in Latin lookup 6 subtable" dx=-141 dy=0 dh=0 dv=0
Position2: "Single Positioning in Latin lookup 5 subtable" dx=48 dy=0 dh=0 dv=0
Position2: "Single Positioning in Latin lookup 4 subtable" dx=0 dy=0 dh=0 dv=0
Position2: "Single Positioning in Latin lookup 3 subtable" dx=164 dy=0 dh=0 dv=0
EndChar

StartChar: y.short
Encoding: 65551 -1 92
Width: 0
VWidth: 4300
GlyphClass: 2
Flags: W
LayerCount: 2
Fore
SplineSet
273 1134 m 1,0,-1
 436.799804688 995.400390625 l 1,1,-1
 546 1155 l 1,2,-1
 588 1113 l 1,3,-1
 420 861 l 1,4,-1
 210 1029 l 1,5,-1
 273 1134 l 1,0,-1
EndSplineSet
Position2: "Single Positioning in Latin lookup 6 subtable" dx=-97 dy=0 dh=0 dv=0
Position2: "Single Positioning in Latin lookup 5 subtable" dx=48 dy=0 dh=0 dv=0
Position2: "Single Positioning in Latin lookup 4 subtable" dx=0 dy=0 dh=0 dv=0
Position2: "Single Positioning in Latin lookup 3 subtable" dx=164 dy=0 dh=0 dv=0
EndChar

StartChar: e.silent
Encoding: 65553 -1 94
Width: 0
VWidth: 4300
GlyphClass: 2
Flags: W
LayerCount: 2
Fore
SplineSet
-462 -357 m 5,0,-1
 -378 -231 l 5,1,-1
 -273 -315 l 5,2,-1
 -357 -441 l 5,3,-1
 -462 -357 l 5,0,-1
EndSplineSet
Position2: "Single Positioning in Latin lookup 2 subtable" dx=116 dy=0 dh=0 dv=0
Position2: "Single Positioning in Latin lookup 1 subtable" dx=0 dy=0 dh=0 dv=0
Position2: "Single Positioning in Latin lookup 0 subtable" dx=-164 dy=0 dh=0 dv=0
EndChar

StartChar: c_h.soft
Encoding: 65554 -1 95
Width: 774
VWidth: 4300
GlyphClass: 3
Flags: W
LayerCount: 2
Fore
SplineSet
399 630 m 1,0,-1
 399 609 l 1,1,2
 371.700195312 600.599609375 l 0,3,4
 342.299804688 592.200195312 342.299804688 592.200195312 304.5 563.849609375 c 128,-1,5
 266.700195312 535.5 266.700195312 535.5 238.349609375 476.700195312 c 128,-1,6
 210 417.900390625 210 417.900390625 210 315 c 0,7,8
 210 237.299804688 210 237.299804688 262.5 171.150390625 c 128,-1,9
 315 105 315 105 441 105 c 0,10,11
 480.900390625 105 480.900390625 105 512.400390625 109.200195312 c 128,-1,12
 543.900390625 113.400390625 543.900390625 113.400390625 567 119.700195312 c 1,13,-1
 567 420 l 1,14,-1
 567 525 l 1,15,-1
 646.799804688 630 l 1,16,-1
 756 630 l 1,17,-1
 777 609 l 1,18,-1
 714 525 l 1,19,-1
 693 525 l 1,20,-1
 693 420 l 1,21,-1
 693 -210 l 1,22,-1
 693 -525 l 1,23,-1
 714 -525 l 1,24,-1
 735 -546 l 1,25,-1
 672 -630 l 1,26,-1
 588 -630 l 1,27,-1
 567 -609 l 1,28,-1
 567 -210 l 1,29,-1
 567 50.400390625 l 1,30,31
 533.400390625 29.400390625 533.400390625 29.400390625 491.400390625 14.7001953125 c 128,-1,32
 449.400390625 0 449.400390625 0 399 0 c 0,33,34
 315 0 315 0 243.599609375 38.849609375 c 128,-1,35
 172.200195312 77.7001953125 172.200195312 77.7001953125 128.099609375 143.849609375 c 128,-1,36
 84 210 84 210 84 294 c 0,37,38
 84 394.799804688 84 394.799804688 115.5 458.849609375 c 128,-1,39
 147 522.900390625 147 522.900390625 194.25 557.549804688 c 128,-1,40
 241.5 592.200195312 241.5 592.200195312 288.75 607.950195312 c 128,-1,41
 336 623.700195312 336 623.700195312 350.700195312 625.799804688 c 2,42,-1
 399 630 l 1,0,-1
EndSplineSet
Ligature2: "common ligs" c h
Ligature2: "common ligs" C h
EndChar

StartChar: g_h
Encoding: 65555 -1 96
Width: 1194
VWidth: 4300
GlyphClass: 3
Flags: W
LayerCount: 2
Fore
SplineSet
1008 1260 m 1,0,-1
 1092 1260 l 1,1,-1
 1113 1239 l 1,2,-1
 1113 840 l 1,3,-1
 1113 210 l 1,4,-1
 1113 105 l 1,5,-1
 1134 105 l 2,6,7
 1163.40039062 105 1163.40039062 105 1180.20019531 115.5 c 2,8,-1
 1197 126 l 1,9,-1
 1239 126 l 1,10,-1
 1155 0 l 1,11,-1
 1113 0 l 1,12,-1
 987 0 l 1,13,-1
 987 50.400390625 l 1,14,15
 953.400390625 29.400390625 953.400390625 29.400390625 911.400390625 14.7001953125 c 128,-1,16
 869.400390625 0 869.400390625 0 819 0 c 0,17,18
 695.099609375 0 695.099609375 0 604.799804688 77.7001953125 c 1,19,20
 569.099609375 50.400390625 569.099609375 50.400390625 516.599609375 25.2001953125 c 128,-1,21
 464.099609375 0 464.099609375 0 399 0 c 0,22,23
 315 0 315 0 243.599609375 38.849609375 c 128,-1,24
 172.200195312 77.7001953125 172.200195312 77.7001953125 128.099609375 143.849609375 c 128,-1,25
 84 210 84 210 84 294 c 0,26,27
 84 375.900390625 84 375.900390625 106.049804688 431.549804688 c 128,-1,28
 128.099609375 487.200195312 128.099609375 487.200195312 161.700195312 525 c 1,29,-1
 147 525 l 2,30,31
 115.5 525 115.5 525 98.7001953125 514.5 c 2,32,-1
 84 504 l 1,33,-1
 42 504 l 1,34,-1
 126 630 l 1,35,-1
 399 630 l 1,36,-1
 819 630 l 1,37,-1
 987 630 l 1,38,-1
 987 840 l 1,39,-1
 987 1155 l 1,40,41
 955.5 1155 955.5 1155 928.200195312 1134 c 2,42,-1
 903 1113 l 1,43,-1
 882 1134 l 1,44,-1
 1008 1260 l 1,0,-1
266.700195312 525 m 1,45,46
 243.599609375 491.400390625 243.599609375 491.400390625 226.799804688 441 c 128,-1,47
 210 390.599609375 210 390.599609375 210 315 c 0,48,49
 210 237.299804688 210 237.299804688 262.5 171.150390625 c 128,-1,50
 315 105 315 105 441 105 c 0,51,52
 480.900390625 105 480.900390625 105 511.349609375 109.200195312 c 128,-1,53
 541.799804688 113.400390625 541.799804688 113.400390625 564.900390625 119.700195312 c 1,54,55
 535.5 155.400390625 535.5 155.400390625 519.75 199.5 c 128,-1,56
 504 243.599609375 504 243.599609375 504 294 c 0,57,58
 504 375.900390625 504 375.900390625 526.049804688 431.549804688 c 128,-1,59
 548.099609375 487.200195312 548.099609375 487.200195312 581.700195312 525 c 1,60,-1
 266.700195312 525 l 1,45,46
686.700195312 525 m 1,61,62
 663.599609375 491.400390625 663.599609375 491.400390625 646.799804688 441 c 128,-1,63
 630 390.599609375 630 390.599609375 630 315 c 0,64,65
 630 237.299804688 630 237.299804688 682.5 171.150390625 c 128,-1,66
 735 105 735 105 861 105 c 0,67,68
 900.900390625 105 900.900390625 105 932.400390625 109.200195312 c 128,-1,69
 963.900390625 113.400390625 963.900390625 113.400390625 987 119.700195312 c 1,70,-1
 987 210 l 1,71,-1
 987 525 l 1,72,-1
 686.700195312 525 l 1,61,62
EndSplineSet
Ligature2: "common ligs" g h
LCarets2: 1 0
Ligature2: "common ligs" G h
EndChar

StartChar: l_d
Encoding: 65556 -1 97
Width: 979
VWidth: 5159
GlyphClass: 3
Flags: W
LayerCount: 2
Fore
SplineSet
932.400390625 781.200195312 m 1,0,-1
 982.799804688 781.200195312 l 1,1,-1
 882 630 l 1,2,-1
 478.799804688 630 l 1,3,-1
 320.040039062 630 l 1,4,5
 292.319335938 589.680664062 292.319335938 589.680664062 272.16015625 529.200195312 c 128,-1,6
 252 468.719726562 252 468.719726562 252 378 c 0,7,8
 252 284.759765625 252 284.759765625 315 205.380859375 c 128,-1,9
 378 126 378 126 529.200195312 126 c 256,10,11
 680.400390625 126 680.400390625 126 781.200195312 56.7001953125 c 128,-1,12
 882 -12.599609375 882 -12.599609375 882 -126 c 0,13,14
 882 -201.599609375 882 -201.599609375 822.780273438 -277.200195312 c 128,-1,15
 763.559570312 -352.799804688 763.559570312 -352.799804688 671.580078125 -403.200195312 c 128,-1,16
 579.599609375 -453.599609375 579.599609375 -453.599609375 478.799804688 -453.599609375 c 0,17,18
 390.599609375 -453.599609375 390.599609375 -453.599609375 328.859375 -422.099609375 c 128,-1,19
 267.119140625 -390.599609375 267.119140625 -390.599609375 234.359375 -360.359375 c 2,20,-1
 201.599609375 -327.599609375 l 1,21,-1
 277.200195312 -201.599609375 l 1,22,-1
 302.400390625 -201.599609375 l 1,23,24
 327.599609375 -239.400390625 l 0,25,26
 350.280273438 -277.200195312 350.280273438 -277.200195312 395.640625 -315 c 128,-1,27
 441 -352.799804688 441 -352.799804688 504 -352.799804688 c 0,28,29
 655.200195312 -352.799804688 655.200195312 -352.799804688 705.599609375 -308.700195312 c 128,-1,30
 756 -264.599609375 756 -264.599609375 756 -151.200195312 c 0,31,32
 756 -100.799804688 756 -100.799804688 713.16015625 -66.7802734375 c 128,-1,33
 670.319335938 -32.759765625 670.319335938 -32.759765625 606.059570312 -16.380859375 c 128,-1,34
 541.799804688 0 541.799804688 0 478.799804688 0 c 0,35,36
 378 0 378 0 292.319335938 46.619140625 c 128,-1,37
 206.640625 93.240234375 206.640625 93.240234375 153.719726562 172.619140625 c 128,-1,38
 100.799804688 252 100.799804688 252 100.799804688 352.799804688 c 0,39,40
 100.799804688 451.080078125 100.799804688 451.080078125 127.259765625 517.859375 c 128,-1,41
 153.719726562 584.640625 153.719726562 584.640625 194.040039062 630 c 1,42,-1
 176.400390625 630 l 2,43,44
 138.599609375 630 138.599609375 630 118.440429688 617.400390625 c 2,45,-1
 100.799804688 604.799804688 l 1,46,-1
 50.400390625 604.799804688 l 1,47,-1
 151.200195312 756 l 1,48,-1
 194.040039062 756 l 1,49,-1
 478.799804688 756 l 1,50,-1
 544.319335938 756 l 2,51,52
 607.319335938 756 607.319335938 756 695.51953125 756 c 128,-1,53
 783.719726562 756 783.719726562 756 856.799804688 756 c 0,54,55
 894.599609375 756 894.599609375 756 902.16015625 763.559570312 c 2,56,-1
 932.400390625 781.200195312 l 1,0,-1
EndSplineSet
Ligature2: "common ligs" l d
EndChar

StartChar: n_g
Encoding: 65557 -1 98
Width: 1194
VWidth: 4300
GlyphClass: 3
Flags: W
LayerCount: 2
Fore
SplineSet
126 630 m 1,0,-1
 1066.79980469 630 l 1,1,-1
 1071 630 l 1,2,-1
 1176 630 l 1,3,-1
 1197 609 l 1,4,-1
 1134 525 l 1,5,-1
 1113 525 l 1,6,-1
 1113 420 l 1,7,-1
 1113 210 l 1,8,-1
 1113 105 l 1,9,-1
 1134 105 l 2,10,11
 1163.40039062 105 1163.40039062 105 1180.20019531 115.5 c 2,12,-1
 1197 126 l 1,13,-1
 1239 126 l 1,14,-1
 1155 0 l 1,15,-1
 1113 0 l 1,16,-1
 987 0 l 1,17,-1
 987 50.400390625 l 1,18,19
 953.400390625 29.400390625 953.400390625 29.400390625 911.400390625 14.7001953125 c 128,-1,20
 869.400390625 0 869.400390625 0 819 0 c 0,21,22
 695.099609375 0 695.099609375 0 604.799804688 77.7001953125 c 1,23,24
 569.099609375 50.400390625 569.099609375 50.400390625 516.599609375 25.2001953125 c 128,-1,25
 464.099609375 0 464.099609375 0 399 0 c 0,26,27
 315 0 315 0 243.599609375 38.849609375 c 128,-1,28
 172.200195312 77.7001953125 172.200195312 77.7001953125 128.099609375 143.849609375 c 128,-1,29
 84 210 84 210 84 294 c 0,30,31
 84 375.900390625 84 375.900390625 106.049804688 431.549804688 c 128,-1,32
 128.099609375 487.200195312 128.099609375 487.200195312 161.700195312 525 c 1,33,-1
 147 525 l 2,34,35
 115.5 525 115.5 525 98.7001953125 514.5 c 2,36,-1
 84 504 l 1,37,-1
 42 504 l 1,38,-1
 126 630 l 1,0,-1
266.700195312 525 m 1,39,40
 243.599609375 491.400390625 243.599609375 491.400390625 226.799804688 441 c 128,-1,41
 210 390.599609375 210 390.599609375 210 315 c 0,42,43
 210 237.299804688 210 237.299804688 262.5 171.150390625 c 128,-1,44
 315 105 315 105 441 105 c 0,45,46
 480.900390625 105 480.900390625 105 511.349609375 109.200195312 c 128,-1,47
 541.799804688 113.400390625 541.799804688 113.400390625 564.900390625 119.700195312 c 1,48,49
 535.5 155.400390625 535.5 155.400390625 519.75 199.5 c 128,-1,50
 504 243.599609375 504 243.599609375 504 294 c 0,51,52
 504 375.900390625 504 375.900390625 526.049804688 431.549804688 c 128,-1,53
 548.099609375 487.200195312 548.099609375 487.200195312 581.700195312 525 c 1,54,-1
 266.700195312 525 l 1,39,40
686.700195312 525 m 1,55,56
 663.599609375 491.400390625 663.599609375 491.400390625 646.799804688 441 c 128,-1,57
 630 390.599609375 630 390.599609375 630 315 c 0,58,59
 630 237.299804688 630 237.299804688 682.5 171.150390625 c 128,-1,60
 735 105 735 105 861 105 c 0,61,62
 900.900390625 105 900.900390625 105 932.400390625 109.200195312 c 128,-1,63
 963.900390625 113.400390625 963.900390625 113.400390625 987 119.700195312 c 1,64,-1
 987 210 l 1,65,-1
 987 420 l 1,66,-1
 987 525 l 1,67,-1
 686.700195312 525 l 1,55,56
EndSplineSet
LCarets2: 1 0
Ligature2: "common ligs" pren.short g
Ligature2: "common ligs" n g
Ligature2: "common ligs" pren.long g
EndChar

StartChar: p_h
Encoding: 65558 -1 99
Width: 774
VWidth: 4300
GlyphClass: 3
Flags: W
LayerCount: 2
Fore
SplineSet
105 1260 m 1,0,-1
 189 1260 l 1,1,-1
 210 1239 l 1,2,-1
 210 840 l 1,3,-1
 210 579.599609375 l 1,4,5
 243.599609375 600.599609375 243.599609375 600.599609375 285.599609375 615.299804688 c 128,-1,6
 327.599609375 630 327.599609375 630 378 630 c 0,7,8
 462 630 462 630 533.400390625 591.150390625 c 128,-1,9
 604.799804688 552.299804688 604.799804688 552.299804688 648.900390625 486.150390625 c 128,-1,10
 693 420 693 420 693 336 c 0,11,12
 693 254.099609375 693 254.099609375 670.950195312 198.450195312 c 128,-1,13
 648.900390625 142.799804688 648.900390625 142.799804688 615.299804688 105 c 1,14,-1
 630 105 l 2,15,16
 661.5 105 661.5 105 676.200195312 115.5 c 2,17,-1
 693 126 l 1,18,-1
 735 126 l 1,19,-1
 651 0 l 1,20,-1
 378 0 l 1,21,-1
 210 0 l 1,22,-1
 210 -210 l 1,23,-1
 210 -525 l 1,24,-1
 231 -525 l 1,25,-1
 252 -546 l 1,26,-1
 189 -630 l 1,27,-1
 105 -630 l 1,28,-1
 84 -609 l 1,29,-1
 84 -210 l 1,30,-1
 84 840 l 1,31,-1
 84 1155 l 1,32,33
 52.5 1155 52.5 1155 27.2998046875 1134 c 2,34,-1
 0 1113 l 1,35,-1
 -21 1134 l 1,36,-1
 105 1260 l 1,0,-1
336 525 m 0,37,38
 296.099609375 525 296.099609375 525 264.599609375 520.799804688 c 128,-1,39
 233.099609375 516.599609375 233.099609375 516.599609375 210 510.299804688 c 1,40,-1
 210 105 l 1,41,-1
 510.299804688 105 l 1,42,43
 533.400390625 138.599609375 533.400390625 138.599609375 550.200195312 189 c 128,-1,44
 567 239.400390625 567 239.400390625 567 315 c 0,45,46
 567 394.799804688 567 394.799804688 514.5 459.900390625 c 128,-1,47
 462 525 462 525 336 525 c 0,37,38
EndSplineSet
Ligature2: "common ligs" P h
Ligature2: "common ligs" p h
EndChar

StartChar: r_d
Encoding: 65559 -1 100
Width: 774
VWidth: 4300
GlyphClass: 3
Flags: W
LayerCount: 2
Fore
SplineSet
84 630 m 1,0,-1
 168 630 l 1,1,-1
 189 609 l 1,2,-1
 434.700195312 77.7001953125 l 1,3,-1
 525 168 l 2,4,5
 573.299804688 214.200195312 573.299804688 214.200195312 580.650390625 285.599609375 c 128,-1,6
 588 357 588 357 588 420 c 0,7,8
 588 466.200195312 588 466.200195312 559.650390625 506.099609375 c 128,-1,9
 531.299804688 546 531.299804688 546 483 546 c 0,10,11
 388.5 546 388.5 546 350.700195312 525 c 2,12,-1
 315 504 l 1,13,-1
 294 525 l 1,14,15
 319.200195312 552.299804688 l 0,16,17
 346.5 577.5 346.5 577.5 393.75 603.75 c 128,-1,18
 441 630 441 630 504 630 c 0,19,20
 598.5 630 598.5 630 656.25 572.25 c 128,-1,21
 714 514.5 714 514.5 714 420 c 0,22,23
 714 308.700195312 714 308.700195312 664.650390625 240.450195312 c 128,-1,24
 615.299804688 172.200195312 615.299804688 172.200195312 567 126 c 2,25,-1
 273 -168 l 2,26,27
 226.799804688 -216.299804688 226.799804688 -216.299804688 218.400390625 -286.650390625 c 128,-1,28
 210 -357 210 -357 210 -420 c 0,29,30
 210 -468.299804688 210 -468.299804688 239.400390625 -507.150390625 c 128,-1,31
 268.799804688 -546 268.799804688 -546 315 -546 c 0,32,33
 409.5 -546 409.5 -546 445.200195312 -525 c 2,34,-1
 483 -504 l 1,35,-1
 504 -525 l 1,36,-1
 478.799804688 -552.299804688 l 2,37,38
 451.5 -577.5 451.5 -577.5 404.25 -603.75 c 128,-1,39
 357 -630 357 -630 294 -630 c 0,40,41
 199.5 -630 199.5 -630 141.75 -572.25 c 128,-1,42
 84 -514.5 84 -514.5 84 -420 c 0,43,44
 84 -310.799804688 84 -310.799804688 134.400390625 -242.549804688 c 128,-1,45
 184.799804688 -174.299804688 184.799804688 -174.299804688 231 -126 c 2,46,-1
 329.700195312 -27.2998046875 l 1,47,-1
 289.799804688 58.7998046875 l 1,48,-1
 105 -126 l 2,49,50
 73.5 -157.5 73.5 -157.5 60.900390625 -191.099609375 c 128,-1,51
 48.2998046875 -224.700195312 48.2998046875 -224.700195312 44.099609375 -247.799804688 c 2,52,-1
 42 -273 l 1,53,-1
 -21 -357 l 1,54,-1
 -63 -357 l 1,55,-1
 -56.7001953125 -315 l 2,56,57
 -52.5 -273 -52.5 -273 -26.25 -210 c 128,-1,58
 0 -147 0 -147 63 -84 c 2,59,-1
 264.599609375 117.599609375 l 1,60,-1
 84 525 l 1,61,-1
 42 525 l 1,62,-1
 21 546 l 1,63,-1
 84 630 l 1,0,-1
EndSplineSet
Ligature2: "common ligs" r d
EndChar

StartChar: s_h
Encoding: 65560 -1 101
Width: 774
VWidth: 4300
GlyphClass: 3
Flags: W
LayerCount: 2
Fore
SplineSet
630 1260 m 1,0,-1
 714 1260 l 1,1,-1
 735 1239 l 1,2,-1
 735 840 l 1,3,-1
 735 210 l 1,4,-1
 735 105 l 1,5,-1
 756 105 l 2,6,7
 787.5 105 787.5 105 804.299804688 115.5 c 2,8,-1
 819 126 l 1,9,-1
 861 126 l 1,10,-1
 777 0 l 1,11,-1
 735 0 l 1,12,-1
 609 0 l 1,13,-1
 609 81.900390625 l 1,14,15
 573.299804688 52.5 573.299804688 52.5 519.75 26.25 c 128,-1,16
 466.200195312 0 466.200195312 0 399 0 c 0,17,18
 315 0 315 0 243.599609375 38.849609375 c 128,-1,19
 172.200195312 77.7001953125 172.200195312 77.7001953125 128.099609375 143.849609375 c 128,-1,20
 84 210 84 210 84 294 c 0,21,22
 84 394.799804688 84 394.799804688 115.5 458.849609375 c 128,-1,23
 147 522.900390625 147 522.900390625 194.25 557.549804688 c 128,-1,24
 241.5 592.200195312 241.5 592.200195312 288.75 607.950195312 c 128,-1,25
 336 623.700195312 336 623.700195312 367.5 625.799804688 c 2,26,-1
 399 630 l 1,27,-1
 399 609 l 1,28,29
 371.700195312 600.599609375 l 0,30,31
 342.299804688 592.200195312 342.299804688 592.200195312 304.5 563.849609375 c 128,-1,32
 266.700195312 535.5 266.700195312 535.5 238.349609375 476.700195312 c 128,-1,33
 210 417.900390625 210 417.900390625 210 315 c 0,34,35
 210 237.299804688 210 237.299804688 262.5 171.150390625 c 128,-1,36
 315 105 315 105 441 105 c 0,37,38
 504 105 504 105 544.950195312 114.450195312 c 128,-1,39
 585.900390625 123.900390625 585.900390625 123.900390625 609 136.5 c 1,40,-1
 609 210 l 1,41,-1
 609 840 l 1,42,-1
 609 1155 l 1,43,44
 577.5 1155 577.5 1155 552.299804688 1134 c 2,45,-1
 525 1113 l 1,46,-1
 504 1134 l 1,47,-1
 630 1260 l 1,0,-1
EndSplineSet
Ligature2: "common ligs" S h
Ligature2: "common ligs" s h
Ligature2: "common ligs" s.vowel h
EndChar

StartChar: t_h
Encoding: 65561 -1 102
Width: 774
VWidth: 4300
GlyphClass: 3
Flags: W
LayerCount: 2
Fore
SplineSet
105 1260 m 1,0,-1
 189 1260 l 1,1,-1
 210 1239 l 1,2,-1
 210 840 l 1,3,-1
 210 579.599609375 l 1,4,5
 243.599609375 600.599609375 243.599609375 600.599609375 285.599609375 615.299804688 c 128,-1,6
 327.599609375 630 327.599609375 630 378 630 c 0,7,8
 462 630 462 630 533.400390625 591.150390625 c 128,-1,9
 604.799804688 552.299804688 604.799804688 552.299804688 648.900390625 486.150390625 c 128,-1,10
 693 420 693 420 693 336 c 0,11,12
 693 235.200195312 693 235.200195312 661.5 171.150390625 c 128,-1,13
 630 107.099609375 630 107.099609375 582.75 72.4501953125 c 128,-1,14
 535.5 37.7998046875 535.5 37.7998046875 488.25 22.0498046875 c 128,-1,15
 441 6.2998046875 441 6.2998046875 409.5 2.099609375 c 2,16,-1
 378 0 l 1,17,-1
 378 21 l 1,18,19
 405.299804688 29.400390625 l 0,20,21
 434.700195312 37.7998046875 434.700195312 37.7998046875 472.5 66.150390625 c 128,-1,22
 510.299804688 94.5 510.299804688 94.5 538.650390625 153.299804688 c 128,-1,23
 567 212.099609375 567 212.099609375 567 315 c 0,24,25
 567 394.799804688 567 394.799804688 514.5 459.900390625 c 128,-1,26
 462 525 462 525 336 525 c 0,27,28
 296.099609375 525 296.099609375 525 264.599609375 520.799804688 c 128,-1,29
 233.099609375 516.599609375 233.099609375 516.599609375 210 510.299804688 c 1,30,-1
 210 210 l 1,31,-1
 210 0 l 1,32,-1
 63 0 l 2,33,34
 31.5 0 31.5 0 14.7001953125 -10.5 c 2,35,-1
 0 -21 l 1,36,-1
 -42 -21 l 1,37,-1
 42 105 l 1,38,-1
 84 105 l 1,39,-1
 84 210 l 1,40,-1
 84 840 l 1,41,-1
 84 1155 l 1,42,43
 52.5 1155 52.5 1155 27.2998046875 1134 c 2,44,-1
 0 1113 l 1,45,-1
 -21 1134 l 1,46,-1
 105 1260 l 1,0,-1
EndSplineSet
Ligature2: "common ligs" t h
Ligature2: "common ligs" T h
EndChar

StartChar: r.vowel
Encoding: 65562 -1 103
Width: 774
VWidth: 4300
GlyphClass: 2
Flags: W
LayerCount: 2
Fore
SplineSet
84 630 m 5,0,-1
 168 630 l 5,1,-1
 189 609 l 5,2,-1
 434.700195312 77.7001953125 l 5,3,-1
 525 168 l 6,4,5
 573.299804688 216.299804688 573.299804688 216.299804688 580.650390625 286.650390625 c 132,-1,6
 588 357 588 357 588 420 c 4,7,8
 588 468.299804688 588 468.299804688 559.650390625 507.150390625 c 132,-1,9
 531.299804688 546 531.299804688 546 483 546 c 4,10,11
 388.5 546 388.5 546 350.700195312 525 c 6,12,-1
 315 504 l 5,13,-1
 294 525 l 5,14,15
 319.200195312 552.299804688 l 4,16,17
 346.5 577.5 346.5 577.5 393.75 603.75 c 132,-1,18
 441 630 441 630 504 630 c 4,19,20
 598.5 630 598.5 630 656.25 572.25 c 132,-1,21
 714 514.5 714 514.5 714 420 c 4,22,23
 714 310.799804688 714 310.799804688 664.650390625 242.549804688 c 132,-1,24
 615.299804688 174.299804688 615.299804688 174.299804688 567 126 c 6,25,-1
 273 -168 l 6,26,27
 226.799804688 -214.200195312 226.799804688 -214.200195312 218.400390625 -285.599609375 c 132,-1,28
 210 -357 210 -357 210 -420 c 4,29,30
 210 -466.200195312 210 -466.200195312 239.400390625 -506.099609375 c 132,-1,31
 268.799804688 -546 268.799804688 -546 315 -546 c 4,32,33
 409.5 -546 409.5 -546 445.200195312 -525 c 6,34,-1
 483 -504 l 5,35,-1
 504 -525 l 5,36,-1
 478.799804688 -552.299804688 l 6,37,38
 451.5 -577.5 451.5 -577.5 404.25 -603.75 c 132,-1,39
 357 -630 357 -630 294 -630 c 4,40,41
 199.5 -630 199.5 -630 141.75 -572.25 c 132,-1,42
 84 -514.5 84 -514.5 84 -420 c 4,43,44
 84 -308.700195312 84 -308.700195312 134.400390625 -240.450195312 c 132,-1,45
 184.799804688 -172.200195312 184.799804688 -172.200195312 231 -126 c 6,46,-1
 329.700195312 -27.2998046875 l 5,47,-1
 84 525 l 5,48,-1
 42 525 l 5,49,-1
 21 546 l 5,50,-1
 84 630 l 5,0,-1
EndSplineSet
Substitution2: "end r" r
Substitution2: "silent e" r
EndChar

StartChar: s.vowel
Encoding: 65563 -1 104
Width: 774
VWidth: 4300
GlyphClass: 2
Flags: W
LayerCount: 2
Fore
SplineSet
189 -336 m 0,0,1
 189 -241.5 189 -241.5 226.799804688 -174.299804688 c 128,-1,2
 264.599609375 -107.099609375 264.599609375 -107.099609375 321.299804688 -54.599609375 c 128,-1,3
 378 -2.099609375 378 -2.099609375 434.700195312 49.349609375 c 128,-1,4
 491.400390625 100.799804688 491.400390625 100.799804688 529.200195312 163.799804688 c 128,-1,5
 567 226.799804688 567 226.799804688 567 315 c 0,6,7
 567 409.5 567 409.5 514.5 467.25 c 128,-1,8
 462 525 462 525 336 525 c 0,9,10
 241.5 525 241.5 525 204.75 483 c 128,-1,11
 168 441 168 441 168 315 c 0,12,13
 168 262.5 168 262.5 199.5 224.700195312 c 128,-1,14
 231 186.900390625 231 186.900390625 262.5 165.900390625 c 2,15,-1
 294 147 l 1,16,-1
 294 126 l 1,17,-1
 189 63 l 1,18,19
 161.700195312 90.2998046875 l 0,20,21
 136.5 117.599609375 136.5 117.599609375 110.25 169.049804688 c 128,-1,22
 84 220.5 84 220.5 84 294 c 0,23,24
 84 357 84 357 111.299804688 416.849609375 c 128,-1,25
 138.599609375 476.700195312 138.599609375 476.700195312 183.75 525 c 128,-1,26
 228.900390625 573.299804688 228.900390625 573.299804688 280.349609375 601.650390625 c 128,-1,27
 331.799804688 630 331.799804688 630 378 630 c 0,28,29
 462 630 462 630 533.400390625 600.599609375 c 128,-1,30
 604.799804688 571.200195312 604.799804688 571.200195312 648.900390625 506.099609375 c 128,-1,31
 693 441 693 441 693 336 c 0,32,33
 693 254.099609375 693 254.099609375 653.099609375 195.299804688 c 128,-1,34
 613.200195312 136.5 613.200195312 136.5 553.349609375 86.099609375 c 128,-1,35
 493.5 35.7001953125 493.5 35.7001953125 433.650390625 -18.900390625 c 128,-1,36
 373.799804688 -73.5 373.799804688 -73.5 333.900390625 -143.849609375 c 128,-1,37
 294 -214.200195312 294 -214.200195312 294 -315 c 0,38,39
 294 -409.5 294 -409.5 309.75 -458.849609375 c 128,-1,40
 325.5 -508.200195312 325.5 -508.200195312 340.200195312 -527.099609375 c 2,41,-1
 357 -546 l 1,42,-1
 357 -567 l 1,43,-1
 252 -630 l 1,44,-1
 235.200195312 -590.099609375 l 2,45,46
 220.5 -552.299804688 220.5 -552.299804688 204.75 -486.150390625 c 128,-1,47
 189 -420 189 -420 189 -336 c 0,0,1
EndSplineSet
EndChar

StartChar: z.vowel
Encoding: 65564 -1 105
Width: 774
VWidth: 4300
GlyphClass: 2
Flags: W
LayerCount: 2
Fore
SplineSet
210 -630 m 1,0,-1
 189 -609 l 1,1,2
 226.799804688 -594.299804688 l 0,3,4
 264.599609375 -581.700195312 264.599609375 -581.700195312 321.299804688 -550.200195312 c 128,-1,5
 378 -518.700195312 378 -518.700195312 434.700195312 -468.299804688 c 128,-1,6
 491.400390625 -417.900390625 491.400390625 -417.900390625 529.200195312 -343.349609375 c 128,-1,7
 567 -268.799804688 567 -268.799804688 567 -168 c 0,8,9
 567 -138.599609375 567 -138.599609375 554.400390625 -87.150390625 c 128,-1,10
 541.799804688 -35.7001953125 541.799804688 -35.7001953125 522.900390625 13.650390625 c 128,-1,11
 504 63 504 63 483 84 c 1,12,13
 514.5 115.5 514.5 115.5 539.700195312 153.299804688 c 128,-1,14
 564.900390625 191.099609375 564.900390625 191.099609375 567 228.900390625 c 0,15,16
 567 239.400390625 567 239.400390625 567 252 c 0,17,18
 567 378 567 378 514.5 451.5 c 128,-1,19
 462 525 462 525 336 525 c 0,20,21
 241.5 525 241.5 525 204.75 483 c 128,-1,22
 168 441 168 441 168 315 c 0,23,24
 168 262.5 168 262.5 199.5 224.700195312 c 128,-1,25
 231 186.900390625 231 186.900390625 262.5 165.900390625 c 2,26,-1
 294 147 l 1,27,-1
 294 126 l 1,28,-1
 189 63 l 1,29,-1
 161.700195312 90.2998046875 l 2,30,31
 136.5 117.599609375 136.5 117.599609375 110.25 169.049804688 c 128,-1,32
 84 220.5 84 220.5 84 294 c 0,33,34
 84 357 84 357 111.299804688 416.849609375 c 128,-1,35
 138.599609375 476.700195312 138.599609375 476.700195312 183.75 525 c 128,-1,36
 228.900390625 573.299804688 228.900390625 573.299804688 280.349609375 601.650390625 c 128,-1,37
 331.799804688 630 331.799804688 630 378 630 c 0,38,39
 462 630 462 630 533.400390625 588 c 128,-1,40
 604.799804688 546 604.799804688 546 648.900390625 462 c 128,-1,41
 693 378 693 378 693 252 c 0,42,43
 693 210 693 210 677.25 162.75 c 128,-1,44
 661.5 115.5 661.5 115.5 630 84 c 1,45,46
 651 63 651 63 664.650390625 16.7998046875 c 128,-1,47
 678.299804688 -29.400390625 678.299804688 -29.400390625 685.650390625 -80.849609375 c 128,-1,48
 693 -132.299804688 693 -132.299804688 693 -168 c 0,49,50
 693 -275.099609375 693 -275.099609375 644.700195312 -353.849609375 c 128,-1,51
 596.400390625 -432.599609375 596.400390625 -432.599609375 523.950195312 -485.099609375 c 128,-1,52
 451.5 -537.599609375 451.5 -537.599609375 379.049804688 -570.150390625 c 128,-1,53
 306.599609375 -602.700195312 306.599609375 -602.700195312 283.5 -609 c 2,54,-1
 210 -630 l 1,0,-1
EndSplineSet
EndChar

StartChar: y.vowel
Encoding: 65565 -1 106
Width: 354
VWidth: 4300
GlyphClass: 2
Flags: W
LayerCount: 2
Fore
SplineSet
0 1134 m 1,0,-1
 163.799804688 995.400390625 l 1,1,-1
 273 1155 l 1,2,-1
 315 1113 l 1,3,-1
 147 861 l 1,4,-1
 -63 1029 l 1,5,-1
 0 1134 l 1,0,-1
84 630 m 1,6,-1
 189 630 l 1,7,-1
 210 609 l 1,8,-1
 210 483 l 1,9,-1
 210 210 l 1,10,-1
 210 0 l 1,11,-1
 63 0 l 2,12,13
 31.5 0 31.5 0 14.7001953125 -10.5 c 2,14,-1
 0 -21 l 1,15,-1
 -42 -21 l 1,16,-1
 42 105 l 1,17,-1
 84 105 l 1,18,-1
 84 210 l 1,19,-1
 84 483 l 1,20,-1
 84 525 l 1,21,-1
 42 525 l 1,22,-1
 21 546 l 1,23,-1
 84 630 l 1,6,-1
EndSplineSet
Substitution2: "Cons vowel" y
Substitution2: "vowel diacritic tengwa" y.short
EndChar

StartChar: a_a
Encoding: 65566 -1 107
Width: 354
VWidth: 4300
GlyphClass: 3
Flags: W
LayerCount: 2
Fore
SplineSet
168 945 m 1,0,-1
 252 1071 l 1,1,-1
 357 987 l 1,2,-1
 273 861 l 1,3,-1
 168 945 l 1,0,-1
-84 945 m 1,4,-1
 0 1071 l 1,5,-1
 105 987 l 1,6,-1
 21 861 l 1,7,-1
 -84 945 l 1,4,-1
42 1071 m 1,8,-1
 126 1197 l 1,9,-1
 231 1113 l 1,10,-1
 147 987 l 1,11,-1
 42 1071 l 1,8,-1
84 630 m 1,12,-1
 189 630 l 1,13,-1
 210 609 l 1,14,-1
 210 483 l 1,15,-1
 210 -210 l 1,16,-1
 210 -525 l 1,17,-1
 231 -525 l 1,18,-1
 252 -546 l 1,19,-1
 189 -630 l 1,20,-1
 105 -630 l 1,21,-1
 84 -609 l 1,22,-1
 84 -210 l 1,23,-1
 84 483 l 1,24,-1
 84 525 l 1,25,-1
 42 525 l 1,26,-1
 21 546 l 1,27,-1
 84 630 l 1,12,-1
EndSplineSet
Ligature2: "long stem" a a
EndChar

StartChar: e_e
Encoding: 65567 -1 108
Width: 354
VWidth: 4300
GlyphClass: 3
Flags: W
LayerCount: 2
Fore
SplineSet
84 861 m 1,0,-1
 42 882 l 1,1,-1
 231 1197 l 1,2,-1
 336 1155 l 1,3,-1
 315 1113 l 1,4,-1
 84 861 l 1,0,-1
84 630 m 1,5,-1
 189 630 l 1,6,-1
 210 609 l 1,7,-1
 210 483 l 1,8,-1
 210 -210 l 1,9,-1
 210 -525 l 1,10,-1
 231 -525 l 1,11,-1
 252 -546 l 1,12,-1
 189 -630 l 1,13,-1
 105 -630 l 1,14,-1
 84 -609 l 1,15,-1
 84 -210 l 1,16,-1
 84 483 l 1,17,-1
 84 525 l 1,18,-1
 42 525 l 1,19,-1
 21 546 l 1,20,-1
 84 630 l 1,5,-1
EndSplineSet
Ligature2: "long stem" e e
EndChar

StartChar: i_i
Encoding: 65568 -1 109
Width: 354
VWidth: 4300
GlyphClass: 3
Flags: W
LayerCount: 2
Fore
SplineSet
42 945 m 1,0,-1
 126 1071 l 1,1,-1
 231 987 l 1,2,-1
 147 861 l 1,3,-1
 42 945 l 1,0,-1
84 630 m 1,4,-1
 189 630 l 1,5,-1
 210 609 l 1,6,-1
 210 483 l 1,7,-1
 210 -210 l 1,8,-1
 210 -525 l 1,9,-1
 231 -525 l 1,10,-1
 252 -546 l 1,11,-1
 189 -630 l 1,12,-1
 105 -630 l 1,13,-1
 84 -609 l 1,14,-1
 84 -210 l 1,15,-1
 84 483 l 1,16,-1
 84 525 l 1,17,-1
 42 525 l 1,18,-1
 21 546 l 1,19,-1
 84 630 l 1,4,-1
EndSplineSet
Ligature2: "long stem" i i
EndChar

StartChar: o_o
Encoding: 65569 -1 110
Width: 354
VWidth: 4300
GlyphClass: 3
Flags: W
LayerCount: 2
Fore
SplineSet
42 882 m 1,0,1
 56.7001953125 917.700195312 l 0,2,3
 71.400390625 953.400390625 71.400390625 953.400390625 97.650390625 998.549804688 c 128,-1,4
 123.900390625 1043.70019531 123.900390625 1043.70019531 157.5 1078.34960938 c 128,-1,5
 191.099609375 1113 191.099609375 1113 231 1113 c 0,6,7
 283.5 1113 283.5 1113 310.799804688 1081.5 c 128,-1,8
 338.099609375 1050 338.099609375 1050 348.599609375 1018.5 c 2,9,-1
 357 987 l 1,10,-1
 315 966 l 1,11,-1
 310.799804688 976.5 l 2,12,13
 308.700195312 987 308.700195312 987 290.849609375 997.5 c 128,-1,14
 273 1008 273 1008 231 1008 c 0,15,16
 199.5 1008 199.5 1008 172.200195312 985.950195312 c 128,-1,17
 144.900390625 963.900390625 144.900390625 963.900390625 126 934.5 c 128,-1,18
 107.099609375 905.099609375 107.099609375 905.099609375 94.5 884.099609375 c 2,19,-1
 84 861 l 1,20,-1
 42 882 l 1,0,1
84 630 m 1,21,-1
 189 630 l 1,22,-1
 210 609 l 1,23,-1
 210 483 l 1,24,-1
 210 -210 l 1,25,-1
 210 -525 l 1,26,-1
 231 -525 l 1,27,-1
 252 -546 l 1,28,-1
 189 -630 l 1,29,-1
 105 -630 l 1,30,-1
 84 -609 l 1,31,-1
 84 -210 l 1,32,-1
 84 483 l 1,33,-1
 84 525 l 1,34,-1
 42 525 l 1,35,-1
 21 546 l 1,36,-1
 84 630 l 1,21,-1
EndSplineSet
Ligature2: "long stem" o o
EndChar

StartChar: u_u
Encoding: 65570 -1 111
Width: 354
VWidth: 4300
GlyphClass: 3
Flags: W
LayerCount: 2
Fore
SplineSet
84 861 m 1,0,-1
 42 882 l 1,1,2
 71.400390625 907.200195312 l 0,3,4
 100.799804688 930.299804688 100.799804688 930.299804688 130.200195312 969.150390625 c 128,-1,5
 159.599609375 1008 159.599609375 1008 159.599609375 1050 c 256,6,7
 159.599609375 1092 159.599609375 1092 140.700195312 1115.09960938 c 128,-1,8
 121.799804688 1138.20019531 121.799804688 1138.20019531 102.900390625 1146.59960938 c 2,9,-1
 84 1155 l 1,10,-1
 102.900390625 1192.79980469 l 1,11,-1
 126 1190.70019531 l 2,12,13
 149.099609375 1188.59960938 149.099609375 1188.59960938 178.5 1179.15039062 c 128,-1,14
 207.900390625 1169.70019531 207.900390625 1169.70019531 229.950195312 1144.5 c 128,-1,15
 252 1119.29980469 252 1119.29980469 252 1071 c 0,16,17
 252 1031.09960938 252 1031.09960938 226.799804688 994.349609375 c 128,-1,18
 201.599609375 957.599609375 201.599609375 957.599609375 168 927.150390625 c 128,-1,19
 134.400390625 896.700195312 134.400390625 896.700195312 121.799804688 888.299804688 c 2,20,-1
 84 861 l 1,0,-1
84 630 m 1,21,-1
 189 630 l 1,22,-1
 210 609 l 1,23,-1
 210 483 l 1,24,-1
 210 -210 l 1,25,-1
 210 -525 l 1,26,-1
 231 -525 l 1,27,-1
 252 -546 l 1,28,-1
 189 -630 l 1,29,-1
 105 -630 l 1,30,-1
 84 -609 l 1,31,-1
 84 -210 l 1,32,-1
 84 483 l 1,33,-1
 84 525 l 1,34,-1
 42 525 l 1,35,-1
 21 546 l 1,36,-1
 84 630 l 1,21,-1
EndSplineSet
Ligature2: "long stem" u u
EndChar

StartChar: y_y
Encoding: 65571 -1 112
Width: 354
VWidth: 4300
GlyphClass: 3
Flags: W
LayerCount: 2
Fore
SplineSet
0 1134 m 1,0,-1
 163.799804688 995.400390625 l 1,1,-1
 273 1155 l 1,2,-1
 315 1113 l 1,3,-1
 147 861 l 1,4,-1
 -63 1029 l 1,5,-1
 0 1134 l 1,0,-1
84 630 m 1,6,-1
 189 630 l 1,7,-1
 210 609 l 1,8,-1
 210 483 l 1,9,-1
 210 -210 l 1,10,-1
 210 -525 l 1,11,-1
 231 -525 l 1,12,-1
 252 -546 l 1,13,-1
 189 -630 l 1,14,-1
 105 -630 l 1,15,-1
 84 -609 l 1,16,-1
 84 -210 l 1,17,-1
 84 483 l 1,18,-1
 84 525 l 1,19,-1
 42 525 l 1,20,-1
 21 546 l 1,21,-1
 84 630 l 1,6,-1
EndSplineSet
Ligature2: "long stem" y.vowel y
Ligature2: "long stem" y.vowel y.vowel
EndChar

StartChar: double_consonant.short
Encoding: 65572 -1 113
Width: 0
VWidth: 4300
GlyphClass: 2
Flags: W
LayerCount: 2
Fore
SplineSet
567 -210 m 1,0,-1
 147 -210 l 2,1,2
 115.5 -210 115.5 -210 98.7001953125 -220.5 c 2,3,-1
 84 -231 l 1,4,-1
 42 -231 l 1,5,-1
 126 -105 l 1,6,-1
 546 -105 l 2,7,8
 577.5 -105 577.5 -105 592.200195312 -94.5 c 2,9,-1
 609 -84 l 1,10,-1
 651 -84 l 1,11,-1
 567 -210 l 1,0,-1
EndSplineSet
EndChar

StartChar: double_consonant.long
Encoding: 65573 -1 114
Width: 0
VWidth: 4300
GlyphClass: 2
Flags: W
LayerCount: 2
Fore
SplineSet
84 -231 m 1,0,-1
 42 -231 l 1,1,-1
 126 -105 l 1,2,-1
 966 -105 l 2,3,4
 997.5 -105 997.5 -105 1012.20019531 -94.5 c 2,5,-1
 1029 -84 l 1,6,-1
 1071 -84 l 1,7,-1
 987 -210 l 1,8,-1
 147 -210 l 2,9,10
 115.5 -210 115.5 -210 107.099609375 -216.299804688 c 2,11,-1
 84 -231 l 1,0,-1
EndSplineSet
EndChar

StartChar: pren.short
Encoding: 65574 -1 115
Width: 0
VWidth: 4300
GlyphClass: 2
Flags: W
LayerCount: 2
Fore
SplineSet
567 714 m 5,0,-1
 147 714 l 6,1,2
 115.5 714 115.5 714 98.7001953125 703.5 c 6,3,-1
 84 693 l 5,4,-1
 42 693 l 5,5,-1
 126 819 l 5,6,-1
 546 819 l 6,7,8
 577.5 819 577.5 819 592.200195312 829.5 c 6,9,-1
 609 840 l 5,10,-1
 651 840 l 5,11,-1
 567 714 l 5,0,-1
EndSplineSet
EndChar

StartChar: pren.long
Encoding: 65575 -1 116
Width: 0
VWidth: 4300
GlyphClass: 2
Flags: W
LayerCount: 2
Fore
SplineSet
987 714 m 5,0,-1
 147 714 l 6,1,2
 115.5 714 115.5 714 98.7001953125 703.5 c 6,3,-1
 84 693 l 5,4,-1
 42 693 l 5,5,-1
 126 819 l 5,6,-1
 966 819 l 6,7,8
 997.5 819 997.5 819 1012.20019531 829.5 c 6,9,-1
 1029 840 l 5,10,-1
 1071 840 l 5,11,-1
 987 714 l 5,0,-1
EndSplineSet
EndChar

StartChar: s_trail.low
Encoding: 65576 -1 117
Width: 774
VWidth: 4300
GlyphClass: 2
Flags: W
LayerCount: 2
Fore
SplineSet
567 -189 m 0,0,1
 567 -94.5 567 -94.5 525 -47.25 c 128,-1,2
 483 0 483 0 420 0 c 2,3,-1
 -378 0 l 1,4,-1
 -399 21 l 1,5,-1
 -336 105 l 1,6,-1
 294 105 l 2,7,8
 441 105 441 105 528.150390625 60.900390625 c 128,-1,9
 615.299804688 16.7998046875 615.299804688 16.7998046875 654.150390625 -54.599609375 c 128,-1,10
 693 -126 693 -126 693 -210 c 0,11,12
 693 -325.5 693 -325.5 648.900390625 -400.049804688 c 128,-1,13
 604.799804688 -474.599609375 604.799804688 -474.599609375 533.400390625 -510.299804688 c 128,-1,14
 462 -546 462 -546 378 -546 c 0,15,16
 315 -546 315 -546 264.599609375 -523.950195312 c 128,-1,17
 214.200195312 -501.900390625 214.200195312 -501.900390625 178.5 -472.5 c 128,-1,18
 142.799804688 -443.099609375 142.799804688 -443.099609375 123.900390625 -420 c 2,19,-1
 105 -399 l 1,20,-1
 126 -378 l 1,21,22
 142.799804688 -394.799804688 l 0,23,24
 161.700195312 -409.5 161.700195312 -409.5 206.849609375 -425.25 c 128,-1,25
 252 -441 252 -441 336 -441 c 0,26,27
 462 -441 462 -441 514.5 -369.599609375 c 128,-1,28
 567 -298.200195312 567 -298.200195312 567 -189 c 0,0,1
EndSplineSet
EndChar

StartChar: s_trail.high
Encoding: 65577 -1 118
Width: 774
VWidth: 4300
GlyphClass: 2
Flags: W
LayerCount: 2
Fore
SplineSet
420 525 m 6,0,-1
 -462 525 l 5,1,-1
 -483 546 l 5,2,-1
 -420 630 l 5,3,-1
 294 630 l 6,4,5
 441 630 441 630 528.150390625 585.900390625 c 132,-1,6
 615.299804688 541.799804688 615.299804688 541.799804688 654.150390625 470.400390625 c 132,-1,7
 693 399 693 399 693 315 c 4,8,9
 693 199.5 693 199.5 648.900390625 124.950195312 c 132,-1,10
 604.799804688 50.400390625 604.799804688 50.400390625 533.400390625 14.7001953125 c 132,-1,11
 462 -21 462 -21 378 -21 c 4,12,13
 315 -21 315 -21 264.599609375 1.0498046875 c 132,-1,14
 214.200195312 23.099609375 214.200195312 23.099609375 178.5 52.5 c 132,-1,15
 142.799804688 81.900390625 142.799804688 81.900390625 123.900390625 105 c 6,16,-1
 105 126 l 5,17,-1
 126 147 l 5,18,19
 142.799804688 130.200195312 l 4,20,21
 161.700195312 115.5 161.700195312 115.5 206.849609375 99.75 c 132,-1,22
 252 84 252 84 336 84 c 4,23,24
 462 84 462 84 514.5 155.400390625 c 132,-1,25
 567 226.799804688 567 226.799804688 567 336 c 4,26,27
 567 430.5 567 430.5 525 477.75 c 132,-1,28
 483 525 483 525 420 525 c 6,0,-1
EndSplineSet
EndChar

StartChar: b_b
Encoding: 65578 -1 119
Width: 1194
VWidth: 4300
GlyphClass: 3
Flags: W
LayerCount: 2
Fore
SplineSet
84 630 m 1,0,-1
 189 630 l 1,1,-1
 210 609 l 1,2,-1
 210 579.599609375 l 5,3,4
 243.599609375 600.599609375 243.599609375 600.599609375 285.599609375 615.299804688 c 132,-1,5
 327.599609375 630 327.599609375 630 378 630 c 4,6,7
 501.900390625 630 501.900390625 630 592.200195312 552.299804688 c 5,8,9
 627.900390625 579.599609375 627.900390625 579.599609375 680.400390625 604.799804688 c 132,-1,10
 732.900390625 630 732.900390625 630 798 630 c 4,11,12
 882 630 882 630 953.400390625 591.150390625 c 132,-1,13
 1024.79980469 552.299804688 1024.79980469 552.299804688 1068.90039062 486.150390625 c 132,-1,14
 1113 420 1113 420 1113 336 c 4,15,16
 1113 254.099609375 1113 254.099609375 1090.95019531 198.450195312 c 132,-1,17
 1068.90039062 142.799804688 1068.90039062 142.799804688 1035.29980469 105 c 5,18,-1
 1050 105 l 6,19,20
 1081.5 105 1081.5 105 1096.20019531 115.5 c 6,21,-1
 1113 126 l 5,22,-1
 1155 126 l 5,23,-1
 1071 0 l 5,24,-1
 210 0 l 5,25,-1
 210 -105 l 1,26,-1
 966 -105 l 2,27,28
 997.5 -105 997.5 -105 1012.20019531 -94.5 c 2,29,-1
 1029 -84 l 1,30,-1
 1071 -84 l 1,31,-1
 987 -210 l 1,32,-1
 210 -210 l 1,33,-1
 210 -525 l 1,34,-1
 231 -525 l 1,35,-1
 252 -546 l 1,36,-1
 189 -630 l 1,37,-1
 105 -630 l 1,38,-1
 84 -609 l 1,39,-1
 84 -210 l 1,40,-1
 84 483 l 1,41,-1
 84 525 l 1,42,-1
 42 525 l 1,43,-1
 21 546 l 1,44,-1
 84 630 l 1,0,-1
336 525 m 4,45,46
 296.099609375 525 296.099609375 525 264.599609375 520.799804688 c 132,-1,47
 233.099609375 516.599609375 233.099609375 516.599609375 210 510.299804688 c 5,48,-1
 210 483 l 5,49,-1
 210 105 l 5,50,-1
 510.299804688 105 l 5,51,52
 533.400390625 138.599609375 533.400390625 138.599609375 550.200195312 189 c 132,-1,53
 567 239.400390625 567 239.400390625 567 315 c 4,54,55
 567 394.799804688 567 394.799804688 514.5 459.900390625 c 132,-1,56
 462 525 462 525 336 525 c 4,45,46
756 525 m 4,57,58
 716.099609375 525 716.099609375 525 685.650390625 520.799804688 c 132,-1,59
 655.200195312 516.599609375 655.200195312 516.599609375 632.099609375 510.299804688 c 5,60,61
 661.5 474.599609375 661.5 474.599609375 677.25 430.5 c 132,-1,62
 693 386.400390625 693 386.400390625 693 336 c 4,63,64
 693 254.099609375 693 254.099609375 670.950195312 198.450195312 c 132,-1,65
 648.900390625 142.799804688 648.900390625 142.799804688 615.299804688 105 c 5,66,-1
 930.299804688 105 l 5,67,68
 953.400390625 138.599609375 953.400390625 138.599609375 970.200195312 189 c 132,-1,69
 987 239.400390625 987 239.400390625 987 315 c 4,70,71
 987 394.799804688 987 394.799804688 934.5 459.900390625 c 132,-1,72
 882 525 882 525 756 525 c 4,57,58
EndSplineSet
LCarets2: 1 0
Ligature2: "geminated" b b
EndChar

StartChar: c_c
Encoding: 65579 -1 120
Width: 816
VWidth: 4300
GlyphClass: 3
LigCaretCntFixed: 1
Flags: W
LayerCount: 2
Fore
SplineSet
126 630 m 1,0,-1
 399 630 l 1,1,-1
 646.799804688 630 l 1,2,-1
 651 630 l 1,3,-1
 756 630 l 1,4,-1
 777 609 l 1,5,-1
 714 525 l 1,6,-1
 693 525 l 1,7,-1
 693 420 l 1,8,-1
 693 -210 l 1,9,-1
 693 -525 l 1,10,-1
 714 -525 l 1,11,-1
 735 -546 l 1,12,-1
 672 -630 l 1,13,-1
 588 -630 l 1,14,-1
 567 -609 l 1,15,-1
 567 -210 l 1,16,-1
 231 -210 l 2,17,18
 199.5 -210 199.5 -210 182.700195312 -220.5 c 2,19,-1
 168 -231 l 1,20,-1
 126 -231 l 1,21,-1
 210 -105 l 1,22,-1
 567 -105 l 1,23,-1
 567 50.400390625 l 1,24,25
 533.400390625 29.400390625 533.400390625 29.400390625 491.400390625 14.7001953125 c 128,-1,26
 449.400390625 0 449.400390625 0 399 0 c 0,27,28
 315 0 315 0 243.599609375 38.849609375 c 128,-1,29
 172.200195312 77.7001953125 172.200195312 77.7001953125 128.099609375 143.849609375 c 128,-1,30
 84 210 84 210 84 294 c 0,31,32
 84 375.900390625 84 375.900390625 106.049804688 431.549804688 c 128,-1,33
 128.099609375 487.200195312 128.099609375 487.200195312 161.700195312 525 c 1,34,-1
 147 525 l 2,35,36
 115.5 525 115.5 525 98.7001953125 514.5 c 2,37,-1
 84 504 l 1,38,-1
 42 504 l 1,39,-1
 126 630 l 1,0,-1
266.700195312 525 m 1,40,41
 243.599609375 491.400390625 243.599609375 491.400390625 226.799804688 441 c 128,-1,42
 210 390.599609375 210 390.599609375 210 315 c 0,43,44
 210 237.299804688 210 237.299804688 262.5 171.150390625 c 128,-1,45
 315 105 315 105 441 105 c 0,46,47
 480.900390625 105 480.900390625 105 512.400390625 109.200195312 c 128,-1,48
 543.900390625 113.400390625 543.900390625 113.400390625 567 119.700195312 c 1,49,-1
 567 420 l 1,50,-1
 567 525 l 1,51,-1
 266.700195312 525 l 1,40,41
EndSplineSet
Ligature2: "geminated" c c
Ligature2: "geminated" k c
LCarets2: 1 -384
EndChar

StartChar: d_d
Encoding: 65580 -1 121
Width: 1194
VWidth: 4300
GlyphClass: 3
Flags: W
LayerCount: 2
Fore
SplineSet
84 630 m 1,0,-1
 189 630 l 1,1,-1
 210 609 l 1,2,-1
 210 579.599609375 l 1,3,4
 243.599609375 600.599609375 243.599609375 600.599609375 285.599609375 615.299804688 c 128,-1,5
 327.599609375 630 327.599609375 630 378 630 c 0,6,7
 501.900390625 630 501.900390625 630 592.200195312 552.299804688 c 1,8,9
 627.900390625 579.599609375 627.900390625 579.599609375 680.400390625 604.799804688 c 128,-1,10
 732.900390625 630 732.900390625 630 798 630 c 0,11,12
 882 630 882 630 953.400390625 591.150390625 c 128,-1,13
 1024.79980469 552.299804688 1024.79980469 552.299804688 1068.90039062 486.150390625 c 128,-1,14
 1113 420 1113 420 1113 336 c 0,15,16
 1113 235.200195312 1113 235.200195312 1081.5 171.150390625 c 128,-1,17
 1050 107.099609375 1050 107.099609375 1002.75 72.4501953125 c 128,-1,18
 955.5 37.7998046875 955.5 37.7998046875 908.25 22.0498046875 c 128,-1,19
 861 6.2998046875 861 6.2998046875 829.5 2.099609375 c 2,20,-1
 798 0 l 1,21,-1
 798 21 l 1,22,23
 827.400390625 29.400390625 l 0,24,25
 856.799804688 37.7998046875 856.799804688 37.7998046875 893.549804688 66.150390625 c 128,-1,26
 930.299804688 94.5 930.299804688 94.5 958.650390625 153.299804688 c 128,-1,27
 987 212.099609375 987 212.099609375 987 315 c 0,28,29
 987 394.799804688 987 394.799804688 934.5 459.900390625 c 128,-1,30
 882 525 882 525 756 525 c 0,31,32
 716.099609375 525 716.099609375 525 685.650390625 520.799804688 c 128,-1,33
 655.200195312 516.599609375 655.200195312 516.599609375 632.099609375 510.299804688 c 1,34,35
 661.5 474.599609375 661.5 474.599609375 677.25 430.5 c 128,-1,36
 693 386.400390625 693 386.400390625 693 336 c 0,37,38
 693 235.200195312 693 235.200195312 661.5 171.150390625 c 128,-1,39
 630 107.099609375 630 107.099609375 582.75 72.4501953125 c 128,-1,40
 535.5 37.7998046875 535.5 37.7998046875 488.25 22.0498046875 c 128,-1,41
 441 6.2998046875 441 6.2998046875 409.5 2.099609375 c 2,42,-1
 378 0 l 1,43,-1
 378 21 l 1,44,-1
 405.299804688 29.400390625 l 2,45,46
 434.700195312 37.7998046875 434.700195312 37.7998046875 472.5 66.150390625 c 128,-1,47
 510.299804688 94.5 510.299804688 94.5 538.650390625 153.299804688 c 128,-1,48
 567 212.099609375 567 212.099609375 567 315 c 0,49,50
 567 394.799804688 567 394.799804688 514.5 459.900390625 c 128,-1,51
 462 525 462 525 336 525 c 0,52,53
 296.099609375 525 296.099609375 525 264.599609375 520.799804688 c 128,-1,54
 233.099609375 516.599609375 233.099609375 516.599609375 210 510.299804688 c 1,55,-1
 210 483 l 1,56,-1
 210 -105 l 5,57,-1
 966 -105 l 2,58,59
 997.5 -105 997.5 -105 1012.20019531 -94.5 c 6,60,-1
 1029 -84 l 5,61,-1
 1071 -84 l 5,62,-1
 987 -210 l 5,63,-1
 210 -210 l 5,64,-1
 210 -525 l 1,65,-1
 231 -525 l 1,66,-1
 252 -546 l 1,67,-1
 189 -630 l 1,68,-1
 105 -630 l 1,69,-1
 84 -609 l 1,70,-1
 84 -210 l 1,71,-1
 84 483 l 1,72,-1
 84 525 l 1,73,-1
 42 525 l 1,74,-1
 21 546 l 1,75,-1
 84 630 l 1,0,-1
EndSplineSet
LCarets2: 1 0
Ligature2: "geminated" d d
EndChar

StartChar: f_f
Encoding: 65581 -1 122
Width: 774
VWidth: 4300
GlyphClass: 3
Flags: W
LayerCount: 2
Fore
SplineSet
105 1260 m 1,0,-1
 189 1260 l 1,1,-1
 210 1239 l 1,2,-1
 210 840 l 1,3,-1
 210 579.599609375 l 1,4,5
 243.599609375 600.599609375 243.599609375 600.599609375 285.599609375 615.299804688 c 128,-1,6
 327.599609375 630 327.599609375 630 378 630 c 0,7,8
 462 630 462 630 533.400390625 591.150390625 c 128,-1,9
 604.799804688 552.299804688 604.799804688 552.299804688 648.900390625 486.150390625 c 128,-1,10
 693 420 693 420 693 336 c 0,11,12
 693 254.099609375 693 254.099609375 670.950195312 198.450195312 c 128,-1,13
 648.900390625 142.799804688 648.900390625 142.799804688 615.299804688 105 c 1,14,-1
 630 105 l 2,15,16
 661.5 105 661.5 105 676.200195312 115.5 c 2,17,-1
 693 126 l 1,18,-1
 735 126 l 1,19,-1
 651 0 l 1,20,-1
 378 0 l 1,21,-1
 210 0 l 1,22,-1
 63 0 l 2,23,24
 31.5 0 31.5 0 14.7001953125 -10.5 c 2,25,-1
 0 -21 l 1,26,-1
 -42 -21 l 1,27,-1
 42 105 l 1,28,-1
 84 105 l 1,29,-1
 84 210 l 1,30,-1
 84 840 l 1,31,-1
 84 1155 l 1,32,33
 52.5 1155 52.5 1155 27.2998046875 1134 c 2,34,-1
 0 1113 l 1,35,-1
 -21 1134 l 1,36,-1
 105 1260 l 1,0,-1
336 525 m 0,37,38
 296.099609375 525 296.099609375 525 264.599609375 520.799804688 c 128,-1,39
 233.099609375 516.599609375 233.099609375 516.599609375 210 510.299804688 c 1,40,-1
 210 210 l 1,41,-1
 210 105 l 1,42,-1
 510.299804688 105 l 1,43,44
 533.400390625 138.599609375 533.400390625 138.599609375 550.200195312 189 c 128,-1,45
 567 239.400390625 567 239.400390625 567 315 c 0,46,47
 567 394.799804688 567 394.799804688 514.5 459.900390625 c 128,-1,48
 462 525 462 525 336 525 c 0,37,38
609 -84 m 1,49,-1
 651 -84 l 1,50,-1
 567 -210 l 1,51,-1
 147 -210 l 2,52,53
 115.5 -210 115.5 -210 98.7001953125 -220.5 c 2,54,-1
 84 -231 l 1,55,-1
 42 -231 l 1,56,-1
 126 -105 l 1,57,-1
 546 -105 l 2,58,59
 577.5 -105 577.5 -105 585.900390625 -98.7001953125 c 2,60,-1
 609 -84 l 1,49,-1
EndSplineSet
Ligature2: "geminated" f f
EndChar

StartChar: g_g
Encoding: 65582 -1 123
Width: 1194
VWidth: 4300
GlyphClass: 3
LigCaretCntFixed: 1
Flags: W
LayerCount: 2
Fore
SplineSet
126 630 m 1,0,-1
 399 630 l 1,1,-1
 819 630 l 1,2,-1
 1066.79980469 630 l 1,3,-1
 1071 630 l 1,4,-1
 1176 630 l 1,5,-1
 1197 609 l 1,6,-1
 1134 525 l 1,7,-1
 1113 525 l 1,8,-1
 1113 420 l 1,9,-1
 1113 -210 l 1,10,-1
 1113 -525 l 1,11,-1
 1134 -525 l 1,12,-1
 1155 -546 l 1,13,-1
 1092 -630 l 1,14,-1
 1008 -630 l 1,15,-1
 987 -609 l 1,16,-1
 987 -210 l 1,17,-1
 231 -210 l 2,18,19
 199.5 -210 199.5 -210 182.700195312 -220.5 c 2,20,-1
 168 -231 l 1,21,-1
 126 -231 l 1,22,-1
 210 -105 l 1,23,-1
 987 -105 l 1,24,-1
 987 50.400390625 l 1,25,26
 953.400390625 29.400390625 953.400390625 29.400390625 911.400390625 14.7001953125 c 128,-1,27
 869.400390625 0 869.400390625 0 819 0 c 0,28,29
 695.099609375 0 695.099609375 0 604.799804688 77.7001953125 c 1,30,31
 569.099609375 50.400390625 569.099609375 50.400390625 516.599609375 25.2001953125 c 128,-1,32
 464.099609375 0 464.099609375 0 399 0 c 0,33,34
 315 0 315 0 243.599609375 38.849609375 c 128,-1,35
 172.200195312 77.7001953125 172.200195312 77.7001953125 128.099609375 143.849609375 c 128,-1,36
 84 210 84 210 84 294 c 0,37,38
 84 375.900390625 84 375.900390625 106.049804688 431.549804688 c 128,-1,39
 128.099609375 487.200195312 128.099609375 487.200195312 161.700195312 525 c 1,40,-1
 147 525 l 2,41,42
 115.5 525 115.5 525 98.7001953125 514.5 c 2,43,-1
 84 504 l 1,44,-1
 42 504 l 1,45,-1
 126 630 l 1,0,-1
266.700195312 525 m 1,46,47
 243.599609375 491.400390625 243.599609375 491.400390625 226.799804688 441 c 128,-1,48
 210 390.599609375 210 390.599609375 210 315 c 0,49,50
 210 237.299804688 210 237.299804688 262.5 171.150390625 c 128,-1,51
 315 105 315 105 441 105 c 0,52,53
 480.900390625 105 480.900390625 105 511.349609375 109.200195312 c 128,-1,54
 541.799804688 113.400390625 541.799804688 113.400390625 564.900390625 119.700195312 c 1,55,56
 535.5 155.400390625 535.5 155.400390625 519.75 199.5 c 128,-1,57
 504 243.599609375 504 243.599609375 504 294 c 0,58,59
 504 375.900390625 504 375.900390625 526.049804688 431.549804688 c 128,-1,60
 548.099609375 487.200195312 548.099609375 487.200195312 581.700195312 525 c 1,61,-1
 266.700195312 525 l 1,46,47
686.700195312 525 m 1,62,63
 663.599609375 491.400390625 663.599609375 491.400390625 646.799804688 441 c 128,-1,64
 630 390.599609375 630 390.599609375 630 315 c 0,65,66
 630 237.299804688 630 237.299804688 682.5 171.150390625 c 128,-1,67
 735 105 735 105 861 105 c 0,68,69
 900.900390625 105 900.900390625 105 932.400390625 109.200195312 c 128,-1,70
 963.900390625 113.400390625 963.900390625 113.400390625 987 119.700195312 c 1,71,-1
 987 420 l 1,72,-1
 987 525 l 1,73,-1
 686.700195312 525 l 1,62,63
EndSplineSet
Ligature2: "geminated" g g
LCarets2: 1 -615
EndChar

StartChar: h_h
Encoding: 65583 -1 124
Width: 774
VWidth: 4300
GlyphClass: 3
Flags: W
LayerCount: 2
Fore
SplineSet
63 1260 m 1,0,-1
 126 1260 l 1,1,-1
 147 1239 l 1,2,-1
 651 105 l 1,3,-1
 672 105 l 2,4,5
 703.5 105 703.5 105 720.299804688 115.5 c 2,6,-1
 735 126 l 1,7,-1
 777 126 l 1,8,-1
 693 0 l 1,9,-1
 651 0 l 1,10,-1
 546 0 l 1,11,-1
 327.599609375 501.900390625 l 1,12,-1
 126 0 l 1,13,-1
 63 0 l 2,14,15
 31.5 0 31.5 0 14.7001953125 -10.5 c 2,16,-1
 0 -21 l 1,17,-1
 -42 -21 l 1,18,-1
 42 105 l 1,19,-1
 84 105 l 1,20,-1
 283.5 602.700195312 l 1,21,-1
 42 1155 l 1,22,23
 10.5 1155 10.5 1155 -16.7998046875 1134 c 2,24,-1
 -42 1113 l 1,25,-1
 -63 1134 l 1,26,-1
 63 1260 l 1,0,-1
609 -84 m 1,27,-1
 651 -84 l 1,28,-1
 567 -210 l 1,29,-1
 147 -210 l 2,30,31
 115.5 -210 115.5 -210 98.7001953125 -220.5 c 2,32,-1
 84 -231 l 1,33,-1
 42 -231 l 1,34,-1
 126 -105 l 1,35,-1
 546 -105 l 2,36,37
 577.5 -105 577.5 -105 585.900390625 -98.7001953125 c 2,38,-1
 609 -84 l 1,27,-1
EndSplineSet
Ligature2: "geminated" h h
EndChar

StartChar: j_j
Encoding: 65584 -1 125
Width: 1194
VWidth: 4300
GlyphClass: 3
LigCaretCntFixed: 1
Flags: W
LayerCount: 2
Fore
SplineSet
399 630 m 5,0,-1
 399 609 l 5,1,2
 371.700195312 600.599609375 l 4,3,4
 342.299804688 592.200195312 342.299804688 592.200195312 304.5 563.849609375 c 132,-1,5
 266.700195312 535.5 266.700195312 535.5 238.349609375 476.700195312 c 132,-1,6
 210 417.900390625 210 417.900390625 210 315 c 4,7,8
 210 237.299804688 210 237.299804688 262.5 171.150390625 c 132,-1,9
 315 105 315 105 441 105 c 4,10,11
 480.900390625 105 480.900390625 105 511.349609375 109.200195312 c 132,-1,12
 541.799804688 113.400390625 541.799804688 113.400390625 564.900390625 119.700195312 c 5,13,14
 535.5 155.400390625 535.5 155.400390625 519.75 199.5 c 132,-1,15
 504 243.599609375 504 243.599609375 504 294 c 4,16,17
 504 394.799804688 504 394.799804688 535.5 458.849609375 c 132,-1,18
 567 522.900390625 567 522.900390625 614.25 557.549804688 c 132,-1,19
 661.5 592.200195312 661.5 592.200195312 708.75 607.950195312 c 132,-1,20
 756 623.700195312 756 623.700195312 787.5 625.799804688 c 6,21,-1
 819 630 l 5,22,-1
 819 609 l 5,23,-1
 789.599609375 600.599609375 l 6,24,25
 760.200195312 592.200195312 760.200195312 592.200195312 723.450195312 563.849609375 c 132,-1,26
 686.700195312 535.5 686.700195312 535.5 658.349609375 476.700195312 c 132,-1,27
 630 417.900390625 630 417.900390625 630 315 c 4,28,29
 630 237.299804688 630 237.299804688 682.5 171.150390625 c 132,-1,30
 735 105 735 105 861 105 c 4,31,32
 900.900390625 105 900.900390625 105 932.400390625 109.200195312 c 132,-1,33
 963.900390625 113.400390625 963.900390625 113.400390625 987 119.700195312 c 5,34,-1
 987 420 l 5,35,-1
 987 525 l 5,36,-1
 1066.79980469 630 l 5,37,-1
 1176 630 l 5,38,-1
 1197 609 l 5,39,-1
 1134 525 l 5,40,-1
 1113 525 l 5,41,-1
 1113 420 l 5,42,-1
 1113 -210 l 5,43,-1
 1113 -525 l 5,44,-1
 1134 -525 l 5,45,-1
 1155 -546 l 5,46,-1
 1092 -630 l 5,47,-1
 1008 -630 l 5,48,-1
 987 -609 l 5,49,-1
 987 -210 l 5,50,-1
 231 -210 l 6,51,52
 199.5 -210 199.5 -210 182.700195312 -220.5 c 6,53,-1
 168 -231 l 5,54,-1
 126 -231 l 5,55,-1
 210 -105 l 5,56,-1
 987 -105 l 5,57,-1
 987 50.400390625 l 5,58,59
 953.400390625 29.400390625 953.400390625 29.400390625 911.400390625 14.7001953125 c 132,-1,60
 869.400390625 0 869.400390625 0 819 0 c 4,61,62
 695.099609375 0 695.099609375 0 604.799804688 77.7001953125 c 5,63,64
 569.099609375 50.400390625 569.099609375 50.400390625 516.599609375 25.2001953125 c 132,-1,65
 464.099609375 0 464.099609375 0 399 0 c 4,66,67
 315 0 315 0 243.599609375 38.849609375 c 132,-1,68
 172.200195312 77.7001953125 172.200195312 77.7001953125 128.099609375 143.849609375 c 132,-1,69
 84 210 84 210 84 294 c 4,70,71
 84 394.799804688 84 394.799804688 115.5 458.849609375 c 132,-1,72
 147 522.900390625 147 522.900390625 194.25 557.549804688 c 132,-1,73
 241.5 592.200195312 241.5 592.200195312 288.75 607.950195312 c 132,-1,74
 336 623.700195312 336 623.700195312 350.700195312 625.799804688 c 6,75,-1
 399 630 l 5,0,-1
EndSplineSet
Ligature2: "geminated" j j
LCarets2: 1 -638
EndChar

StartChar: k_k
Encoding: 65585 -1 126
Width: 732
VWidth: 4300
GlyphClass: 3
Flags: W
LayerCount: 2
Fore
SplineSet
42 630 m 1,0,-1
 315 630 l 1,1,-1
 562.799804688 630 l 1,2,-1
 567 630 l 1,3,-1
 672 630 l 1,4,-1
 693 609 l 1,5,-1
 630 525 l 1,6,-1
 609 525 l 1,7,-1
 609 420 l 1,8,-1
 609 -210 l 1,9,-1
 609 -525 l 1,10,-1
 630 -525 l 1,11,-1
 651 -546 l 1,12,-1
 588 -630 l 1,13,-1
 504 -630 l 1,14,-1
 483 -609 l 1,15,-1
 483 -210 l 1,16,-1
 147 -210 l 2,17,18
 115.5 -210 115.5 -210 98.7001953125 -220.5 c 2,19,-1
 84 -231 l 1,20,-1
 42 -231 l 1,21,-1
 126 -105 l 1,22,-1
 483 -105 l 1,23,-1
 483 50.400390625 l 1,24,25
 449.400390625 29.400390625 449.400390625 29.400390625 407.400390625 14.7001953125 c 128,-1,26
 365.400390625 0 365.400390625 0 315 0 c 0,27,28
 231 0 231 0 159.599609375 38.849609375 c 128,-1,29
 88.2001953125 77.7001953125 88.2001953125 77.7001953125 44.099609375 143.849609375 c 128,-1,30
 0 210 0 210 0 294 c 0,31,32
 0 375.900390625 0 375.900390625 22.0498046875 431.549804688 c 128,-1,33
 44.099609375 487.200195312 44.099609375 487.200195312 77.7001953125 525 c 1,34,-1
 63 525 l 2,35,36
 31.5 525 31.5 525 14.7001953125 514.5 c 2,37,-1
 0 504 l 1,38,-1
 -42 504 l 1,39,-1
 42 630 l 1,0,-1
182.700195312 525 m 1,40,41
 159.599609375 491.400390625 159.599609375 491.400390625 142.799804688 441 c 128,-1,42
 126 390.599609375 126 390.599609375 126 315 c 0,43,44
 126 237.299804688 126 237.299804688 178.5 171.150390625 c 128,-1,45
 231 105 231 105 357 105 c 0,46,47
 396.900390625 105 396.900390625 105 428.400390625 109.200195312 c 128,-1,48
 459.900390625 113.400390625 459.900390625 113.400390625 483 119.700195312 c 1,49,-1
 483 420 l 1,50,-1
 483 525 l 1,51,-1
 182.700195312 525 l 1,40,41
EndSplineSet
Ligature2: "geminated" k k
EndChar

StartChar: l_l
Encoding: 65586 -1 127
Width: 979
VWidth: 5159
GlyphClass: 3
Flags: W
LayerCount: 2
Fore
SplineSet
932.400390625 781.200195312 m 1,0,-1
 982.799804688 781.200195312 l 1,1,-1
 882 630 l 1,2,-1
 478.799804688 630 l 1,3,-1
 345.240234375 630 l 1,4,5
 309.959960938 584.640625 309.959960938 584.640625 280.98046875 510.299804688 c 128,-1,6
 252 435.959960938 252 435.959960938 252 327.599609375 c 0,7,8
 252 158.759765625 252 158.759765625 346.5 54.1806640625 c 128,-1,9
 441 -50.400390625 441 -50.400390625 630 -50.400390625 c 0,10,11
 730.799804688 -50.400390625 730.799804688 -50.400390625 784.98046875 -31.5 c 128,-1,12
 839.16015625 -12.599609375 839.16015625 -12.599609375 861.83984375 5.0400390625 c 2,13,-1
 882 25.2001953125 l 1,14,-1
 907.200195312 0 l 1,15,16
 884.51953125 -27.7197265625 l 0,17,18
 861.83984375 -52.919921875 861.83984375 -52.919921875 819 -88.2001953125 c 128,-1,19
 776.16015625 -123.48046875 776.16015625 -123.48046875 715.680664062 -149.940429688 c 128,-1,20
 655.200195312 -176.400390625 655.200195312 -176.400390625 579.599609375 -176.400390625 c 0,21,22
 453.599609375 -176.400390625 453.599609375 -176.400390625 343.98046875 -124.740234375 c 128,-1,23
 234.359375 -73.080078125 234.359375 -73.080078125 167.580078125 32.759765625 c 128,-1,24
 100.799804688 138.599609375 100.799804688 138.599609375 100.799804688 302.400390625 c 0,25,26
 100.799804688 420.83984375 100.799804688 420.83984375 137.33984375 500.219726562 c 128,-1,27
 173.880859375 579.599609375 173.880859375 579.599609375 226.799804688 630 c 1,28,-1
 176.400390625 630 l 2,29,30
 138.599609375 630 138.599609375 630 118.440429688 617.400390625 c 2,31,-1
 100.799804688 604.799804688 l 1,32,-1
 50.400390625 604.799804688 l 1,33,-1
 151.200195312 756 l 1,34,-1
 194.040039062 756 l 1,35,-1
 478.799804688 756 l 1,36,-1
 544.319335938 756 l 2,37,38
 607.319335938 756 607.319335938 756 695.51953125 756 c 128,-1,39
 783.719726562 756 783.719726562 756 856.799804688 756 c 0,40,41
 894.599609375 756 894.599609375 756 902.16015625 763.559570312 c 2,42,-1
 932.400390625 781.200195312 l 1,0,-1
882 403.200195312 m 1,43,-1
 932.400390625 403.200195312 l 1,44,-1
 831.599609375 252 l 1,45,-1
 428.400390625 252 l 2,46,47
 390.599609375 252 390.599609375 252 370.440429688 239.400390625 c 2,48,-1
 352.799804688 226.799804688 l 1,49,-1
 302.400390625 226.799804688 l 1,50,-1
 403.200195312 378 l 1,51,-1
 806.400390625 378 l 2,52,53
 844.200195312 378 844.200195312 378 854.280273438 383.040039062 c 2,54,-1
 882 403.200195312 l 1,43,-1
EndSplineSet
Ligature2: "geminated" l l
EndChar

